<?xml version="1.0" encoding="utf-8"?>
<!-- Generator: Adobe Illustrator 19.0.0, SVG Export Plug-In . SVG Version: 6.00 Build 0)  -->
<svg version="1.1" xmlns="http://www.w3.org/2000/svg" xmlns:xlink="http://www.w3.org/1999/xlink" x="0px" y="0px"
	 viewBox="0 0 866.7 1202.8" style="enable-background:new 0 0 866.7 1202.8;" xml:space="preserve">
<style type="text/css">
	.st0{fill:#999999;}
	.st1{fill:#666766;}
	.st2{opacity:0.4;}
	.st3{fill:#7F7F7F;}
	.st4{fill:#7292CB;}
	.st5{fill:#9595C9;}
	.st6{fill:url(#XMLID_64_);}
	.st7{opacity:0.1;}
	.st8{fill:#C6D4E2;}
	.st9{opacity:0.51;}
	.st10{fill:#58595B;}
	.st11{fill:#7D7C7C;}
	.st12{fill:#CDCFD0;}
	.st13{fill:#013333;}
	.st14{fill:#EBF2F2;}
	.st15{fill:#ED1F24;}
	.st16{fill:#71BF44;}
	.st17{fill:#E6E7E8;}
	.st18{fill:#9B8579;}
	.st19{opacity:0.18;}
	.st20{fill:#261A11;}
	.st21{fill:#3F2B19;}
	.st22{fill:#FDCD9A;}
	.st23{fill:#F2F2F2;}
	.st24{fill:url(#XMLID_70_);}
	.st25{fill:#FFFFFF;}
	.st26{fill:#E8AA72;}
	.st27{fill:#543116;}
	.st28{fill:url(#XMLID_71_);}
	.st29{fill:#13123F;}
	.st30{fill:#B79062;}
	.st31{fill:#D67F6E;}
	.st32{fill:#563A28;}
</style>
<g id="прав_нога">
	<path id="п_низ_1_" class="st0" d="M458.1,1020.5c-9.5,45.5-22.5,121-1.2,166.9c9.7,11.8,19.2,15.4,31.6,15.3
		c23.8-3.2,50.5-44.4,96.5-118c15.5-24.8,17.2-47.7,15.4-67.8C593.1,938.4,481.6,908,458.1,1020.5z"/>
	<path id="п_верх" class="st0" d="M469,1079.4c-12-29.2-17.9-45.1-25.4-69.6c-16.5-53.9-4.2-98.4,17-121.3
		c16.3-17.6,130.9-48.6,133.8-24.8c4,33,4.4,98.8,6.2,153.4c0.3,10.1-1.9,19.7-1.5,28.7C563.7,1094.5,513.3,1104,469,1079.4z"/>
	<path id="ботинок_п_1_" class="st1" d="M446.4,1096.7c-3.7,36-2.3,63.1,10.5,90.7c9.7,11.8,19.2,15.4,31.6,15.3
		c16.5-2.2,32-19.1,56.7-56C522.5,1159.3,460.9,1126.2,446.4,1096.7z"/>
	<path id="тень_к" class="st2" d="M600.3,1000.3c-7.9,4.2-19.4,7.3-24.5,4.2c-12.8-7.8-17.4-45.2-11.3-58.9
		c3.6-8,23.8-15.6,34.1-13.4C599.2,954.5,599.7,978.2,600.3,1000.3z"/>
	<path id="карман_1_" class="st3" d="M565.2,940.9c4-9,29.4-21.3,35.8-11.5c10.3,14,14.3,47.2,6.8,61.3
		c-5.2,7.7-24.3,13.3-31.3,9.1C563.7,992,559.1,954.6,565.2,940.9z"/>
	<path id="стежка_к_1_" class="st1" d="M606.8,940.9c-5.8,20.4-30.3,13.6-43.9,9.4c3.5,4.1,20.2,7.5,26.3,7.4
		c-1.6,9.7,15.3,4.5,9.4-1.3C602.2,953.9,605.8,947.9,606.8,940.9z"/>
</g>
<g id="лев_нога">
	<path id="л_низ_1_" class="st0" d="M376.7,1051.3c-12.8,44.7-36.5,117.6-76.7,148.2c-14.1,5.9-24.2,4.7-35.1-1.1
		c-19.6-13.9-24-62.8-30.4-149.4C223.8,905.6,416.3,912.5,376.7,1051.3z"/>
	<path id="л_верх_1_" class="st0" d="M369.7,1073.2c9.8-30,14.5-46.3,20.1-71.3c12.4-55-3.1-98.4-26-119.7
		c-17.5-16.3-134.2-38.7-135.3-14.8c-1.8,39.3,4.8,124.2,6.3,182.2C272.1,1101.6,328,1102.3,369.7,1073.2z"/>
	<path id="ботинок_п" class="st1" d="M351.4,1124.4c-13.4,33.6-27.3,56.7-51.4,75.1c-14.1,5.9-24.7,4.7-35.6-1.1
		c-13.6-9.6-18.6-29.7-23.3-73.8C255.3,1146.3,324.8,1143.7,351.4,1124.4z"/>
	<path id="тень_к_1_" class="st2" d="M233.3,1011.3c8.2,3.6,19.9,5.8,24.7,2.4c12.2-8.7,14-46.4,6.9-59.6
		c-4.1-7.7-24.9-13.8-35-10.8C231,965.6,232.3,989.2,233.3,1011.3z"/>
	<path id="карман" class="st3" d="M264.5,947.8c-4.7-8.7-30.9-19-36.6-8.8c-9.2,14.7-10.7,48.1-2.2,61.6
		c5.7,7.3,25.2,11.5,31.9,6.8C269.8,998.7,271.6,961,264.5,947.8z"/>
	<path id="стежка_к" class="st1" d="M223,950.9c7.3,19.9,31.2,11.3,44.5,6.2c-3.2,4.3-19.6,9-25.7,9.3
		c2.3,9.6-14.9,5.6-9.5-0.6C228.5,963.6,224.5,957.8,223,950.9z"/>
</g>
<g id="лев_рука">
	<path id="XMLID_46_" class="st0" d="M251.3,582.9c-32.5,66.3-108.8,229.2-108,256.9c5.2,6.9,12.8,10.3,19.9,5.7
		c35.4-29.3,165.5-134.5,194.9-179.7c15.3-23.5-7.4-84.8-60.7-106.1C278.3,552,257,571.4,251.3,582.9z"/>
	<path id="XMLID_45_" class="st4" d="M226.8,633.9c0,0,24.3,42.2,34.6,54.9c8.6,10.6,39.6,38.5,39.6,38.5l13.3-12.6
		c0,0-33.5-33-43.2-45.2c-10.2-12.8-35.5-54.2-35.5-54.2L226.8,633.9z"/>
	<path id="XMLID_44_" class="st4" d="M188.8,716.9c-1.4,3.1-2.8,6.2-4.1,9.3c32.7,3.3,46.8,7.5,78.1,35.6c1.9-1.6,3.7-3.3,5.6-4.9
		C249.1,731.5,222.3,717.3,188.8,716.9z"/>
	<path id="XMLID_43_" class="st4" d="M180.1,736.7c-1.4,3.2-2.7,6.3-4.1,9.4c26.9-2.3,51.7,5,74.8,26.1c1.9-1.7,3.9-3.4,5.8-5.1
		C236.3,748.6,212,738.1,180.1,736.7z"/>
	<path id="XMLID_42_" class="st1" d="M149.1,814.7c0,0,12.7-3,20.2,1.6c9.7,6,12.1,14.3,12.1,14.3l59.9-50.2c0,0-13.7-15.6-28.3-22
		c-17.4-7.6-41.4-2-41.4-2c-0.7,1.6-11.5,27.9-18,45.4L149.1,814.7z"/>
	<path id="XMLID_41_" class="st5" d="M204.4,771.1c-9.4-5.3-24.6-6.6-36.8-4.5c-3.4,8.4-8.2,20.5-12.2,30.8
		c17-2.9,31.8,8.8,31.8,8.8S202.3,785.9,204.4,771.1z"/>
	
		<radialGradient id="XMLID_64_" cx="91.9926" cy="720.8463" r="19.382" gradientTransform="matrix(0.8861 -0.5665 0.6026 0.7981 -337.9032 259.7636)" gradientUnits="userSpaceOnUse">
		<stop  offset="0.1182" style="stop-color:#1DBFD3"/>
		<stop  offset="0.9409" style="stop-color:#001331"/>
	</radialGradient>
	<path id="XMLID_23_" class="st6" d="M186.8,798c5.6-7.8,9.5-15,12.5-23.4c-10.6-4.4-22-6.1-33.1-4.9c-2.5,6.2-6.1,15.2-9,22.6
		C167.3,789.7,178.5,793.1,186.8,798z"/>
	<path id="XMLID_40_" class="st7" d="M279.5,698.3c-25.1,42.3-106.7,117.1-135.6,142.2c5.2,6.5,12.5,9.5,19.4,5.1
		c35.4-29.3,165.5-134.5,194.9-179.7c12.8-19.6-14.9-60.9-46.3-86.3C309.8,591,305.8,653.9,279.5,698.3z"/>
</g>
<g id="п_рука">
	<path id="XMLID_6_" class="st0" d="M621.4,702.5l31.8,46.4l-9.9,12.7c0,0-12.7,21.4-31,24c-21.2,3-76.1-39.4-76.1-39.4l17.8-56.1
		l35.7-1.7L621.4,702.5z"/>
	<path id="XMLID_16_" class="st0" d="M621.4,702.5c-20.4-45.4-42.2-91.3-56.1-119.6c-5.7-11.6-26.6-33-47.6-28
		c-52.8,12.6-74.6,87.4-59.3,110.9c12.6,19.4,43.6,49.7,77.8,80.4C558.2,721.2,589.7,709.6,621.4,702.5z"/>
	<path id="XMLID_18_" class="st0" d="M594,679.5c9.2,31.2,22.8,61.8,49.2,82.1c37.9-48.2,76.1-102.1,91.4-123.4
		c4.1-7.4,0.2-14.8-7-19.5C711.8,619.3,653.2,648.1,594,679.5z"/>
	<path id="XMLID_19_" class="st4" d="M555.2,688.8c10.3-12.7,34.6-54.9,34.6-54.9l-8.8-18.5c0,0-25.4,41.4-35.5,54.2
		c-9.7,12.1-43.2,45.2-43.2,45.2l13.3,12.6C515.6,727.3,546.5,699.4,555.2,688.8z"/>
	<path id="XMLID_20_" class="st4" d="M653.2,748.9c1.5-2,3-3.9,4.5-5.9c-30.1-29.4-35.3-43.2-40.7-75.6c-3,1.6-6,3.1-9.1,4.7
		C610.6,705.6,626.5,731.4,653.2,748.9z"/>
	<path id="XMLID_26_" class="st4" d="M627.2,662.2c3.5,31.8,15.5,55.3,35.4,74.4c1.6-2.1,3.1-4.1,4.7-6.2
		c-22.5-21.6-31.4-45.9-30.9-72.9C633.3,659,630.3,660.6,627.2,662.2z"/>
	<path id="XMLID_9_" class="st1" d="M703,626.2c0,0-2.1,12.9,2.9,20.1c6.6,9.3,15,11.1,15,11.1l-46.1,63c0,0-16.4-12.6-23.8-26.8
		c-8.8-16.9-4.8-41.1-4.8-41.1c1.6-0.8,27.1-13.3,44.1-21L703,626.2z"/>
	<path id="XMLID_25_" class="st7" d="M558.3,727.1c-8.7-10.5-16.1-20.3-21.1-28.8c-26.3-44.4-30.3-107.3-32.4-118.8
		c-31.4,25.4-59.1,66.7-46.3,86.3c12.6,19.4,43.6,49.7,77.8,80.4C542.8,738.7,550.2,732.4,558.3,727.1z"/>
	<path id="XMLID_27_" class="st7" d="M622.7,740.9c-3.3,4.8-16.6,20.5-16.6,20.5s-31.7-29.8-33-24.2c-2.7,11.7,6.1,20.4,6.5,30.6
		c0.4,10.4,21.6,18,30.5,18c11.7-0.5,23.4-9.4,33.1-24.2c37.9-48.2,76.1-102.1,91.4-123.4c4-7.2,0.4-14.3-6.4-19
		C709.9,643.6,662,703.5,622.7,740.9z"/>
</g>
<g id="тело_1_">
	<path id="XMLID_14_" class="st0" d="M580.6,700.9c-8-36.4-52.1-122-79.3-154.2C470.3,510,360.1,507,329,543.4
		c-34.5,40.5-81,122-86.8,157.5c-8.8,53.6-29.1,171.3,0,217.1c16.6,38.6,131.7,74.2,173.7,74.2c43.4,0,141.8-38.9,164.7-74.2
		C610.1,872.4,592.2,753.9,580.6,700.9z"/>
	<path id="XMLID_3_" class="st4" d="M227.4,855c0,0,62.9,16.7,99.1,42.2c42.6,30.1,67.6,92.9,67.6,92.9l-9.4-1.7
		c0,0-29.9-61.2-63.7-83.1c-38.6-25.1-91.9-41.6-91.9-41.6L227.4,855z"/>
	<path id="XMLID_12_" class="st4" d="M596.7,855c0,0-62.9,16.7-99.1,42.2c-42.6,30.1-67.6,92.9-67.6,92.9l9.4-1.7
		c0,0,29.9-61.2,63.7-83.1c38.6-25.1,91.9-41.6,91.9-41.6L596.7,855z"/>
</g>
<g id="блок">
	<polygon id="XMLID_50_" class="st8" points="411.9,708.7 416.8,708.7 416.6,909.3 411.9,909.3 	"/>
	<path id="тень" class="st9" d="M447.2,717.9c-5.1-3.2-17.1-5.1-19.4,0c52.8,53.7,102.9,84.6,167.9,95.9
		c0.1-12.3-2.9-14.2-3.2-18.2C542.8,788.8,475.4,749,447.2,717.9z"/>
	<path id="тень_1_" class="st9" d="M376.4,719c5.1-3.2,17.1-5.1,19.4,0c-52.8,53.7-102.9,84.6-167.9,95.9
		c-0.1-12.3,2.9-14.2,3.2-18.2C280.7,789.8,348.2,750,376.4,719z"/>
	<path id="XMLID_13_" class="st10" d="M338.3,535.2c45.5,28.9,80,132.6,73.6,144.8c-11.5-12-46.3-94.1-87-131.5
		C323.5,535.1,330.7,529.6,338.3,535.2z"/>
	<path id="XMLID_10_" class="st10" d="M491.2,535.2c-45.5,28.9-80,132.6-73.6,144.8c11.5-12,46.3-94.1,87-131.5
		C505.9,535.1,498.8,529.6,491.2,535.2z"/>
	<polygon id="XMLID_17_" class="st11" points="350,715.2 483.6,715.2 474.1,721.7 359.6,721.7 	"/>
	<rect id="XMLID_24_" x="350" y="644.8" class="st12" width="133.6" height="70.4"/>
	<rect id="XMLID_21_" x="361.4" y="658.2" class="st13" width="60" height="30.3"/>
	<rect id="XMLID_22_" x="435.3" y="658.2" class="st14" width="37.5" height="37.5"/>
	<circle id="XMLID_38_" class="st15" cx="463.4" cy="667.3" r="5.7"/>
	<circle id="XMLID_39_" class="st16" cx="444.9" cy="667.3" r="5.7"/>
	<circle id="XMLID_47_" class="st15" cx="463.4" cy="688.5" r="5.9"/>
	<circle id="XMLID_48_" class="st15" cx="444.9" cy="688.5" r="5.7"/>
</g>
<g id="лев_труба">
	<path id="база_2_" class="st17" d="M362.7,719c5.1-3.2,22.7-3.8,24.9,1.3c-52.8,53.7-94.2,74.6-159.3,85.9
		c-8-5.2-5.5-14.2,1.8-19.3C279.8,780.1,334.6,750,362.7,719z"/>
	<path id="_x32_6" class="st18" d="M226.4,790.4c-3.2,3.9-4.1,8.8-1.4,12.7C224,798.6,224.1,794,226.4,790.4z"/>
	<path id="_x32_5" class="st18" d="M233.6,786.4c-0.5,0.1-1.1,0.2-1.6,0.2c-4.8,4.7-7.3,14-2.6,19.4c0.6-0.1,1.2-0.2,1.9-0.3
		C227.3,800.1,229.1,792.2,233.6,786.4z"/>
	<path id="_x32_4" class="st18" d="M238.1,785.6c-0.9,0.2-1.8,0.3-2.7,0.5c-1.7,6.4-4.4,12.8-2.4,19.3c1.4-0.3,2.8-0.5,4.2-0.8
		C233.9,798.5,233.5,791,238.1,785.6z"/>
	<path id="_x32_3" class="st18" d="M242.8,784.7c-0.6,0.1-1.1,0.2-1.7,0.3c-3,6-3.3,13.3-0.6,18.9c1.1-0.2,2.1-0.4,3.2-0.6
		C240.1,797.5,239.5,790.4,242.8,784.7z"/>
	<path id="_x32_2" class="st18" d="M249.7,783.1c-0.6,0.1-1.1,0.3-1.7,0.4c-1.3,6.2,0.8,12.4,0.9,18.6c0.7-0.2,1.3-0.3,2-0.5
		C249,795.7,249.6,789.7,249.7,783.1z"/>
	<path id="_x32_1" class="st18" d="M254,781.9c-0.8,0.2-1.6,0.4-2.5,0.6c-0.3,6.5,2.1,12.4,0.2,18.8c0.7-0.2,1.3-0.3,2-0.5
		C255.1,794.6,256.1,788.3,254,781.9z"/>
	<path id="_x32_0" class="st18" d="M262.8,779.4c-1.3,0.4-2.5,0.8-3.8,1.2c1.2,7.4-0.9,14.1-4,20.1c0.5-0.1,1.1-0.3,1.6-0.4
		C259.6,793.6,261.3,786.5,262.8,779.4z"/>
	<path id="_x31_9" class="st18" d="M270.4,776.8c-1,7.8-2.8,15-6.9,21.6c1.4-0.4,2.8-0.8,4.1-1.2c3.8-5.6,4.1-13.9,4.1-20.9
		C271.2,776.5,270.8,776.7,270.4,776.8z"/>
	<path id="_x31_8" class="st18" d="M273.1,775.8c-0.5,0.2-1,0.4-1.5,0.5c0,7-0.3,15.3-4.1,20.9c0.4-0.1,0.7-0.2,1.1-0.3
		C271.8,790.3,273.9,783.1,273.1,775.8z"/>
	<path id="_x31_7" class="st18" d="M279.2,773.5c-0.4,0.2-0.9,0.4-1.3,0.5c3.2,6.5-1.8,14.4-4.9,21.6c1.3-0.4,2.7-0.9,4-1.3
		C280,787.7,282.4,780.1,279.2,773.5z"/>
	<path id="_x31_6" class="st18" d="M283.2,771.9c-0.6,0.2-1.2,0.5-1.8,0.7c2.7,6.9,1.4,14.3-1,20.5c0.6-0.2,1.3-0.4,1.9-0.7
		C285.4,785.7,286.9,778,283.2,771.9z"/>
	<path id="_x31_5" class="st18" d="M289.2,769.4c-0.5,0.2-1,0.4-1.5,0.6c5.2,5.8,1.2,14.5-1.6,21.1c0.9-0.4,1.9-0.7,2.8-1.1
		C292.4,783.3,295.9,774.1,289.2,769.4z"/>
	<path id="_x31_4.5" class="st18" d="M294.1,767.1c-0.6,0.3-1.1,0.5-1.7,0.8c4.4,5.9,2.9,13.2,1.8,20c0.7-0.3,1.3-0.6,2-0.8
		C297.4,780.2,296.5,774,294.1,767.1z"/>
	<path id="_x31_4" class="st18" d="M295,766.7c-0.3,0.1-0.6,0.3-0.9,0.4c2.5,6.9,3.3,13.1,2,19.9c0.2-0.1,0.5-0.2,0.7-0.3
		C300,780.5,299,772.6,295,766.7z"/>
	<path id="_x31_3" class="st18" d="M306.3,782.3c-1.1-6.6-3-12-6.4-18c-0.3,0.2-0.6,0.3-0.9,0.5c2.2,6.3,4.9,12.6,4.7,18.9
		C304.5,783.2,305.4,782.8,306.3,782.3z"/>
	<path id="_x31_2" class="st18" d="M304.3,762c-1,0.5-2,1-2.9,1.5c4.6,3.7,10.5,9.1,10.4,16c0.6-0.3,1.3-0.7,1.9-1
		C314.5,772.1,309.8,766.6,304.3,762z"/>
	<path id="_x31_1" class="st18" d="M312.4,757.6c-0.5,0.3-0.9,0.5-1.4,0.8c4.9,5.3,4,12.1,5.9,18.4c0.5-0.3,1.1-0.6,1.6-0.9
		C318.7,769.1,317.2,762.1,312.4,757.6z"/>
	<path id="_x31_0" class="st18" d="M327.3,770.6c-1.1-6.1-3.1-12.6-8-17c-1.1,0.7-2.3,1.4-3.5,2.1c5,4.4,8.4,10.4,7.9,17.1
		C325,772,326.1,771.3,327.3,770.6z"/>
	<path id="_x39_" class="st18" d="M326.1,749.3c-0.4,0.3-0.8,0.5-1.3,0.8c4.4,4.7,4.2,11.3,7.1,17.5c0.7-0.5,1.5-1,2.2-1.5
		C333.4,759.7,332.1,753.3,326.1,749.3z"/>
	<path id="_x38_" class="st18" d="M333.1,744.6c-0.7,0.5-1.4,1-2.2,1.5c7.1,1.1,8.6,8.7,11.1,14.5c1.2-0.9,2.4-1.8,3.6-2.7
		C343.9,752.1,338.8,746.3,333.1,744.6z"/>
	<path id="_x37_" class="st18" d="M344.1,736.3c-0.9,0.7-1.8,1.4-2.7,2.1c5.8,1.8,9.7,8,10.9,14.3c1.2-1,2.5-2,3.7-3.1
		C353.3,744.3,349.7,737.9,344.1,736.3z"/>
	<path id="_x36_" class="st18" d="M349,732.2c-0.7,0.6-1.4,1.2-2.1,1.8c5.6,2.7,9.8,7.8,11.7,13.5c0.5-0.4,1-0.9,1.5-1.3
		C358.1,740.1,355.2,734.9,349,732.2z"/>
	<path id="_x35_" class="st18" d="M354.3,727.4c-0.8,0.8-1.7,1.5-2.5,2.3c4.8,3.9,9.6,7.7,12.2,13.1c0.5-0.5,1.1-1,1.6-1.5
		C362.3,736.1,359.4,731.1,354.3,727.4z"/>
	<path id="_x34_" class="st18" d="M357.6,724.3c-0.3,0.3-0.5,0.5-0.8,0.8c5.6,1.9,10.3,7.4,12.5,13c0.4-0.4,0.9-0.8,1.3-1.2
		C367.9,731,364.2,726.2,357.6,724.3z"/>
	<path id="_x33_" class="st18" d="M359.8,722c-0.3,0.3-0.6,0.6-0.9,1c6.8,0.7,11.8,5.7,13.9,11.9c1.2-1.1,2.4-2.2,3.6-3.4
		C371.9,726.5,366.6,722.5,359.8,722z"/>
	<path id="_x32_" class="st18" d="M360.9,721c-0.2,0.2-0.4,0.4-0.6,0.7c6.8-1.6,13.9,2.5,19.7,6.4c0.6-0.6,1.2-1.2,1.7-1.7
		C377.2,720.1,368.2,720.1,360.9,721z"/>
	<path id="_x31_" class="st18" d="M361.9,719.9c-0.2,0.2-0.3,0.4-0.5,0.6c8-2.7,16.8-1.8,22.9,3.3c0.5-0.5,1-1,1.5-1.5
		C378.9,717,369.5,716.2,361.9,719.9z"/>
	<path id="тень_В" class="st19" d="M374.7,716.5c5.9-0.1,11.7,1,12.9,3.8c-52.8,53.7-94.2,74.6-159.3,85.9
		c-3.1-2-4.6-4.6-4.9-7.4C267.6,803.4,360.6,752,374.7,716.5z"/>
</g>
<g id="П_труба">
	<path id="база_1_" class="st17" d="M463.8,719c-5.1-3.2-22.7-3.8-24.9,1.3c52.8,53.7,94.2,74.6,159.3,85.9
		c8-5.2,5.5-14.2-1.8-19.3C546.7,780.1,491.9,750,463.8,719z"/>
	<path id="_x32_6_1_" class="st18" d="M600.1,790.4c3.2,3.9,4.1,8.8,1.4,12.7C602.5,798.6,602.4,794,600.1,790.4z"/>
	<path id="_x32_5_1_" class="st18" d="M592.9,786.4c0.5,0.1,1.1,0.2,1.6,0.2c4.8,4.7,7.3,14,2.6,19.4c-0.6-0.1-1.2-0.2-1.9-0.3
		C599.2,800.1,597.4,792.2,592.9,786.4z"/>
	<path id="_x32_4_1_" class="st18" d="M588.4,785.6c0.9,0.2,1.8,0.3,2.7,0.5c1.7,6.4,4.4,12.8,2.4,19.3c-1.4-0.3-2.8-0.5-4.2-0.8
		C592.6,798.5,593,791,588.4,785.6z"/>
	<path id="_x32_3_1_" class="st18" d="M583.7,784.7c0.6,0.1,1.1,0.2,1.7,0.3c3,6,3.3,13.3,0.6,18.9c-1.1-0.2-2.1-0.4-3.2-0.6
		C586.4,797.5,587,790.4,583.7,784.7z"/>
	<path id="_x32_2_1_" class="st18" d="M576.8,783.1c0.6,0.1,1.1,0.3,1.7,0.4c1.3,6.2-0.8,12.4-0.9,18.6c-0.7-0.2-1.3-0.3-2-0.5
		C577.5,795.7,576.9,789.7,576.8,783.1z"/>
	<path id="_x32_1_1_" class="st18" d="M572.5,781.9c0.8,0.2,1.6,0.4,2.5,0.6c0.3,6.5-2.1,12.4-0.2,18.8c-0.7-0.2-1.3-0.3-2-0.5
		C571.4,794.6,570.4,788.3,572.5,781.9z"/>
	<path id="_x32_0_1_" class="st18" d="M563.7,779.4c1.3,0.4,2.5,0.8,3.8,1.2c-1.2,7.4,0.9,14.1,4,20.1c-0.5-0.1-1.1-0.3-1.6-0.4
		C566.9,793.6,565.2,786.5,563.7,779.4z"/>
	<path id="_x31_9_1_" class="st18" d="M556.1,776.8c1,7.8,2.8,15,6.9,21.6c-1.4-0.4-2.8-0.8-4.1-1.2c-3.8-5.6-4.1-13.9-4.1-20.9
		C555.3,776.5,555.7,776.7,556.1,776.8z"/>
	<path id="_x31_8_1_" class="st18" d="M553.4,775.8c0.5,0.2,1,0.4,1.5,0.5c0,7,0.3,15.3,4.1,20.9c-0.4-0.1-0.7-0.2-1.1-0.3
		C554.7,790.3,552.6,783.1,553.4,775.8z"/>
	<path id="_x31_7_1_" class="st18" d="M547.3,773.5c0.4,0.2,0.9,0.4,1.3,0.5c-3.2,6.5,1.8,14.4,4.9,21.6c-1.3-0.4-2.7-0.9-4-1.3
		C546.5,787.7,544.1,780.1,547.3,773.5z"/>
	<path id="_x31_6_1_" class="st18" d="M543.3,771.9c0.6,0.2,1.2,0.5,1.8,0.7c-2.7,6.9-1.4,14.3,1,20.5c-0.6-0.2-1.3-0.4-1.9-0.7
		C541.1,785.7,539.6,778,543.3,771.9z"/>
	<path id="_x31_5_1_" class="st18" d="M537.3,769.4c0.5,0.2,1,0.4,1.5,0.6c-5.2,5.8-1.2,14.5,1.6,21.1c-0.9-0.4-1.9-0.7-2.8-1.1
		C534.1,783.3,530.6,774.1,537.3,769.4z"/>
	<path id="_x31_4.5_1_" class="st18" d="M532.4,767.1c0.6,0.3,1.1,0.5,1.7,0.8c-4.4,5.9-2.9,13.2-1.8,20c-0.7-0.3-1.3-0.6-2-0.8
		C529.1,780.2,530,774,532.4,767.1z"/>
	<path id="_x31_4_1_" class="st18" d="M531.5,766.7c0.3,0.1,0.6,0.3,0.9,0.4c-2.5,6.9-3.3,13.1-2,19.9c-0.2-0.1-0.5-0.2-0.7-0.3
		C526.5,780.5,527.5,772.6,531.5,766.7z"/>
	<path id="_x31_3_1_" class="st18" d="M520.2,782.3c1.1-6.6,3-12,6.4-18c0.3,0.2,0.6,0.3,0.9,0.5c-2.2,6.3-4.9,12.6-4.7,18.9
		C522,783.2,521.1,782.8,520.2,782.3z"/>
	<path id="_x31_2_1_" class="st18" d="M522.2,762c1,0.5,2,1,2.9,1.5c-4.6,3.7-10.5,9.1-10.4,16c-0.6-0.3-1.3-0.7-1.9-1
		C512,772.1,516.7,766.6,522.2,762z"/>
	<path id="_x31_1_1_" class="st18" d="M514.1,757.6c0.5,0.3,0.9,0.5,1.4,0.8c-4.9,5.3-4,12.1-5.9,18.4c-0.5-0.3-1.1-0.6-1.6-0.9
		C507.8,769.1,509.3,762.1,514.1,757.6z"/>
	<path id="_x31_0_1_" class="st18" d="M499.2,770.6c1.1-6.1,3.1-12.6,8-17c1.1,0.7,2.3,1.4,3.5,2.1c-5,4.4-8.4,10.4-7.9,17.1
		C501.5,772,500.4,771.3,499.2,770.6z"/>
	<path id="_x39__1_" class="st18" d="M500.4,749.3c0.4,0.3,0.8,0.5,1.3,0.8c-4.4,4.7-4.2,11.3-7.1,17.5c-0.7-0.5-1.5-1-2.2-1.5
		C493.1,759.7,494.4,753.3,500.4,749.3z"/>
	<path id="_x38__1_" class="st18" d="M493.4,744.6c0.7,0.5,1.4,1,2.2,1.5c-7.1,1.1-8.6,8.7-11.1,14.5c-1.2-0.9-2.4-1.8-3.6-2.7
		C482.6,752.1,487.7,746.3,493.4,744.6z"/>
	<path id="_x37__1_" class="st18" d="M482.4,736.3c0.9,0.7,1.8,1.4,2.7,2.1c-5.8,1.8-9.7,8-10.9,14.3c-1.2-1-2.5-2-3.7-3.1
		C473.2,744.3,476.8,737.9,482.4,736.3z"/>
	<path id="_x36__1_" class="st18" d="M477.5,732.2c0.7,0.6,1.4,1.2,2.1,1.8c-5.6,2.7-9.8,7.8-11.7,13.5c-0.5-0.4-1-0.9-1.5-1.3
		C468.4,740.1,471.3,734.9,477.5,732.2z"/>
	<path id="_x35__1_" class="st18" d="M472.2,727.4c0.8,0.8,1.7,1.5,2.5,2.3c-4.8,3.9-9.6,7.7-12.2,13.1c-0.5-0.5-1.1-1-1.6-1.5
		C464.3,736.1,467.1,731.1,472.2,727.4z"/>
	<path id="_x34__1_" class="st18" d="M468.9,724.3c0.3,0.3,0.5,0.5,0.8,0.8c-5.6,1.9-10.3,7.4-12.5,13c-0.4-0.4-0.9-0.8-1.3-1.2
		C458.6,731,462.3,726.2,468.9,724.3z"/>
	<path id="_x33__1_" class="st18" d="M466.7,722c0.3,0.3,0.6,0.6,0.9,1c-6.8,0.7-11.8,5.7-13.9,11.9c-1.2-1.1-2.4-2.2-3.6-3.4
		C454.6,726.5,459.9,722.5,466.7,722z"/>
	<path id="_x32__1_" class="st18" d="M465.6,721c0.2,0.2,0.4,0.4,0.6,0.7c-6.8-1.6-13.9,2.5-19.7,6.4c-0.6-0.6-1.2-1.2-1.7-1.7
		C449.3,720.1,458.3,720.1,465.6,721z"/>
	<path id="_x31__1_" class="st18" d="M464.6,719.9c0.2,0.2,0.3,0.4,0.5,0.6c-8-2.7-16.8-1.8-22.9,3.3c-0.5-0.5-1-1-1.5-1.5
		C447.6,717,457,716.2,464.6,719.9z"/>
	<path id="тень_В_1_" class="st19" d="M451.8,716.5c-5.9-0.1-11.7,1-12.9,3.8c52.8,53.7,94.2,74.6,159.3,85.9
		c3.1-2,4.6-4.6,4.9-7.4C558.8,803.4,465.9,752,451.8,716.5z"/>
</g>
<g id="голова">
	<polygon id="XMLID_60_" class="st20" points="172.1,262.1 172.1,533 268.3,539.7 647.2,539.7 697,506.5 697,362.8 	"/>
	<path id="XMLID_69_" class="st21" d="M123.1,362.8v163.5l90.7,48c0,0-17.7-93.6-19-128.9c-1.2-32.1-6.6-97-3.1-149.8
		c-22,6.2-43.4,14.1-64.7,22.3C124.5,343.7,123.1,362.8,123.1,362.8z"/>
	<path id="XMLID_32_" class="st22" d="M658.9,346.5c0,16.9-2.4,40.6-7.4,63.5c-2.7,12.6-4.9,18.5-9.3,30
		c-34.7,90.7-120.7,148.9-229.1,148.9c-182.3,0-256.4-120.4-252.2-192.6c3-50.9,28.4-64,33.2-113.1c9.7-98.5,87.6-194.4,219-194.4
		C601,89,658.9,204.3,658.9,346.5z"/>
	<g id="глаз_л">
		<path id="XMLID_8_" class="st23" d="M251.4,320.5c0,0,5.4-42.5,68-37.6c37.9,3,67.5,49.2,67.5,49.2s-24.4-2.4-32.3-0.7
			c-11.5,2.6-14.9,7.4-47.1,4.8C274.4,333.7,251.4,320.5,251.4,320.5z"/>
		
			<radialGradient id="XMLID_70_" cx="322.8066" cy="317.6096" r="27.0678" gradientTransform="matrix(0.9968 7.935896e-002 -7.935896e-002 0.9968 23.8813 -32.0387)" gradientUnits="userSpaceOnUse">
			<stop  offset="7.389162e-002" style="stop-color:#603913"/>
			<stop  offset="0.7143" style="stop-color:#A77B22"/>
			<stop  offset="0.7732" style="stop-color:#A17522"/>
			<stop  offset="0.8485" style="stop-color:#906520"/>
			<stop  offset="0.9324" style="stop-color:#774E1A"/>
			<stop  offset="1" style="stop-color:#603913"/>
		</radialGradient>
		<circle id="XMLID_5_" class="st24" cx="320.5" cy="310.2" r="27.1"/>
		<circle id="XMLID_11_" cx="320.5" cy="310.2" r="11.5"/>
		<ellipse id="XMLID_29_" class="st25" cx="309" cy="309.3" rx="6.5" ry="2.6"/>
		<circle id="XMLID_36_" class="st25" cx="331.9" cy="311.1" r="3.6"/>
		<path id="XMLID_28_" class="st26" d="M376,317.9c0,0-11.4-23.2-17.1-29.6c-4.5-5.1-15.5-13.8-21.9-16.3
			c-8.2-3.2-25.8-6.4-34.6-6.1c-6.9,0.3-20.9,2.3-27.2,5.1c-5.8,2.5-16.6,9.5-21,14.1c-4,4.1-10.5,13.6-13.1,18.7
			c-2,3.8-4,12.3-6.5,15.7c-2.2,2.8-11.6,8.3-11.6,8.3s12.2-2,16.1-3c3.1-0.8,12.3-4.3,12.3-4.3s2.4-8.5,3.8-11.1
			c2.4-4.3,8.6-12.3,12.6-15c6.1-4.1,20.2-9.7,27.6-10.9c6.7-1.1,20.5-1.7,27.2-0.3c6.9,1.5,20.2,6.9,26.3,10.5
			c2.9,1.7,8.3,5.8,10.9,8C364.1,305.6,376,317.9,376,317.9z"/>
		<path id="XMLID_15_" class="st27" d="M376,317.9c0,0-11.8-14.6-17.5-21c-4.5-5.1-15.3-11.7-21.7-14.2c-8.2-3.2-17.8-5.7-26.6-5.4
			c-6.9,0.3-17.8,0.1-24.2,2.9c-5.8,2.5-15.2,7.2-20.2,11c-4.5,3.4-10.8,10.2-13.4,15.2c-2,3.8-3,7.7-5.6,11c-2.2,2.8-10.8,8-10.8,8
			s-0.9,0.4,3-0.7c3.1-0.8,12.3-4.3,12.3-4.3s2.4-8.5,3.8-11.1c2.4-4.3,8.6-12.3,12.6-15c6.1-4.1,20.2-9.7,27.6-10.9
			c6.7-1.1,20.5-1.7,27.2-0.3c6.9,1.5,20.2,6.9,26.3,10.5c2.9,1.7,8.3,5.8,10.9,8C364.1,305.6,376,317.9,376,317.9z"/>
	</g>
	<g id="глаз_п">
		<path id="XMLID_35_" class="st23" d="M598.5,351c0,0,1.4-42.9-61.2-47.9c-37.9-3-74.5,37.9-74.5,37.9s24.5,1.5,32,4.5
			c11,4.4,13.5,9.7,45.7,12.2C573.7,360.4,598.5,351,598.5,351z"/>
		
			<radialGradient id="XMLID_71_" cx="543.4572" cy="320.4697" r="27.0678" gradientTransform="matrix(-0.9968 -7.935896e-002 -7.935896e-002 0.9968 1099.1187 53.5609)" gradientUnits="userSpaceOnUse">
			<stop  offset="7.389162e-002" style="stop-color:#603913"/>
			<stop  offset="0.7143" style="stop-color:#A77B22"/>
			<stop  offset="0.7732" style="stop-color:#A17522"/>
			<stop  offset="0.8485" style="stop-color:#906520"/>
			<stop  offset="0.9324" style="stop-color:#774E1A"/>
			<stop  offset="1" style="stop-color:#603913"/>
		</radialGradient>
		<circle id="XMLID_34_" class="st28" cx="531.9" cy="329.9" r="27.1"/>
		<circle id="XMLID_33_" cx="531.9" cy="329.9" r="11.5"/>
		<path id="XMLID_31_" class="st26" d="M475.8,328.7c0,0,15-21.1,21.6-26.5c5.3-4.3,17.5-11.2,24.2-12.6c8.6-1.9,26.5-2.2,35.1-0.5
			c6.8,1.4,20.2,5.6,26.1,9.4c5.3,3.4,14.9,12,18.5,17.2c3.3,4.7,8.2,15.1,10,20.5c1.3,4,2,12.8,4,16.5c1.7,3.1,10.1,10.1,10.1,10.1
			s-11.7-3.9-15.5-5.5c-3-1.3-11.4-6.2-11.4-6.2s-1-8.8-2-11.5c-1.7-4.6-6.5-13.5-10.1-16.8c-5.4-5.1-18.4-12.8-25.5-15.1
			c-6.5-2.1-20-5-26.8-4.6c-7.1,0.4-21.1,3.6-27.6,6.2c-3.1,1.2-9.2,4.4-12,6.2C489.6,318.4,475.8,328.7,475.8,328.7z"/>
		<path id="XMLID_30_" class="st27" d="M475.8,328.7c0,0,14-12.6,20.6-18c5.3-4.3,17-9.1,23.6-10.6c8.6-1.9,18.5-2.8,27.1-1.1
			c6.8,1.4,17.6,3,23.4,6.7c5.3,3.4,13.9,9.5,18.2,14c3.9,4.1,9,11.7,10.8,17.1c1.3,4,1.7,8.1,3.8,11.8c1.7,3.1,9.4,9.6,9.4,9.6
			s0.9,0.5-2.9-1.2c-3-1.3-11.4-6.2-11.4-6.2s-1-8.8-2-11.5c-1.7-4.6-6.5-13.5-10.1-16.8c-5.4-5.1-18.4-12.8-25.5-15.1
			c-6.5-2.1-20-5-26.8-4.6c-7.1,0.4-21.1,3.6-27.6,6.2c-3.1,1.2-9.2,4.4-12,6.2C489.6,318.4,475.8,328.7,475.8,328.7z"/>
		<ellipse id="XMLID_37_" class="st25" cx="520.5" cy="329" rx="6.6" ry="3"/>
		<circle id="XMLID_49_" class="st25" cx="543.4" cy="330.8" r="3.8"/>
	</g>
	<g id="XMLID_54_">
		<path id="XMLID_67_" class="st29" d="M416.1,288.2c-13-2.5-37.3-11.7-50.1-14.4c-20-4.2-60.7-10.2-81.4-11.3
			c-11.6-0.6-34.9-0.4-46.6,0.2c-12,0.6-48.4,3.7-48.4,3.7l-3.5,24c0,0,8.4,5.4,11.3,9.3c3,3.9,3.7,14.3,3.7,14.3s2.3,19.3,4,29.7
			c1.7,10.5-0.1,23.1,7.3,32.5c7.5,9.4,32.7,12.5,42,13.9c13,1.8,39.6,3.8,53.8,5.6c17.1,2.2,49.3,4.6,59.8-1.4
			c4.5-2.6,14-6.8,17.2-17.3c3.6-11.5,17.4-46.2,22.3-57.7c4.9-11.3,11-11.1,11-11.1s4-0.3,8.5,0c-0.4-6.4-0.9-12.8-0.4-18.8
			C422.9,289.2,418.8,288.7,416.1,288.2z M394.9,316.4c0,0-6,19-8.3,25.3c-2.5,6.8-7,18.8-11.4,28.1c-15.5,32.9-73.1,19.6-89.5,17.6
			c-11.1-1.4-45.7-3.6-59.9-17.6c-9-8.9-11.2-31.7-12-53.9c-0.8-21.6,10.9-32.3,10.9-32.3c4.9-6.6,10.7-6.2,15.6-7.5
			c5-1.3,14.9-3.1,19.9-3.6c5-0.5,22.3-1.2,36-0.4c13.7,0.8,26.3,1.3,34.9,2.5c7.7,1.1,19.5,3.9,30.3,6.7
			c10.8,2.8,22.3,8.2,29.6,14.3C398.4,301.8,394.9,316.4,394.9,316.4z"/>
		<path id="XMLID_51_" class="st29" d="M424.8,289.4c-0.7,6-2.4,12.2-3.9,18.4c4.5,0.4,8.4,1.3,8.4,1.3s6.1,0.7,8.7,12.7
			c2.7,12.1,9.6,48.5,10.9,60.4c1.2,10.9,9.7,16.5,13.7,19.8c9.2,7.7,41.3,10.6,58.6,11.1c14.3,0.5,40.9,2.9,54,3.2
			c9.5,0.2,34.8,1.3,44-6.8c9.1-8,9.7-20.7,13.4-30.8c3.7-10,9.6-28.5,9.6-28.5s2.7-10.1,6.4-13.5c3.7-3.4,13-7.3,13-7.3l1.2-24.2
			c0,0-35.2-9-46.9-11.5c-11.4-2.5-34.4-6.5-45.9-7.8c-20.5-2.2-61.8-3-82.2-2.1c-13.1,0.6-38.9,5.7-52.1,6.1
			C432.9,289.9,428.8,289.7,424.8,289.4z M458.9,301.1c8.4-4.9,20.7-8.3,31.9-9.3c11.1-1,23.3-1.9,31.1-1.7
			c8.7,0.2,21.2,1.8,34.8,3.2c13.7,1.4,30.6,5,35.4,6.2c4.8,1.3,14.3,4.6,18.9,6.7c4.7,2.1,10.4,2.7,13.9,10c0,0,9.4,12.4,4.5,33.6
			c-5,21.7-11.5,43.8-22.1,51.1c-16.6,11.5-51.1,8.1-62.3,7.6c-16.5-0.6-75.8,3.1-84.7-31.8c-2.5-9.9-4.7-22.4-5.9-29.5
			c-1-6.6-3.3-26.3-3.3-26.3S450.5,306.1,458.9,301.1z"/>
	</g>
	<polygon id="XMLID_57_" class="st22" points="378.3,378.7 397.1,351.9 439.7,351.9 453.2,386.9 457.5,403.6 402.5,411.8 
		366.8,397.6 	"/>
	<path id="XMLID_55_" class="st30" d="M378.3,378.7c0,0-12.5,17.1-13.5,21c-1.3,5.1,1.6,16.9,5.5,20.3c8.6,7.5,31.2,15.1,42.3,14.9
		c10.1-0.2,32.6-3.3,40.5-9.9c3.5-2.9,8.2-12.4,7.5-17.1c-0.6-4.3-7.5-21-7.5-21s3,17.2,2.8,21c-0.2,3.2-3.9,8.9-6.4,10.7
		c-7.3,5.4-23.9,9.1-32.8,9.4c-10.1,0.3-33.2-6.9-41.4-13c-3.3-2.4-7-11.1-6.6-15.3C369,396.4,378.3,378.7,378.3,378.7z"/>
	<path id="XMLID_56_" class="st31" d="M319.2,483c0,0,64,21.6,83.6,23c20.5,1.5,113-14,113-14s-43.2,11.8-60.8,20.3
		c-9.6,4.7-26.4,7.4-50.7,6.7c-20.6-0.6-35.6-7.8-49.2-16.3C347.3,497.9,319.2,483,319.2,483z"/>
	<path id="XMLID_58_" class="st31" d="M374.4,494.7c0,0,24.4-4.8,32.6-4.3c7.9,0.5,30.6,7.8,30.6,7.8s-23.8-2-31.6-2.4
		C397.8,495.4,374.4,494.7,374.4,494.7z"/>
	<path id="XMLID_68_" class="st21" d="M372.3,106c0,0-48-29.7-66.3-32c-25-3.1-78.7,5-98.6,20.4c-22.9,17.7-53.7,70.2-62,97.9
		c-7.6,25.4-14.3,84.1-18.3,125.6c21.2-8.3,42.7-16.1,64.7-22.3c9.1-25.8,7.9-51.7,16.8-66.3C235.4,185.4,372.3,106,372.3,106z"/>
	<path id="XMLID_59_" class="st21" d="M319.2,77.9c13.9-15,56.2-26.5,76.6-28.7c19.9-2.2,60.4-3.3,80.1,0
		c33.9,5.6,101,24.2,131.6,39.9c17.8,9.1,52.9,30.1,65.5,45.6c8.8,10.8,20.4,36.8,24,50.3c6.6,25.2,13.7,77.1,15.2,103.1
		c1.5,27.5,0.3,82.6,0,110.1c-0.3,33.7,0,134.9,0,134.9l-86.6,41.2c0,0,5.9-139.1,7.2-185.5c1-33.5,1.9-102.8-11.2-133.6
		c-6.8-16.1-34.7-39.7-49.1-49.5c-26.4-18-88.1-38.1-117.3-51.1c-14.3-6.4-43.6-19.8-59.2-20.8c-20-1.2-66.6,14.7-80.3,0
		C305.9,123.6,309.7,88.2,319.2,77.9z"/>
	<path id="XMLID_61_" class="st32" d="M462.8,270.8c-1.4-11.1,30.9-14.6,42-15.1c13.5-0.6,40.9-2.7,54.1,0c9.9,2,29,9.8,37.6,15.1
		c4.4,2.6,16.2,12.4,16.2,12.4s-15.6-4.7-20.9-5.8c-9.4-1.8-27.4-1.5-36.6-4.2c-14.9-4.4-45,1.4-59,2.7
		C487.8,276.7,463.9,279.4,462.8,270.8z"/>
	<path id="XMLID_62_" class="st32" d="M390,263.2c2.4-10.9-29.4-17.4-40.5-18.9c-13.4-1.9-40.5-6.4-53.9-5
		c-10.1,1.1-29.8,7.1-38.9,11.6c-4.6,2.2-17.3,10.8-17.3,10.8s15.9-3.3,21.3-3.8c9.6-0.9,27.4,1.1,36.8-0.8
		c15.3-3.1,44.7,5.5,58.5,8.1C364.6,266.8,388.1,271.7,390,263.2z"/>
</g>
</svg>
