<?xml version="1.0" encoding="utf-8"?>
<!-- Generator: Adobe Illustrator 19.0.0, SVG Export Plug-In . SVG Version: 6.00 Build 0)  -->
<svg version="1.1" xmlns="http://www.w3.org/2000/svg" xmlns:xlink="http://www.w3.org/1999/xlink" x="0px" y="0px"
	 viewBox="0 0 861 1202.8" style="enable-background:new 0 0 861 1202.8;" xml:space="preserve">
<style type="text/css">
	.st0{fill:#999999;}
	.st1{fill:#666766;}
	.st2{opacity:0.4;}
	.st3{fill:#7F7F7F;}
	.st4{fill:#7292CB;}
	.st5{opacity:0.1;}
	.st6{fill:#9595C9;}
	.st7{fill:url(#XMLID_97_);}
	.st8{fill:#C6D4E2;}
	.st9{opacity:0.51;}
	.st10{fill:#58595B;}
	.st11{fill:#7D7C7C;}
	.st12{fill:#CDCFD0;}
	.st13{fill:#013333;}
	.st14{fill:#EBF2F2;}
	.st15{fill:#ED1F24;}
	.st16{fill:#71BF44;}
	.st17{fill:#E6E7E8;}
	.st18{fill:#9B8579;}
	.st19{opacity:0.18;}
	.st20{fill:#916939;}
	.st21{fill:#CB984D;}
	.st22{fill:#FDCD9A;}
	.st23{fill:#EFEFEF;}
	.st24{fill:url(#радужка_2_);}
	.st25{fill:#E9B685;}
	.st26{fill:#F1F2F2;}
	.st27{fill:url(#XMLID_98_);}
	.st28{fill:url(#радужка_3_);}
	.st29{fill:url(#XMLID_99_);}
	.st30{fill:#E2937A;}
	.st31{fill:#C38C62;}
	.st32{fill:url(#бровь_л_x5C__2_);}
	.st33{fill:url(#бровь_л_x5C__3_);}
	.st34{fill:#A07E60;}
</style>
<g id="прав_нога">
	<path id="п_низ_1_" class="st0" d="M458.6,1058c16.1,43.6,45.1,114.5,87.5,142.1c14.5,4.8,24.5,2.9,34.9-3.7
		c18.5-15.3,19.2-64.4,19.2-151.2C600.2,901.4,408.7,922.6,458.6,1058z"/>
	<path id="п_верх" class="st0" d="M467.2,1079.4c-12-29.2-17.9-45.1-25.4-69.6c-16.5-53.9-4.2-98.4,17-121.3
		c16.3-17.6,130.9-48.6,133.8-24.8c4.7,39,4.4,124.2,7.3,182.1C564.6,1094.5,511.5,1104,467.2,1079.4z"/>
	<path id="ботинок_п_1_" class="st1" d="M489.1,1128.9c15.9,32.5,31.5,54.8,57,71.3c14.5,4.8,24.5,2.9,34.9-3.7
		c12.8-10.6,17-33.2,18.4-77.5C586.8,1141.5,517,1146.1,489.1,1128.9z"/>
	<path id="тень_к" class="st2" d="M598.5,1000.3c-7.9,4.2-19.4,7.3-24.5,4.2c-12.8-7.8-17.4-45.2-11.3-58.9
		c3.6-8,23.8-15.6,34.1-13.4C597.4,954.5,597.9,978.2,598.5,1000.3z"/>
	<path id="карман_1_" class="st3" d="M563.4,940.9c4-9,29.4-21.3,35.8-11.5c10.3,14,14.3,47.2,6.8,61.3
		c-5.2,7.7-24.3,13.3-31.3,9.1C561.9,992,557.3,954.6,563.4,940.9z"/>
	<path id="стежка_к_1_" class="st1" d="M605,940.9c-5.8,20.4-30.3,13.6-43.9,9.4c3.5,4.1,20.2,7.5,26.3,7.4
		c-1.6,9.7,15.3,4.5,9.4-1.3C600.4,953.9,604.1,947.9,605,940.9z"/>
</g>
<g id="лев_нога">
	<path id="л_низ_1_" class="st0" d="M361.3,1058c-16.1,43.6-45.1,114.5-87.5,142.1c-14.5,4.8-24.5,2.9-34.9-3.7
		c-18.5-15.3-19.2-64.4-19.2-151.2C219.6,901.4,411.2,922.6,361.3,1058z"/>
	<path id="л_верх_1_" class="st0" d="M352.7,1079.4c12-29.2,17.9-45.1,25.4-69.6c16.5-53.9,4.2-98.4-17-121.3
		c-16.3-17.6-130.9-48.6-133.8-24.8c-4.7,39-4.4,124.2-7.3,182.1C253.3,1100.4,309,1105.3,352.7,1079.4z"/>
	<path id="ботинок_п" class="st1" d="M330.6,1129.1c-15.9,32.5-31.4,54.5-56.9,71.1c-14.5,4.8-25,2.9-35.5-3.7
		c-12.8-10.6-16.3-31-17.7-75.3C233.2,1143.7,302.7,1146.3,330.6,1129.1z"/>
	<path id="тень_к_1_" class="st2" d="M221.3,1007.5c7.9,4.2,19.4,7.3,24.5,4.2c12.8-7.8,17.4-45.2,11.3-58.9
		c-3.6-8-23.8-15.6-34.1-13.4C222.4,961.7,221.9,985.4,221.3,1007.5z"/>
	<path id="карман" class="st3" d="M257.1,946.5c-4-9-29.4-21.3-35.8-11.5c-10.3,14-14.3,47.2-6.8,61.3
		c5.2,7.7,24.3,13.3,31.3,9.1C258.6,997.7,263.2,960.2,257.1,946.5z"/>
	<path id="стежка_к" class="st1" d="M215.5,946.5c5.8,20.4,30.3,13.6,43.9,9.4c-3.5,4.1-20.2,7.5-26.3,7.4
		c1.6,9.7-15.3,4.5-9.4-1.3C220.1,959.5,216.4,953.5,215.5,946.5z"/>
</g>
<g id="прав_рука">
	<path id="XMLID_11_" class="st0" d="M511.3,556c29.3,16.7,235.4,144.9,253.4,172.9c0,8.7-3.8,15.6-11.9,15.6
		c-43.8-5.6-203.2-24.2-251.7-46.6C468.9,683,480,572.9,511.3,556z"/>
	<path id="XMLID_15_" class="st4" d="M576.9,596.1c0,0,5.8,48.8,5.2,65.1c-0.5,13.6-8,54-8,54l-17.3-3.5c0,0,6.5-46,6.9-61.5
		c0.4-16.3-4.1-65-4.1-65L576.9,596.1z"/>
	<path id="XMLID_16_" class="st1" d="M747,710.8c0,0-11.4,4.4-14.5,12.3c-4,10.3-1,18.6-1,18.6l-74.4-10c0,0,1.5-20.6,8.9-33.9
		c8.8-15.9,30.3-24.1,30.3-24.1c1.5,1,24.8,17.4,39.8,28.6L747,710.8z"/>
	<path id="XMLID_19_" class="st4" d="M659.5,649.5c2.9,1.9,5.7,3.8,8.5,5.7c-23,20.4-31.3,31.6-39,72.3c-2.3-0.4-4.7-0.7-7-1.1
		C622,694.5,634.2,668,659.5,649.5z"/>
	<path id="XMLID_18_" class="st4" d="M677.5,661.6c2.9,1.9,5.7,3.9,8.5,5.8c-21.8,12.6-36.5,32.2-41.9,62.5
		c-2.4-0.4-4.9-0.7-7.3-1.1C641.5,702,654,680,677.5,661.6z"/>
	<path id="XMLID_20_" class="st5" d="M579.8,682.8c43.5,22.2,148.5,41.3,184.9,46.9c-0.2,8.3-4,14.8-11.8,14.8
		c-43.8-5.6-203.2-24.2-251.7-46.6c-21-9.7-23.6-59.6-14.3-98C495.1,608.5,534.3,659.5,579.8,682.8z"/>
</g>
<g id="лев_рука">
	<path id="XMLID_46_" class="st0" d="M317.2,556C287.8,572.6,81.7,700.9,63.7,728.8c0,8.7,3.8,15.6,11.9,15.6
		c43.8-5.6,203.2-24.2,251.7-46.6C359.6,683,348.5,572.9,317.2,556z"/>
	<path id="XMLID_45_" class="st4" d="M245.6,599.9c0,0-5.8,48.8-5.2,65.1c0.5,13.6,8,54,8,54l17.3-3.5c0,0-6.5-46-6.9-61.5
		c-0.4-16.3,4.1-65,4.1-65L245.6,599.9z"/>
	<path id="XMLID_44_" class="st4" d="M169,649.5c-2.9,1.9-5.7,3.8-8.5,5.7c23,20.4,31.3,31.6,39,72.3c2.3-0.4,4.7-0.7,7-1.1
		C206.5,694.4,194.3,667.9,169,649.5z"/>
	<path id="XMLID_43_" class="st4" d="M151,661.6c-2.9,1.9-5.7,3.9-8.5,5.8c21.8,12.6,36.5,32.2,41.9,62.5c2.4-0.4,4.9-0.7,7.3-1.1
		C186.9,702,174.5,680,151,661.6z"/>
	<path id="XMLID_42_" class="st1" d="M82.6,710.8c0,0,11.4,4.4,14.5,12.3c4,10.3,1,18.6,1,18.6l74.4-10c0,0-1.5-20.6-8.9-33.9
		c-8.8-15.9-30.3-24.1-30.3-24.1c-1.5,1-24.8,17.4-39.8,28.6L82.6,710.8z"/>
	<path id="XMLID_41_" class="st6" d="M149.7,703.7c-4.1-9.6-14.9-18.9-25.4-23.7c-7.4,5.2-18,12.9-27,19.4
		c14.6,6.7,19.2,24.6,19.2,24.6S139.6,715.1,149.7,703.7z"/>
	<radialGradient id="XMLID_97_" cx="122.8103" cy="699.4777" r="19.382" gradientUnits="userSpaceOnUse">
		<stop  offset="0.1182" style="stop-color:#1DBFD3"/>
		<stop  offset="0.9409" style="stop-color:#001331"/>
	</radialGradient>
	<path id="XMLID_23_" class="st7" d="M120.9,717c8.7-3.5,15.9-7.5,23-13c-5.5-9.4-13.2-17.1-22.4-22c-5.4,3.9-13.4,9.6-19.8,14.2
		C110.8,699.4,117.4,708.3,120.9,717z"/>
	<path id="XMLID_40_" class="st5" d="M248.7,682.8c-43.5,22.2-148.5,41.3-184.9,46.9c0.2,8.3,4,14.8,11.8,14.8
		c43.8-5.6,203.2-24.2,251.7-46.6c21-9.7,23.6-59.6,14.3-98C333.4,608.5,294.2,659.5,248.7,682.8z"/>
</g>
<g id="тело_1_">
	<path id="XMLID_14_" class="st0" d="M578.8,700.9c-8-36.4-52.1-122-79.3-154.2c-30.9-36.6-141.1-39.7-172.2-3.2
		c-34.5,40.5-81,122-86.8,157.5c-8.8,53.6-29.1,171.3,0,217.1c16.6,38.6,131.7,74.2,173.7,74.2c43.4,0,141.8-38.9,164.7-74.2
		C608.3,872.4,590.4,753.9,578.8,700.9z"/>
	<path id="XMLID_3_" class="st4" d="M225.6,855c0,0,62.9,16.7,99.1,42.2c42.6,30.1,67.6,92.9,67.6,92.9l-9.4-1.7
		c0,0-29.9-61.2-63.7-83.1c-38.6-25.1-91.9-41.6-91.9-41.6L225.6,855z"/>
	<path id="XMLID_12_" class="st4" d="M594.9,855c0,0-62.9,16.7-99.1,42.2c-42.6,30.1-67.6,92.9-67.6,92.9l9.4-1.7
		c0,0,29.9-61.2,63.7-83.1c38.6-25.1,91.9-41.6,91.9-41.6L594.9,855z"/>
</g>
<g id="блок">
	<polygon id="XMLID_50_" class="st8" points="410.1,708.7 415,708.7 414.8,909.3 410.1,909.3 	"/>
	<path id="тень" class="st9" d="M445.4,717.9c-5.1-3.2-17.1-5.1-19.4,0c52.8,53.7,102.9,84.6,167.9,95.9
		c0.1-12.3-2.9-14.2-3.2-18.2C541,788.8,473.6,749,445.4,717.9z"/>
	<path id="тень_1_" class="st9" d="M374.6,719c5.1-3.2,17.1-5.1,19.4,0c-52.8,53.7-102.9,84.6-167.9,95.9
		c-0.1-12.3,2.9-14.2,3.2-18.2C278.9,789.8,346.4,750,374.6,719z"/>
	<path id="XMLID_13_" class="st10" d="M336.5,535.2c45.5,28.9,80,132.6,73.6,144.8c-11.5-12-46.3-94.1-87-131.5
		C321.7,535.1,328.9,529.6,336.5,535.2z"/>
	<path id="XMLID_10_" class="st10" d="M489.4,535.2c-45.5,28.9-80,132.6-73.6,144.8c11.5-12,46.3-94.1,87-131.5
		C504.1,535.1,497,529.6,489.4,535.2z"/>
	<polygon id="XMLID_17_" class="st11" points="348.2,715.2 481.8,715.2 472.3,721.7 357.8,721.7 	"/>
	<rect id="XMLID_24_" x="348.2" y="644.8" class="st12" width="133.6" height="70.4"/>
	<rect id="XMLID_21_" x="359.6" y="658.2" class="st13" width="60" height="30.3"/>
	<rect id="XMLID_22_" x="433.5" y="658.2" class="st14" width="37.5" height="37.5"/>
	<circle id="XMLID_38_" class="st15" cx="461.6" cy="667.3" r="5.7"/>
	<circle id="XMLID_39_" class="st16" cx="443.1" cy="667.3" r="5.7"/>
	<circle id="XMLID_47_" class="st15" cx="461.6" cy="688.5" r="5.9"/>
	<circle id="XMLID_48_" class="st15" cx="443.1" cy="688.5" r="5.7"/>
</g>
<g id="лев_труба">
	<path id="база_2_" class="st17" d="M361,719c5.1-3.2,22.7-3.8,24.9,1.3c-52.8,53.7-94.2,74.6-159.3,85.9
		c-8-5.2-5.5-14.2,1.8-19.3C278,780.1,332.8,750,361,719z"/>
	<path id="_x32_6" class="st18" d="M224.7,790.4c-3.2,3.9-4.1,8.8-1.4,12.7C222.2,798.6,222.3,794,224.7,790.4z"/>
	<path id="_x32_5" class="st18" d="M231.8,786.4c-0.5,0.1-1.1,0.2-1.6,0.2c-4.8,4.7-7.3,14-2.6,19.4c0.6-0.1,1.2-0.2,1.9-0.3
		C225.5,800.1,227.4,792.2,231.8,786.4z"/>
	<path id="_x32_4" class="st18" d="M236.3,785.6c-0.9,0.2-1.8,0.3-2.7,0.5c-1.7,6.4-4.4,12.8-2.4,19.3c1.4-0.3,2.8-0.5,4.2-0.8
		C232.1,798.5,231.7,791,236.3,785.6z"/>
	<path id="_x32_3" class="st18" d="M241,784.7c-0.6,0.1-1.1,0.2-1.7,0.3c-3,6-3.3,13.3-0.6,18.9c1.1-0.2,2.1-0.4,3.2-0.6
		C238.3,797.5,237.8,790.4,241,784.7z"/>
	<path id="_x32_2" class="st18" d="M247.9,783.1c-0.6,0.1-1.1,0.3-1.7,0.4c-1.3,6.2,0.8,12.4,0.9,18.6c0.7-0.2,1.3-0.3,2-0.5
		C247.2,795.7,247.8,789.7,247.9,783.1z"/>
	<path id="_x32_1" class="st18" d="M252.2,781.9c-0.8,0.2-1.6,0.4-2.5,0.6c-0.3,6.5,2.1,12.4,0.2,18.8c0.7-0.2,1.3-0.3,2-0.5
		C253.3,794.6,254.3,788.3,252.2,781.9z"/>
	<path id="_x32_0" class="st18" d="M261,779.4c-1.3,0.4-2.5,0.8-3.8,1.2c1.2,7.4-0.9,14.1-4,20.1c0.5-0.1,1.1-0.3,1.6-0.4
		C257.8,793.6,259.5,786.5,261,779.4z"/>
	<path id="_x31_9" class="st18" d="M268.6,776.8c-1,7.8-2.8,15-6.9,21.6c1.4-0.4,2.8-0.8,4.1-1.2c3.8-5.6,4.1-13.9,4.1-20.9
		C269.4,776.5,269,776.7,268.6,776.8z"/>
	<path id="_x31_8" class="st18" d="M271.3,775.8c-0.5,0.2-1,0.4-1.5,0.5c0,7-0.3,15.3-4.1,20.9c0.4-0.1,0.7-0.2,1.1-0.3
		C270,790.3,272.2,783.1,271.3,775.8z"/>
	<path id="_x31_7" class="st18" d="M277.4,773.5c-0.4,0.2-0.9,0.4-1.3,0.5c3.2,6.5-1.8,14.4-4.9,21.6c1.3-0.4,2.7-0.9,4-1.3
		C278.2,787.7,280.6,780.1,277.4,773.5z"/>
	<path id="_x31_6" class="st18" d="M281.4,771.9c-0.6,0.2-1.2,0.5-1.8,0.7c2.7,6.9,1.4,14.3-1,20.5c0.6-0.2,1.3-0.4,1.9-0.7
		C283.6,785.7,285.1,778,281.4,771.9z"/>
	<path id="_x31_5" class="st18" d="M287.4,769.4c-0.5,0.2-1,0.4-1.5,0.6c5.2,5.8,1.2,14.5-1.6,21.1c0.9-0.4,1.9-0.7,2.8-1.1
		C290.6,783.3,294.1,774.1,287.4,769.4z"/>
	<path id="_x31_4.5" class="st18" d="M292.3,767.1c-0.6,0.3-1.1,0.5-1.7,0.8c4.4,5.9,2.9,13.2,1.8,20c0.7-0.3,1.3-0.6,2-0.8
		C295.6,780.2,294.7,774,292.3,767.1z"/>
	<path id="_x31_4" class="st18" d="M293.2,766.7c-0.3,0.1-0.6,0.3-0.9,0.4c2.5,6.9,3.3,13.1,2,19.9c0.2-0.1,0.5-0.2,0.7-0.3
		C298.2,780.5,297.2,772.6,293.2,766.7z"/>
	<path id="_x31_3" class="st18" d="M304.5,782.3c-1.1-6.6-3-12-6.4-18c-0.3,0.2-0.6,0.3-0.9,0.5c2.2,6.3,4.9,12.6,4.7,18.9
		C302.7,783.2,303.6,782.8,304.5,782.3z"/>
	<path id="_x31_2" class="st18" d="M302.5,762c-1,0.5-2,1-2.9,1.5c4.6,3.7,10.5,9.1,10.4,16c0.6-0.3,1.3-0.7,1.9-1
		C312.7,772.1,308,766.6,302.5,762z"/>
	<path id="_x31_1" class="st18" d="M310.6,757.6c-0.5,0.3-0.9,0.5-1.4,0.8c4.9,5.3,4,12.1,5.9,18.4c0.5-0.3,1.1-0.6,1.6-0.9
		C316.9,769.1,315.4,762.1,310.6,757.6z"/>
	<path id="_x31_0" class="st18" d="M325.5,770.6c-1.1-6.1-3.1-12.6-8-17c-1.1,0.7-2.3,1.4-3.5,2.1c5,4.4,8.4,10.4,7.9,17.1
		C323.2,772,324.3,771.3,325.5,770.6z"/>
	<path id="_x39_" class="st18" d="M324.3,749.3c-0.4,0.3-0.8,0.5-1.3,0.8c4.4,4.7,4.2,11.3,7.1,17.5c0.7-0.5,1.5-1,2.2-1.5
		C331.6,759.7,330.3,753.3,324.3,749.3z"/>
	<path id="_x38_" class="st18" d="M331.3,744.6c-0.7,0.5-1.4,1-2.2,1.5c7.1,1.1,8.6,8.7,11.1,14.5c1.2-0.9,2.4-1.8,3.6-2.7
		C342.1,752.1,337,746.3,331.3,744.6z"/>
	<path id="_x37_" class="st18" d="M342.3,736.3c-0.9,0.7-1.8,1.4-2.7,2.1c5.8,1.8,9.7,8,10.9,14.3c1.2-1,2.5-2,3.7-3.1
		C351.5,744.3,347.9,737.9,342.3,736.3z"/>
	<path id="_x36_" class="st18" d="M347.2,732.2c-0.7,0.6-1.4,1.2-2.1,1.8c5.6,2.7,9.8,7.8,11.7,13.5c0.5-0.4,1-0.9,1.5-1.3
		C356.4,740.1,353.4,734.9,347.2,732.2z"/>
	<path id="_x35_" class="st18" d="M352.5,727.4c-0.8,0.8-1.7,1.5-2.5,2.3c4.8,3.9,9.6,7.7,12.2,13.1c0.5-0.5,1.1-1,1.6-1.5
		C360.5,736.1,357.6,731.1,352.5,727.4z"/>
	<path id="_x34_" class="st18" d="M355.8,724.3c-0.3,0.3-0.5,0.5-0.8,0.8c5.6,1.9,10.3,7.4,12.5,13c0.4-0.4,0.9-0.8,1.3-1.2
		C366.1,731,362.4,726.2,355.8,724.3z"/>
	<path id="_x33_" class="st18" d="M358,722c-0.3,0.3-0.6,0.6-0.9,1c6.8,0.7,11.8,5.7,13.9,11.9c1.2-1.1,2.4-2.2,3.6-3.4
		C370.1,726.5,364.8,722.5,358,722z"/>
	<path id="_x32_" class="st18" d="M359.1,721c-0.2,0.2-0.4,0.4-0.6,0.7c6.8-1.6,13.9,2.5,19.7,6.4c0.6-0.6,1.2-1.2,1.7-1.7
		C375.4,720.1,366.4,720.1,359.1,721z"/>
	<path id="_x31_" class="st18" d="M360.1,719.9c-0.2,0.2-0.3,0.4-0.5,0.6c8-2.7,16.8-1.8,22.9,3.3c0.5-0.5,1-1,1.5-1.5
		C377.1,717,367.7,716.2,360.1,719.9z"/>
	<path id="тень_В" class="st19" d="M372.9,716.5c5.9-0.1,11.7,1,12.9,3.8c-52.8,53.7-94.2,74.6-159.3,85.9
		c-3.1-2-4.6-4.6-4.9-7.4C265.8,803.4,358.8,752,372.9,716.5z"/>
</g>
<g id="П_труба">
	<path id="база_1_" class="st17" d="M462,719c-5.1-3.2-22.7-3.8-24.9,1.3c52.8,53.7,94.2,74.6,159.3,85.9
		c8-5.2,5.5-14.2-1.8-19.3C544.9,780.1,490.2,750,462,719z"/>
	<path id="_x32_6_1_" class="st18" d="M598.3,790.4c3.2,3.9,4.1,8.8,1.4,12.7C600.7,798.6,600.6,794,598.3,790.4z"/>
	<path id="_x32_5_1_" class="st18" d="M591.1,786.4c0.5,0.1,1.1,0.2,1.6,0.2c4.8,4.7,7.3,14,2.6,19.4c-0.6-0.1-1.2-0.2-1.9-0.3
		C597.4,800.1,595.6,792.2,591.1,786.4z"/>
	<path id="_x32_4_1_" class="st18" d="M586.6,785.6c0.9,0.2,1.8,0.3,2.7,0.5c1.7,6.4,4.4,12.8,2.4,19.3c-1.4-0.3-2.8-0.5-4.2-0.8
		C590.8,798.5,591.2,791,586.6,785.6z"/>
	<path id="_x32_3_1_" class="st18" d="M581.9,784.7c0.6,0.1,1.1,0.2,1.7,0.3c3,6,3.3,13.3,0.6,18.9c-1.1-0.2-2.1-0.4-3.2-0.6
		C584.6,797.5,585.2,790.4,581.9,784.7z"/>
	<path id="_x32_2_1_" class="st18" d="M575,783.1c0.6,0.1,1.1,0.3,1.7,0.4c1.3,6.2-0.8,12.4-0.9,18.6c-0.7-0.2-1.3-0.3-2-0.5
		C575.7,795.7,575.1,789.7,575,783.1z"/>
	<path id="_x32_1_1_" class="st18" d="M570.7,781.9c0.8,0.2,1.6,0.4,2.5,0.6c0.3,6.5-2.1,12.4-0.2,18.8c-0.7-0.2-1.3-0.3-2-0.5
		C569.6,794.6,568.6,788.3,570.7,781.9z"/>
	<path id="_x32_0_1_" class="st18" d="M561.9,779.4c1.3,0.4,2.5,0.8,3.8,1.2c-1.2,7.4,0.9,14.1,4,20.1c-0.5-0.1-1.1-0.3-1.6-0.4
		C565.1,793.6,563.4,786.5,561.9,779.4z"/>
	<path id="_x31_9_1_" class="st18" d="M554.4,776.8c1,7.8,2.8,15,6.9,21.6c-1.4-0.4-2.8-0.8-4.1-1.2c-3.8-5.6-4.1-13.9-4.1-20.9
		C553.5,776.5,553.9,776.7,554.4,776.8z"/>
	<path id="_x31_8_1_" class="st18" d="M551.6,775.8c0.5,0.2,1,0.4,1.5,0.5c0,7,0.3,15.3,4.1,20.9c-0.4-0.1-0.7-0.2-1.1-0.3
		C553,790.3,550.8,783.1,551.6,775.8z"/>
	<path id="_x31_7_1_" class="st18" d="M545.5,773.5c0.4,0.2,0.9,0.4,1.3,0.5c-3.2,6.5,1.8,14.4,4.9,21.6c-1.3-0.4-2.7-0.9-4-1.3
		C544.7,787.7,542.3,780.1,545.5,773.5z"/>
	<path id="_x31_6_1_" class="st18" d="M541.5,771.9c0.6,0.2,1.2,0.5,1.8,0.7c-2.7,6.9-1.4,14.3,1,20.5c-0.6-0.2-1.3-0.4-1.9-0.7
		C539.3,785.7,537.8,778,541.5,771.9z"/>
	<path id="_x31_5_1_" class="st18" d="M535.6,769.4c0.5,0.2,1,0.4,1.5,0.6c-5.2,5.8-1.2,14.5,1.6,21.1c-0.9-0.4-1.9-0.7-2.8-1.1
		C532.3,783.3,528.8,774.1,535.6,769.4z"/>
	<path id="_x31_4.5_1_" class="st18" d="M530.6,767.1c0.6,0.3,1.1,0.5,1.7,0.8c-4.4,5.9-2.9,13.2-1.8,20c-0.7-0.3-1.3-0.6-2-0.8
		C527.3,780.2,528.2,774,530.6,767.1z"/>
	<path id="_x31_4_1_" class="st18" d="M529.8,766.7c0.3,0.1,0.6,0.3,0.9,0.4c-2.5,6.9-3.3,13.1-2,19.9c-0.2-0.1-0.5-0.2-0.7-0.3
		C524.8,780.5,525.7,772.6,529.8,766.7z"/>
	<path id="_x31_3_1_" class="st18" d="M518.4,782.3c1.1-6.6,3-12,6.4-18c0.3,0.2,0.6,0.3,0.9,0.5c-2.2,6.3-4.9,12.6-4.7,18.9
		C520.2,783.2,519.3,782.8,518.4,782.3z"/>
	<path id="_x31_2_1_" class="st18" d="M520.4,762c1,0.5,2,1,2.9,1.5c-4.6,3.7-10.5,9.1-10.4,16c-0.6-0.3-1.3-0.7-1.9-1
		C510.2,772.1,514.9,766.6,520.4,762z"/>
	<path id="_x31_1_1_" class="st18" d="M512.3,757.6c0.5,0.3,0.9,0.5,1.4,0.8c-4.9,5.3-4,12.1-5.9,18.4c-0.5-0.3-1.1-0.6-1.6-0.9
		C506,769.1,507.5,762.1,512.3,757.6z"/>
	<path id="_x31_0_1_" class="st18" d="M497.4,770.6c1.1-6.1,3.1-12.6,8-17c1.1,0.7,2.3,1.4,3.5,2.1c-5,4.4-8.4,10.4-7.9,17.1
		C499.8,772,498.6,771.3,497.4,770.6z"/>
	<path id="_x39__1_" class="st18" d="M498.6,749.3c0.4,0.3,0.8,0.5,1.3,0.8c-4.4,4.7-4.2,11.3-7.1,17.5c-0.7-0.5-1.5-1-2.2-1.5
		C491.3,759.7,492.6,753.3,498.6,749.3z"/>
	<path id="_x38__1_" class="st18" d="M491.6,744.6c0.7,0.5,1.4,1,2.2,1.5c-7.1,1.1-8.6,8.7-11.1,14.5c-1.2-0.9-2.4-1.8-3.6-2.7
		C480.8,752.1,485.9,746.3,491.6,744.6z"/>
	<path id="_x37__1_" class="st18" d="M480.7,736.3c0.9,0.7,1.8,1.4,2.7,2.1c-5.8,1.8-9.7,8-10.9,14.3c-1.2-1-2.5-2-3.7-3.1
		C471.4,744.3,475,737.9,480.7,736.3z"/>
	<path id="_x36__1_" class="st18" d="M475.7,732.2c0.7,0.6,1.4,1.2,2.1,1.8c-5.6,2.7-9.8,7.8-11.7,13.5c-0.5-0.4-1-0.9-1.5-1.3
		C466.6,740.1,469.6,734.9,475.7,732.2z"/>
	<path id="_x35__1_" class="st18" d="M470.4,727.4c0.8,0.8,1.7,1.5,2.5,2.3c-4.8,3.9-9.6,7.7-12.2,13.1c-0.5-0.5-1.1-1-1.6-1.5
		C462.5,736.1,465.4,731.1,470.4,727.4z"/>
	<path id="_x34__1_" class="st18" d="M467.1,724.3c0.3,0.3,0.5,0.5,0.8,0.8c-5.6,1.9-10.3,7.4-12.5,13c-0.4-0.4-0.9-0.8-1.3-1.2
		C456.8,731,460.6,726.2,467.1,724.3z"/>
	<path id="_x33__1_" class="st18" d="M464.9,722c0.3,0.3,0.6,0.6,0.9,1c-6.8,0.7-11.8,5.7-13.9,11.9c-1.2-1.1-2.4-2.2-3.6-3.4
		C452.8,726.5,458.1,722.5,464.9,722z"/>
	<path id="_x32__1_" class="st18" d="M463.8,721c0.2,0.2,0.4,0.4,0.6,0.7c-6.8-1.6-13.9,2.5-19.7,6.4c-0.6-0.6-1.2-1.2-1.7-1.7
		C447.5,720.1,456.5,720.1,463.8,721z"/>
	<path id="_x31__1_" class="st18" d="M462.8,719.9c0.2,0.2,0.3,0.4,0.5,0.6c-8-2.7-16.8-1.8-22.9,3.3c-0.5-0.5-1-1-1.5-1.5
		C445.8,717,455.2,716.2,462.8,719.9z"/>
	<path id="тень_В_1_" class="st19" d="M450,716.5c-5.9-0.1-11.7,1-12.9,3.8c52.8,53.7,94.2,74.6,159.3,85.9
		c3.1-2,4.6-4.6,4.9-7.4C557.1,803.4,464.1,752,450,716.5z"/>
</g>
<g id="голова">
	<g id="коса">
		<path id="XMLID_35_" class="st20" d="M691.7,285.1c35.3,23.2,19.8,56.8,14.6,75.3c40.6,14.3,3.3,78.3-15.3,87.2
			c33.6,20-7.6,57.4-22.9,66.5c24.1,11.4-9.7,41.9-31.3,44.8c34.7,17.7-18.5,32.8-29.8,41.1c42.4,12.2-37.4,41.1-37.4,41.1
			l-15.5-3.4c0,0-0.9-77.5,25.1-62.1c0-14.2,1.1-63.7,26.5-45.7c-5.8-10.3-31.2-66.5,10.1-56.5c-12.9-11.3-44.1-45.1,2.2-45.1
			C619.5,388,651.4,285.1,691.7,285.1z"/>
		<path id="_x36__2_" class="st21" d="M582.2,585.2c0,0-13.8,0.6-15.3,6.9c-2,6,5.4,20.6,11.1,27.2c2.6,3-14.5,18.8-15.1,18.5
			c0,0,32.6-16.2,38.2-22c2.3-2.4,3.6-12.3,3.6-12.3s-4.1,8.1-6.4,10.3c-2.5,2.3-11,5.1-14.9,3.7c-8.8-3.2-14.2-21.4-13.2-27.5
			C570.9,585.7,582.2,585.2,582.2,585.2z"/>
		<path id="_x35__2_" class="st21" d="M604.2,536.9c0,0-16.7,4.7-18.5,11.3c-2.4,6.3,8,25.4,15.8,32.7c3.7,3.4-18.6,19.4-19.4,19
			c0,0,43-15.7,50.2-21.6c3-2.5,4.3-13,4.3-13s-5.1,8.5-8.2,10.6c-3.3,2.3-14.5,5-19.8,3.3c-11.9-3.8-20.1-23.5-19-30
			C590.5,544.7,604.2,536.9,604.2,536.9z"/>
		<path id="_x34__2_" class="st21" d="M664.3,512.9c0,0,8.8,23.5-12,36.1c-10,5.5-24.7-8-32.4-16.4c0.6,5.7-1.9,23.3-1.9,36.8
			c-2.5,0.3-4.2-19.3-3.4-42.1c-4.2-5.6-12.8-28.2-11.7-30.8c1.9-4.7,18.6-8.7,18.6-8.7s-12.7,7.7-14.4,12.3
			c-1.7,4.6,10.1,20.4,13.1,24.3c6.9,8.9,19.3,25.1,29.7,20.7C657.8,541.8,664.3,512.9,664.3,512.9z"/>
		<path id="_x33__2_" class="st21" d="M682.9,447.8c0,0,11.1,19.8,6.6,26.8c-3.5,7.4-30.1,13-43.8,11.4c-6.4-0.8-0.5,33.4,0.6,33.9
			c0,0-25.1-53.7-26.4-65.4c-0.6-4.9,7.7-14.6,7.7-14.6s-3,11.7-2.1,16.4c0.9,5,8.8,17.8,15.1,21.5c14.3,8.3,39.4,0,44.3-6.3
			C688.4,467.2,682.9,447.8,682.9,447.8z"/>
		<path id="_x32__2_" class="st21" d="M694.9,365.4c0,0,12.6,22.4,8,35c-3.1,11-24,29.3-33.5,33.4c-4.2,1.8,5,23.7,5.7,23.7
			c0,0-25.6-30.8-30-41c-2-4.7-0.2-20.4-0.2-20.4s2.2,15.1,4.3,19.5c2.1,4.5,10.5,12.8,15.4,13.4c11.2,1.4,29.8-18.9,34-29.4
			C701.7,391.4,694.9,365.4,694.9,365.4z"/>
		<path id="_x31__3_" class="st21" d="M681,287.5c0,0,19.4,16.9,19.3,30.2c0.8,11.4-12.7,35.6-20.4,42.7
			c-3.4,3.1,12.6,20.6,13.3,20.4c0,0-34.5-20.4-42.1-28.5c-3.5-3.7-7.1-19.2-7.1-19.2s7.1,13.5,10.6,16.9c3.5,3.5,14.2,8.5,19,7.4
			c11-2.5,21.7-27.8,22.1-39.1C696.1,309.7,681,287.5,681,287.5z"/>
		<path id="XMLID_49_" class="st20" d="M554,629.1c-48.5,11.9-6.5,79.3,13.4,78.6c-17-34,42.1-42,7.7-68.8
			C571.3,635.6,560.4,634.3,554,629.1z"/>
		<path id="XMLID_51_" class="st21" d="M554,629.1c-30,15.7-9.1,65.3,13.4,78.6C546.2,687.5,531.5,648.8,554,629.1z"/>
		<path id="XMLID_52_" class="st21" d="M571.1,636.7c32.8,27-23,38.5-3.7,70.9C544.6,672.9,598.8,664.8,571.1,636.7z"/>
		<path id="XMLID_53_" class="st21" d="M557.8,631.6c-22.8,13.9-9.1,53,9.6,76.1C548.6,680.6,540.1,647,557.8,631.6z"/>
		<path id="XMLID_37_" class="st21" d="M565,634.5c-21.4,7.4-12.6,56.2,2.4,73.1C553.2,683.1,550.8,647,565,634.5z"/>
		<path id="XMLID_54_" class="st20" d="M554.3,626c-1,0.3-2.4,2.6-2,3.6c2.8,6,18.2,13.1,24.3,10.4c0.6-0.3,1.5-1.6,1.3-2.2
			C576,631.5,560.6,624.1,554.3,626z"/>
	</g>
	<path id="XMLID_59_" class="st22" d="M411.3,89c-131.4,0-209.3,95.9-219,194.4c-4.8,49.1-30.3,62.1-33.2,113.1
		c-4.2,72.2,69.9,192.6,252.2,192.6c108.4,0,194.4-58.3,229.1-148.9c4.4-11.6,6.6-17.5,9.3-30c0.1,0.2,0.3,0.4,0.4,0.5
		c3.8-22.5,1.9-45,6.9-67.6C656.1,202.4,597.7,89,411.3,89z"/>
	<g id="глаз_л">
		<path id="белок" class="st23" d="M346,363c-1.3-30.5-23.7-47-39.6-56.8c-21.6-13.4-70.6-26.2-97.8-8.9
			c-7.5,12.7,2.9,58.2,16.3,64.6C257.3,375.3,314.2,382,346,363z"/>
		<radialGradient id="радужка_2_" cx="301.6899" cy="339.0611" r="36.9721" gradientUnits="userSpaceOnUse">
			<stop  offset="0.5764" style="stop-color:#8DC63F"/>
			<stop  offset="1" style="stop-color:#00B9F2"/>
		</radialGradient>
		<path id="радужка" class="st24" d="M338.7,339c0,20.4-16.6,37-37,37s-37-16.6-37-37s18.7-36.9,39.1-36.9
			C320.6,310.1,338.7,317.1,338.7,339z"/>
		<path id="веко_в" class="st25" d="M203.3,306.6c4.6,0.4,109.3-12.9,138.3,21.5c-18.5-22.7-57.8-35.9-79.7-37.8
			C234.3,285.7,189.6,289.3,203.3,306.6z"/>
		<path id="XMLID_6_" class="st25" d="M209.3,344.4c38,15.4,95.8,31.6,148.4,20.5c-22.8,12.7-78.1,15.6-98,10.6
			C238.6,370.1,213.6,367,209.3,344.4z"/>
		<circle id="XMLID_5_" cx="301.7" cy="339.1" r="16.1"/>
		
			<ellipse id="XMLID_8_" transform="matrix(0.9865 0.1637 -0.1637 0.9865 58.6537 -42.2359)" class="st26" cx="285.6" cy="334.8" rx="11.8" ry="3.9"/>
		<ellipse id="XMLID_9_" class="st23" cx="317.8" cy="342.1" rx="4.8" ry="3.9"/>
		<linearGradient id="XMLID_98_" gradientUnits="userSpaceOnUse" x1="240.6729" y1="362.1419" x2="282.0556" y2="290.4649">
			<stop  offset="0" style="stop-color:#603913"/>
			<stop  offset="1" style="stop-color:#8B5E3C"/>
		</linearGradient>
		<path id="XMLID_26_" class="st27" d="M337.6,324.1c-16.8-19.4-108.3-35.6-137.2-22c-3.2,20.9,3.9,43.7,16.5,45.3
			c-14-21.3-14.2-43.3,11.1-42.3C258.6,302.1,309.6,312.3,337.6,324.1z"/>
	</g>
	<g id="глаз_п">
		<path id="белок_1_" class="st23" d="M419.5,368.8c7.1-29.8,34-42.2,52.7-49.1c25.5-9.4,80-13.4,105.7,8.4
			c5.6,13.9-13.9,56.9-29.3,60.8C511.7,396.5,450,393.1,419.5,368.8z"/>
		
			<radialGradient id="радужка_3_" cx="525.5845" cy="354.7944" r="36.9721" gradientTransform="matrix(-0.9848 -0.1736 -0.1736 0.9848 1101.8326 96.3979)" gradientUnits="userSpaceOnUse">
			<stop  offset="0.5764" style="stop-color:#8DC63F"/>
			<stop  offset="1" style="stop-color:#00B9F2"/>
		</radialGradient>
		<path id="радужка_1_" class="st28" d="M486.2,348.1c-3.5,20.1,9.9,39.3,30,42.8c20.1,3.5,39.3-9.9,42.8-30
			c3.5-20.1-12-39.6-32.1-43.2C509,322.7,490,326.5,486.2,348.1z"/>
		<circle id="XMLID_29_" cx="522.6" cy="354.5" r="16.1"/>
		
			<ellipse id="XMLID_27_" transform="matrix(-0.9848 -0.1736 0.1736 -0.9848 1006.6768 802.726)" class="st23" cx="538.5" cy="357.3" rx="4.8" ry="3.9"/>
		
			<ellipse id="XMLID_28_" transform="matrix(-0.9848 -0.1736 0.1736 -0.9848 944.8085 786.1484)" class="st26" cx="506.8" cy="351.7" rx="11.8" ry="3.9"/>
		<path id="веко_в_1_" class="st25" d="M581.7,338.3c-4.6-0.4-105.4-31.7-139.9-2.8c22.2-19.1,63.1-25.3,85.1-23.4
			C554.8,312.3,598.2,323.5,581.7,338.3z"/>
		<path id="XMLID_30_" class="st25" d="M569.2,374.4c-40.1,8.6-99.8,14.5-149.7-5.6c20.2,16.5,74.2,29,94.7,27.5
			C535.9,394.6,561.1,395.9,569.2,374.4z"/>
		<linearGradient id="XMLID_99_" gradientUnits="userSpaceOnUse" x1="504.7747" y1="365.8616" x2="535.419" y2="312.7841">
			<stop  offset="0" style="stop-color:#603913"/>
			<stop  offset="1" style="stop-color:#8B5E3C"/>
		</linearGradient>
		<path id="XMLID_25_" class="st29" d="M446.4,332.2c19.9-16.2,115.4-15.3,136.3,10c11.8,21.9-8.8,34.5-21.5,33.9
			c17.5-18.5,13.7-30-3.6-43.6C528,324.2,476,325.4,446.4,332.2z"/>
	</g>
	<g id="губанос">
		<path id="XMLID_31_" class="st30" d="M306.6,491.5c0.7-1.1,19.9,0.8,26.7,0.1c6.2-0.6,17.7-8.3,20.7-8.5
			c4.8-0.7,12.4,5.2,12.4,5.2s8.4-5.9,15.8-5.9c17.2,4.3,36,16.5,67.9,5.4c-0.6,3.5-20.2,12.9-26.5,14.1c-9.8,1.9-28.2,0.6-38.8-1.2
			c-13.4,2.8-21.2,2.8-33.7,0.7C345.1,502.5,317.6,494.4,306.6,491.5z"/>
		<path id="нос" class="st31" d="M363.4,370.6c-11,24.1-28.7,29.9-29.9,39.1c-1.2,8.1,0.8,16.4,24.1,18.5c5.6,0.1,17,0,21.5-5.5
			c10.6-14-9.2,0.9-20.3-1.2c-5.2-1-25.9-2.3-14.6-17.1C352.5,396.2,361.8,386.2,363.4,370.6z"/>
		
			<linearGradient id="бровь_л_x5C__2_" gradientUnits="userSpaceOnUse" x1="267.301" y1="300.3635" x2="300.6072" y2="242.6754">
			<stop  offset="0" style="stop-color:#603913"/>
			<stop  offset="1" style="stop-color:#8B5E3C"/>
		</linearGradient>
		<path id="бровь_л_x5C_" class="st32" d="M351.3,288.9c-12.6-11.6-41.5-18.1-56.3-20.3c-21.2-3.1-55.1-5-85.7-1.8
			c33.4-15.8,55.4-16.8,76.4-15.5c15.8,1,49.7,7.2,60.4,18.8C349.4,273.7,352.5,282.8,351.3,288.9z"/>
		
			<linearGradient id="бровь_л_x5C__3_" gradientUnits="userSpaceOnUse" x1="501.7062" y1="329.6875" x2="540.534" y2="262.4358">
			<stop  offset="0" style="stop-color:#603913"/>
			<stop  offset="1" style="stop-color:#8B5E3C"/>
		</linearGradient>
		<path id="бровь_л_x5C__1_" class="st33" d="M450.9,300.3c13.8-10.2,43.2-13.6,58.2-14.1c21.4-0.8,55.3,1,85.4,7.4
			c-31.5-19.3-53.3-22.7-74.3-23.6c-15.8-0.7-50.2,1.8-62.1,12.2C454.4,285.4,450.3,294.1,450.9,300.3z"/>
		<path id="XMLID_33_" class="st31" d="M343.9,514.1c5.3,11.8,16.5,5.4,23.9,3.9c7,2.5,16.5,3.4,25.9-3.9c-12.6,4.4-26.6,0-26.6,0
			S356.9,520,343.9,514.1z"/>
	</g>
	<g id="волосы">
		<path id="XMLID_34_" class="st20" d="M231,178.8c73.4-62.4,302.7-1.1,363.4,3c26.5,10.5,19.8,89.6,29.6,118.5
			c4.5,13.5,33.1,46.2,33.1,46.2l3.4-2.3l4.1-1.9l3.8-0.8l4,0.5l3.9,2l2.6,2.5c28.8-79.1,10.9-173.1-61.1-227.1
			C507.7,36.9,281.5,59.6,231,178.8z"/>
		<path id="XMLID_36_" class="st21" d="M235.9,175.1l31.5-45.8l-7.7,28.4l26.6-43.1l-13.7,38.9l36.1-52L290.8,148l35.9-54.9
			l-22,52.5l52.2-62.9l-31.5,59.2L388,75.7l-44.2,66.5l66.7-69.7l-51.2,70l72.4-71.7L379,143.5l71.9-73.1l-47.2,74.2l64.6-73.7
			c0,0-39.9,75.5-41.2,75.5s74.3-72.2,74.3-72.2l-53.1,75.9l78.6-71l-58.7,73.1l88.6-64.4l-64.2,65.5L586,100l-74.5,57.9l93.6-47.2
			l-70,54.9l90.3-40.1l-62.7,42l75.8-29.9l-57.7,32.8l67.8-21.7l-49.4,26.5l58.3-15l-44.1,21.2l53.4-6.7l-46.3,20l53.8-5.4
			l-50.4,19.2h58c0,0-56.4,10.4-56.4,11.2c0,0.8,60,0.9,60,0.9l-56.6,14.4l59.8,1.6l-61.1,13.1l62.7-5l-59,25.4l60.5-9.9l-58.1,22.1
			l58.5-5.2l-54.8,20.6l54.4-11.1l-52.2,23.8l50.9-11.1l-43.6,20.9l42.2-11.6l-33.8,24.3l29.4-4.1l-27.5,18l24.4-16.9l-33.7,5.8
			l37.7-25.5l-47,13.6l45.4-22.1L631,313l53.5-24.2l-60,12.7l61.9-23.3l-65.8,5.7l63.3-21.7l-64.6,10.7l65.1-26.7l-67,5.1l63.4-14
			l-64.9-1.6l64.8-14.5l-66.7,0l56-11.5l-58.2,0.3l53.7-18.4l-57.3,6.5l50.4-20.7l-57.6,8.8l46.1-22.1l-60,17.1l48.4-26.9L564.4,178
			l59.2-33.1l-73.9,30.7l64.7-43.6l-88.2,39.6l65.4-52.1L499.3,167l63.8-51.8l-83.5,48.6l59.9-60.7l-79,57.8l50.1-64.5l-69,61.9
			l44.8-66.1l-66.2,63.5l39.2-72.1l-62.1,69.8l44.9-72.8l-69.3,71.1l42-62l-62.5,61.3l41.8-59l-56.9,59l33.3-53.2l-53.3,54
			l31.7-57.2l-49,58.9l20.1-47.6l-32.6,49.5l15.3-44l-33.4,48.2l11.7-35.2l-23.4,39l6.1-27.2L235.9,175.1z"/>
	</g>
	<path id="XMLID_55_" class="st22" d="M646.4,408.3c13.4,29.9,42.2-18.4,43.2-27.3c1.1-10.1,13-37.8-17.4-42.6
		C649.1,334.9,638,384.6,646.4,408.3z"/>
	<path id="XMLID_56_" class="st34" d="M655.9,379.6c-6.7-1.7-2.7-21.9,5.1-27.3c5.7-6.9,18-6.1,22.1-2.4c2.9,2.6,5.7,13.4,2.5,15.5
		c-9.8,3.4-19.6,0-22.1-8.6C658,359.5,655.3,370.4,655.9,379.6z"/>
</g>
</svg>
