<?xml version="1.0" encoding="utf-8"?>
<!-- Generator: Adobe Illustrator 19.0.0, SVG Export Plug-In . SVG Version: 6.00 Build 0)  -->
<svg version="1.1" xmlns="http://www.w3.org/2000/svg" xmlns:xlink="http://www.w3.org/1999/xlink" x="0px" y="0px"
	 viewBox="0 0 1417.3 1417.3" style="enable-background:new 0 0 1417.3 1417.3;" xml:space="preserve">
<style type="text/css">
	.st0{fill:#999999;}
	.st1{fill:#666766;}
	.st2{opacity:0.4;}
	.st3{fill:#7F7F7F;}
	.st4{fill:#7292CB;}
	.st5{opacity:0.1;}
	.st6{fill:#9595C9;}
	.st7{fill:url(#XMLID_57_);}
	.st8{fill:#C6D4E2;}
	.st9{opacity:0.51;}
	.st10{fill:#58595B;}
	.st11{fill:#7D7C7C;}
	.st12{fill:#CDCFD0;}
	.st13{fill:#013333;}
	.st14{fill:#EBF2F2;}
	.st15{fill:#ED1F24;}
	.st16{fill:#71BF44;}
	.st17{fill:#E6E7E8;}
	.st18{fill:#9B8579;}
	.st19{opacity:0.18;}
	.st20{fill:#916939;}
	.st21{fill:#CB984D;}
	.st22{fill:#FDCD9A;}
	.st23{fill:#EFEFEF;}
	.st24{fill:url(#радужка_2_);}
	.st25{fill:#E9B685;}
	.st26{fill:#F1F2F2;}
	.st27{fill:url(#XMLID_58_);}
	.st28{fill:url(#радужка_3_);}
	.st29{fill:url(#XMLID_60_);}
	.st30{fill:#E2937A;}
	.st31{fill:#C38C62;}
	.st32{fill:url(#бровь_л_x5C__2_);}
	.st33{fill:url(#бровь_л_x5C__3_);}
	.st34{fill:#A07E60;}
</style>
<g id="прав_нога">
	<path id="п_низ_1_" class="st0" d="M747.7,1058c16.1,43.6,45.1,114.5,87.5,142.1c14.5,4.8,24.5,2.9,34.9-3.7
		c18.5-15.3,19.2-64.4,19.2-151.2C889.3,901.4,697.8,922.6,747.7,1058z"/>
	<path id="п_верх" class="st0" d="M756.3,1079.4c-12-29.2-17.9-45.1-25.4-69.6c-16.5-53.9-4.2-98.4,17-121.3
		c16.3-17.6,130.9-48.6,133.8-24.8c4.7,39,4.4,124.2,7.3,182.1C853.7,1094.5,800.6,1104,756.3,1079.4z"/>
	<path id="ботинок_п_1_" class="st1" d="M778.2,1128.9c15.9,32.5,31.5,54.8,57,71.3c14.5,4.8,24.5,2.9,34.9-3.7
		c12.8-10.6,17-33.2,18.4-77.5C875.9,1141.5,806.2,1146.1,778.2,1128.9z"/>
	<path id="тень_к" class="st2" d="M887.6,1000.3c-7.9,4.2-19.4,7.3-24.5,4.2c-12.8-7.8-17.4-45.2-11.3-58.9
		c3.6-8,23.8-15.6,34.1-13.4C886.5,954.5,887,978.2,887.6,1000.3z"/>
	<path id="карман_1_" class="st3" d="M852.6,940.9c4-9,29.4-21.3,35.8-11.5c10.3,14,14.3,47.2,6.8,61.3
		c-5.2,7.7-24.3,13.3-31.3,9.1C851,992,846.4,954.6,852.6,940.9z"/>
	<path id="стежка_к_1_" class="st1" d="M894.1,940.9c-5.8,20.4-30.3,13.6-43.9,9.4c3.5,4.1,20.2,7.5,26.3,7.4
		c-1.6,9.7,15.3,4.5,9.4-1.3C889.5,953.9,893.2,947.9,894.1,940.9z"/>
</g>
<g id="лев_нога">
	<path id="л_низ_1_" class="st0" d="M650.4,1058c-16.1,43.6-45.1,114.5-87.5,142.1c-14.5,4.8-24.5,2.9-34.9-3.7
		c-18.5-15.3-19.2-64.4-19.2-151.2C508.8,901.4,700.3,922.6,650.4,1058z"/>
	<path id="л_верх_1_" class="st0" d="M641.8,1079.4c12-29.2,17.9-45.1,25.4-69.6c16.5-53.9,4.2-98.4-17-121.3
		c-16.3-17.6-130.9-48.6-133.8-24.8c-4.7,39-4.4,124.2-7.3,182.1C542.4,1100.4,598.1,1105.3,641.8,1079.4z"/>
	<path id="ботинок_п" class="st1" d="M619.8,1129.1c-15.9,32.5-31.4,54.5-56.9,71.1c-14.5,4.8-25,2.9-35.5-3.7
		c-12.8-10.6-16.3-31-17.7-75.3C522.3,1143.7,591.8,1146.3,619.8,1129.1z"/>
	<path id="тень_к_1_" class="st2" d="M510.4,1007.5c7.9,4.2,19.4,7.3,24.5,4.2c12.8-7.8,17.4-45.2,11.3-58.9
		c-3.6-8-23.8-15.6-34.1-13.4C511.5,961.7,511,985.4,510.4,1007.5z"/>
	<path id="карман" class="st3" d="M546.2,946.5c-4-9-29.4-21.3-35.8-11.5c-10.3,14-14.3,47.2-6.8,61.3
		c5.2,7.7,24.3,13.3,31.3,9.1C547.7,997.7,552.3,960.2,546.2,946.5z"/>
	<path id="стежка_к" class="st1" d="M504.6,946.5c5.8,20.4,30.3,13.6,43.9,9.4c-3.5,4.1-20.2,7.5-26.3,7.4
		c1.6,9.7-15.3,4.5-9.4-1.3C509.2,959.5,505.5,953.5,504.6,946.5z"/>
</g>
<g id="прав_рука">
	<path id="XMLID_11_" class="st0" d="M800.4,556c29.3,16.7,235.4,144.9,253.4,172.9c0,8.7-3.8,15.6-11.9,15.6
		c-43.8-5.6-203.2-24.2-251.7-46.6C758,683,769.1,572.9,800.4,556z"/>
	<path id="XMLID_15_" class="st4" d="M866,596.1c0,0,5.8,48.8,5.2,65.1c-0.5,13.6-8,54-8,54l-17.3-3.5c0,0,6.5-46,6.9-61.5
		c0.4-16.3-4.1-65-4.1-65L866,596.1z"/>
	<path id="XMLID_16_" class="st1" d="M1036.1,710.8c0,0-11.4,4.4-14.5,12.3c-4,10.3-1,18.6-1,18.6l-74.4-10c0,0,1.5-20.6,8.9-33.9
		c8.8-15.9,30.3-24.1,30.3-24.1c1.5,1,24.8,17.4,39.8,28.6L1036.1,710.8z"/>
	<path id="XMLID_19_" class="st4" d="M948.6,649.5c2.9,1.9,5.7,3.8,8.5,5.7c-23,20.4-31.3,31.6-39,72.3c-2.3-0.4-4.7-0.7-7-1.1
		C911.1,694.5,923.3,668,948.6,649.5z"/>
	<path id="XMLID_18_" class="st4" d="M966.6,661.6c2.9,1.9,5.7,3.9,8.5,5.8c-21.8,12.6-36.5,32.2-41.9,62.5
		c-2.4-0.4-4.9-0.7-7.3-1.1C930.6,702,943.1,680,966.6,661.6z"/>
	<path id="XMLID_20_" class="st5" d="M868.9,682.8c43.5,22.2,148.5,41.3,184.9,46.9c-0.2,8.3-4,14.8-11.8,14.8
		c-43.8-5.6-203.2-24.2-251.7-46.6c-21-9.7-23.6-59.6-14.3-98C784.2,608.5,823.4,659.5,868.9,682.8z"/>
</g>
<g id="лев_рука">
	<path id="XMLID_46_" class="st0" d="M606.3,556c-29.3,16.7-235.4,144.9-253.4,172.9c0,8.7,3.8,15.6,11.9,15.6
		c43.8-5.6,203.2-24.2,251.6-46.6C648.7,683,637.6,572.9,606.3,556z"/>
	<path id="XMLID_45_" class="st4" d="M534.7,599.9c0,0-5.8,48.8-5.2,65.1c0.5,13.6,8,54,8,54l17.3-3.5c0,0-6.5-46-6.9-61.5
		c-0.4-16.3,4.1-65,4.1-65L534.7,599.9z"/>
	<path id="XMLID_44_" class="st4" d="M458.1,649.5c-2.9,1.9-5.7,3.8-8.5,5.7c23,20.4,31.3,31.6,39,72.3c2.3-0.4,4.7-0.7,7-1.1
		C495.6,694.4,483.4,667.9,458.1,649.5z"/>
	<path id="XMLID_43_" class="st4" d="M440.1,661.6c-2.9,1.9-5.7,3.9-8.5,5.8c21.8,12.6,36.5,32.2,41.9,62.5c2.4-0.4,4.9-0.7,7.3-1.1
		C476.1,702,463.6,680,440.1,661.6z"/>
	<path id="XMLID_42_" class="st1" d="M371.7,710.8c0,0,11.4,4.4,14.5,12.3c4,10.3,1,18.6,1,18.6l74.4-10c0,0-1.5-20.6-8.9-33.9
		c-8.8-15.9-30.3-24.1-30.3-24.1c-1.5,1-24.8,17.4-39.8,28.6L371.7,710.8z"/>
	<path id="XMLID_41_" class="st6" d="M438.8,703.7c-4.1-9.6-14.9-18.9-25.4-23.7c-7.4,5.2-18,12.9-27,19.4
		c14.6,6.7,19.2,24.6,19.2,24.6S428.7,715.1,438.8,703.7z"/>
	<radialGradient id="XMLID_57_" cx="411.9217" cy="699.4777" r="19.382" gradientUnits="userSpaceOnUse">
		<stop  offset="0.1182" style="stop-color:#1DBFD3"/>
		<stop  offset="0.9409" style="stop-color:#001331"/>
	</radialGradient>
	<path id="XMLID_23_" class="st7" d="M410,717c8.8-3.5,15.9-7.5,23-13c-5.5-9.4-13.2-17.1-22.4-22c-5.4,3.9-13.4,9.6-19.8,14.2
		C399.9,699.4,406.5,708.3,410,717z"/>
	<path id="XMLID_40_" class="st5" d="M537.8,682.8c-43.5,22.2-148.5,41.3-184.9,46.9c0.2,8.3,4,14.8,11.8,14.8
		c43.8-5.6,203.2-24.2,251.7-46.6c21-9.7,23.6-59.6,14.3-98C622.5,608.5,583.4,659.5,537.8,682.8z"/>
</g>
<g id="тело_1_">
	<path id="XMLID_14_" class="st0" d="M867.9,700.9c-8-36.4-52.1-122-79.3-154.2c-30.9-36.6-141.1-39.7-172.2-3.2
		c-34.5,40.5-81,122-86.8,157.5c-8.8,53.6-29.1,171.3,0,217.1c16.6,38.6,131.7,74.2,173.7,74.2c43.4,0,141.8-38.9,164.7-74.2
		C897.4,872.4,879.5,753.9,867.9,700.9z"/>
	<path id="XMLID_3_" class="st4" d="M514.7,855c0,0,62.9,16.7,99.1,42.2c42.6,30.1,67.6,92.9,67.6,92.9l-9.4-1.7
		c0,0-29.9-61.2-63.7-83.1c-38.6-25.1-91.9-41.6-91.9-41.6L514.7,855z"/>
	<path id="XMLID_12_" class="st4" d="M884,855c0,0-62.9,16.7-99.1,42.2c-42.6,30.1-67.6,92.9-67.6,92.9l9.4-1.7
		c0,0,29.9-61.2,63.7-83.1c38.6-25.1,91.9-41.6,91.9-41.6L884,855z"/>
</g>
<g id="блок">
	<polygon id="XMLID_50_" class="st8" points="699.2,708.7 704.1,708.7 703.9,909.3 699.2,909.3 	"/>
	<path id="тень" class="st9" d="M734.5,717.9c-5.1-3.2-17.1-5.1-19.4,0c52.8,53.7,102.9,84.6,167.9,95.9
		c0.1-12.3-2.9-14.2-3.2-18.2C830.1,788.8,762.7,749,734.5,717.9z"/>
	<path id="тень_1_" class="st9" d="M663.7,719c5.1-3.2,17.1-5.1,19.4,0c-52.8,53.7-102.9,84.6-167.9,95.9
		c-0.1-12.3,2.9-14.2,3.2-18.2C568.1,789.8,635.5,750,663.7,719z"/>
	<path id="XMLID_13_" class="st10" d="M625.6,535.2c45.5,28.9,80,132.6,73.6,144.8c-11.5-12-46.3-94.1-87-131.5
		C610.8,535.1,618,529.6,625.6,535.2z"/>
	<path id="XMLID_10_" class="st10" d="M778.5,535.2c-45.5,28.9-80,132.6-73.6,144.8c11.5-12,46.3-94.1,87-131.5
		C793.2,535.1,786.1,529.6,778.5,535.2z"/>
	<polygon id="XMLID_17_" class="st11" points="637.3,715.2 770.9,715.2 761.4,721.7 646.9,721.7 	"/>
	<rect id="XMLID_24_" x="637.3" y="644.8" class="st12" width="133.6" height="70.4"/>
	<rect id="XMLID_21_" x="648.7" y="658.2" class="st13" width="60" height="30.3"/>
	<rect id="XMLID_22_" x="722.6" y="658.2" class="st14" width="37.5" height="37.5"/>
	<circle id="XMLID_38_" class="st15" cx="750.7" cy="667.3" r="5.7"/>
	<circle id="XMLID_39_" class="st16" cx="732.2" cy="667.3" r="5.7"/>
	<circle id="XMLID_47_" class="st15" cx="750.7" cy="688.5" r="5.9"/>
	<circle id="XMLID_48_" class="st15" cx="732.2" cy="688.5" r="5.7"/>
</g>
<g id="лев_труба">
	<path id="база_2_" class="st17" d="M650.1,719c5.1-3.2,22.7-3.8,24.9,1.3c-52.8,53.7-94.2,74.6-159.3,85.9
		c-8-5.2-5.5-14.2,1.8-19.3C567.2,780.1,621.9,750,650.1,719z"/>
	<path id="_x32_6" class="st18" d="M513.8,790.4c-3.2,3.9-4.1,8.8-1.4,12.7C511.3,798.6,511.4,794,513.8,790.4z"/>
	<path id="_x32_5" class="st18" d="M520.9,786.4c-0.5,0.1-1.1,0.2-1.6,0.2c-4.8,4.7-7.3,14-2.6,19.4c0.6-0.1,1.2-0.2,1.9-0.3
		C514.6,800.1,516.5,792.2,520.9,786.4z"/>
	<path id="_x32_4" class="st18" d="M525.4,785.6c-0.9,0.2-1.8,0.3-2.7,0.5c-1.7,6.4-4.4,12.8-2.4,19.3c1.4-0.3,2.8-0.5,4.2-0.8
		C521.2,798.5,520.8,791,525.4,785.6z"/>
	<path id="_x32_3" class="st18" d="M530.1,784.7c-0.6,0.1-1.1,0.2-1.7,0.3c-3,6-3.3,13.3-0.6,18.9c1.1-0.2,2.1-0.4,3.2-0.6
		C527.4,797.5,526.9,790.4,530.1,784.7z"/>
	<path id="_x32_2" class="st18" d="M537,783.1c-0.6,0.1-1.1,0.3-1.7,0.4c-1.3,6.2,0.8,12.4,0.9,18.6c0.7-0.2,1.3-0.3,2-0.5
		C536.3,795.7,536.9,789.7,537,783.1z"/>
	<path id="_x32_1" class="st18" d="M541.3,781.9c-0.8,0.2-1.6,0.4-2.5,0.6c-0.3,6.5,2.1,12.4,0.2,18.8c0.7-0.2,1.3-0.3,2-0.5
		C542.5,794.6,543.4,788.3,541.3,781.9z"/>
	<path id="_x32_0" class="st18" d="M550.1,779.4c-1.3,0.4-2.5,0.8-3.8,1.2c1.2,7.4-0.9,14.1-4,20.1c0.5-0.1,1.1-0.3,1.6-0.4
		C546.9,793.6,548.6,786.5,550.1,779.4z"/>
	<path id="_x31_9" class="st18" d="M557.7,776.8c-1,7.8-2.8,15-6.9,21.6c1.4-0.4,2.8-0.8,4.1-1.2c3.8-5.6,4.1-13.9,4.1-20.9
		C558.6,776.5,558.1,776.7,557.7,776.8z"/>
	<path id="_x31_8" class="st18" d="M560.5,775.8c-0.5,0.2-1,0.4-1.5,0.5c0,7-0.3,15.3-4.1,20.9c0.4-0.1,0.7-0.2,1.1-0.3
		C559.1,790.3,561.3,783.1,560.5,775.8z"/>
	<path id="_x31_7" class="st18" d="M566.5,773.5c-0.4,0.2-0.9,0.4-1.3,0.5c3.2,6.5-1.8,14.4-4.9,21.6c1.3-0.4,2.7-0.9,4-1.3
		C567.4,787.7,569.7,780.1,566.5,773.5z"/>
	<path id="_x31_6" class="st18" d="M570.5,771.9c-0.6,0.2-1.2,0.5-1.8,0.7c2.7,6.9,1.4,14.3-1,20.5c0.6-0.2,1.3-0.4,1.9-0.7
		C572.7,785.7,574.2,778,570.5,771.9z"/>
	<path id="_x31_5" class="st18" d="M576.5,769.4c-0.5,0.2-1,0.4-1.5,0.6c5.2,5.8,1.2,14.5-1.6,21.1c0.9-0.4,1.9-0.7,2.8-1.1
		C579.7,783.3,583.3,774.1,576.5,769.4z"/>
	<path id="_x31_4.5" class="st18" d="M581.4,767.1c-0.6,0.3-1.1,0.5-1.7,0.8c4.4,5.9,2.9,13.2,1.8,20c0.7-0.3,1.3-0.6,2-0.8
		C584.7,780.2,583.8,774,581.4,767.1z"/>
	<path id="_x31_4" class="st18" d="M582.3,766.7c-0.3,0.1-0.6,0.3-0.9,0.4c2.5,6.9,3.3,13.1,2,19.9c0.2-0.1,0.5-0.2,0.7-0.3
		C587.3,780.5,586.3,772.6,582.3,766.7z"/>
	<path id="_x31_3" class="st18" d="M593.6,782.3c-1.1-6.6-3-12-6.4-18c-0.3,0.2-0.6,0.3-0.9,0.5c2.2,6.3,4.9,12.6,4.7,18.9
		C591.8,783.2,592.7,782.8,593.6,782.3z"/>
	<path id="_x31_2" class="st18" d="M591.6,762c-1,0.5-2,1-2.9,1.5c4.6,3.7,10.5,9.1,10.4,16c0.6-0.3,1.3-0.7,1.9-1
		C601.8,772.1,597.1,766.6,591.6,762z"/>
	<path id="_x31_1" class="st18" d="M599.7,757.6c-0.5,0.3-0.9,0.5-1.4,0.8c4.9,5.3,4,12.1,5.9,18.4c0.5-0.3,1.1-0.6,1.6-0.9
		C606,769.1,604.5,762.1,599.7,757.6z"/>
	<path id="_x31_0" class="st18" d="M614.6,770.6c-1.1-6.1-3.1-12.6-8-17c-1.1,0.7-2.3,1.4-3.5,2.1c5,4.4,8.4,10.4,7.9,17.1
		C612.3,772,613.4,771.3,614.6,770.6z"/>
	<path id="_x39_" class="st18" d="M613.4,749.3c-0.4,0.3-0.8,0.5-1.3,0.8c4.4,4.7,4.2,11.3,7.1,17.5c0.7-0.5,1.5-1,2.2-1.5
		C620.7,759.7,619.4,753.3,613.4,749.3z"/>
	<path id="_x38_" class="st18" d="M620.4,744.6c-0.7,0.5-1.4,1-2.2,1.5c7.1,1.1,8.6,8.7,11.1,14.5c1.2-0.9,2.4-1.8,3.6-2.7
		C631.2,752.1,626.1,746.3,620.4,744.6z"/>
	<path id="_x37_" class="st18" d="M631.4,736.3c-0.9,0.7-1.8,1.4-2.7,2.1c5.8,1.8,9.7,8,10.9,14.3c1.2-1,2.5-2,3.7-3.1
		C640.6,744.3,637.1,737.9,631.4,736.3z"/>
	<path id="_x36_" class="st18" d="M636.3,732.2c-0.7,0.6-1.4,1.2-2.1,1.8c5.6,2.7,9.8,7.8,11.7,13.5c0.5-0.4,1-0.9,1.5-1.3
		C645.5,740.1,642.5,734.9,636.3,732.2z"/>
	<path id="_x35_" class="st18" d="M641.6,727.4c-0.8,0.8-1.7,1.5-2.5,2.3c4.8,3.9,9.6,7.7,12.2,13.1c0.5-0.5,1.1-1,1.6-1.5
		C649.6,736.1,646.7,731.1,641.6,727.4z"/>
	<path id="_x34_" class="st18" d="M644.9,724.3c-0.3,0.3-0.5,0.5-0.8,0.8c5.6,1.9,10.3,7.4,12.5,13c0.4-0.4,0.9-0.8,1.3-1.2
		C655.2,731,651.5,726.2,644.9,724.3z"/>
	<path id="_x33_" class="st18" d="M647.2,722c-0.3,0.3-0.6,0.6-0.9,1c6.8,0.7,11.8,5.7,13.9,11.9c1.2-1.1,2.4-2.2,3.6-3.4
		C659.2,726.5,653.9,722.5,647.2,722z"/>
	<path id="_x32_" class="st18" d="M648.2,721c-0.2,0.2-0.4,0.4-0.6,0.7c6.8-1.6,13.9,2.5,19.7,6.4c0.6-0.6,1.2-1.2,1.7-1.7
		C664.5,720.1,655.6,720.1,648.2,721z"/>
	<path id="_x31_" class="st18" d="M649.2,719.9c-0.2,0.2-0.3,0.4-0.5,0.6c8-2.7,16.8-1.8,22.9,3.3c0.5-0.5,1-1,1.5-1.5
		C666.2,717,656.8,716.2,649.2,719.9z"/>
	<path id="тень_В" class="st19" d="M662,716.5c5.9-0.1,11.7,1,12.9,3.8c-52.8,53.7-94.2,74.6-159.3,85.9
		c-3.1-2-4.6-4.6-4.9-7.4C555,803.4,647.9,752,662,716.5z"/>
</g>
<g id="П_труба">
	<path id="база_1_" class="st17" d="M751.1,719c-5.1-3.2-22.7-3.8-24.9,1.3c52.8,53.7,94.2,74.6,159.3,85.9
		c8-5.2,5.5-14.2-1.8-19.3C834,780.1,779.3,750,751.1,719z"/>
	<path id="_x32_6_1_" class="st18" d="M887.4,790.4c3.2,3.9,4.1,8.8,1.4,12.7C889.8,798.6,889.7,794,887.4,790.4z"/>
	<path id="_x32_5_1_" class="st18" d="M880.3,786.4c0.5,0.1,1.1,0.2,1.6,0.2c4.8,4.7,7.3,14,2.6,19.4c-0.6-0.1-1.2-0.2-1.9-0.3
		C886.5,800.1,884.7,792.2,880.3,786.4z"/>
	<path id="_x32_4_1_" class="st18" d="M875.8,785.6c0.9,0.2,1.8,0.3,2.7,0.5c1.7,6.4,4.4,12.8,2.4,19.3c-1.4-0.3-2.8-0.5-4.2-0.8
		C879.9,798.5,880.3,791,875.8,785.6z"/>
	<path id="_x32_3_1_" class="st18" d="M871,784.7c0.6,0.1,1.1,0.2,1.7,0.3c3,6,3.3,13.3,0.6,18.9c-1.1-0.2-2.1-0.4-3.2-0.6
		C873.7,797.5,874.3,790.4,871,784.7z"/>
	<path id="_x32_2_1_" class="st18" d="M864.2,783.1c0.6,0.1,1.1,0.3,1.7,0.4c1.3,6.2-0.8,12.4-0.9,18.6c-0.7-0.2-1.3-0.3-2-0.5
		C864.8,795.7,864.2,789.7,864.2,783.1z"/>
	<path id="_x32_1_1_" class="st18" d="M859.8,781.9c0.8,0.2,1.6,0.4,2.5,0.6c0.3,6.5-2.1,12.4-0.2,18.8c-0.7-0.2-1.3-0.3-2-0.5
		C858.7,794.6,857.8,788.3,859.8,781.9z"/>
	<path id="_x32_0_1_" class="st18" d="M851,779.4c1.3,0.4,2.5,0.8,3.8,1.2c-1.2,7.4,0.9,14.1,4,20.1c-0.5-0.1-1.1-0.3-1.6-0.4
		C854.2,793.6,852.5,786.5,851,779.4z"/>
	<path id="_x31_9_1_" class="st18" d="M843.5,776.8c1,7.8,2.8,15,6.9,21.6c-1.4-0.4-2.8-0.8-4.1-1.2c-3.8-5.6-4.1-13.9-4.1-20.9
		C842.6,776.5,843,776.7,843.5,776.8z"/>
	<path id="_x31_8_1_" class="st18" d="M840.7,775.8c0.5,0.2,1,0.4,1.5,0.5c0,7,0.3,15.3,4.1,20.9c-0.4-0.1-0.7-0.2-1.1-0.3
		C842.1,790.3,839.9,783.1,840.7,775.8z"/>
	<path id="_x31_7_1_" class="st18" d="M834.6,773.5c0.4,0.2,0.9,0.4,1.3,0.5c-3.2,6.5,1.8,14.4,4.9,21.6c-1.3-0.4-2.7-0.9-4-1.3
		C833.8,787.7,831.4,780.1,834.6,773.5z"/>
	<path id="_x31_6_1_" class="st18" d="M830.6,771.9c0.6,0.2,1.2,0.5,1.8,0.7c-2.7,6.9-1.4,14.3,1,20.5c-0.6-0.2-1.3-0.4-1.9-0.7
		C828.4,785.7,826.9,778,830.6,771.9z"/>
	<path id="_x31_5_1_" class="st18" d="M824.7,769.4c0.5,0.2,1,0.4,1.5,0.6c-5.2,5.8-1.2,14.5,1.6,21.1c-0.9-0.4-1.9-0.7-2.8-1.1
		C821.4,783.3,817.9,774.1,824.7,769.4z"/>
	<path id="_x31_4.5_1_" class="st18" d="M819.8,767.1c0.6,0.3,1.1,0.5,1.7,0.8c-4.4,5.9-2.9,13.2-1.8,20c-0.7-0.3-1.3-0.6-2-0.8
		C816.4,780.2,817.3,774,819.8,767.1z"/>
	<path id="_x31_4_1_" class="st18" d="M818.9,766.7c0.3,0.1,0.6,0.3,0.9,0.4c-2.5,6.9-3.3,13.1-2,19.9c-0.2-0.1-0.5-0.2-0.7-0.3
		C813.9,780.5,814.8,772.6,818.9,766.7z"/>
	<path id="_x31_3_1_" class="st18" d="M807.5,782.3c1.1-6.6,3-12,6.4-18c0.3,0.2,0.6,0.3,0.9,0.5c-2.2,6.3-4.9,12.6-4.7,18.9
		C809.3,783.2,808.4,782.8,807.5,782.3z"/>
	<path id="_x31_2_1_" class="st18" d="M809.5,762c1,0.5,2,1,2.9,1.5c-4.6,3.7-10.5,9.1-10.4,16c-0.6-0.3-1.3-0.7-1.9-1
		C799.3,772.1,804,766.6,809.5,762z"/>
	<path id="_x31_1_1_" class="st18" d="M801.4,757.6c0.5,0.3,0.9,0.5,1.4,0.8c-4.9,5.3-4,12.1-5.9,18.4c-0.5-0.3-1.1-0.6-1.6-0.9
		C795.1,769.1,796.7,762.1,801.4,757.6z"/>
	<path id="_x31_0_1_" class="st18" d="M786.5,770.6c1.1-6.1,3.1-12.6,8-17c1.1,0.7,2.3,1.4,3.5,2.1c-5,4.4-8.4,10.4-7.9,17.1
		C788.9,772,787.7,771.3,786.5,770.6z"/>
	<path id="_x39__1_" class="st18" d="M787.7,749.3c0.4,0.3,0.8,0.5,1.3,0.8c-4.4,4.7-4.2,11.3-7.1,17.5c-0.7-0.5-1.5-1-2.2-1.5
		C780.5,759.7,781.7,753.3,787.7,749.3z"/>
	<path id="_x38__1_" class="st18" d="M780.7,744.6c0.7,0.5,1.4,1,2.2,1.5c-7.1,1.1-8.6,8.7-11.1,14.5c-1.2-0.9-2.4-1.8-3.6-2.7
		C769.9,752.1,775,746.3,780.7,744.6z"/>
	<path id="_x37__1_" class="st18" d="M769.8,736.3c0.9,0.7,1.8,1.4,2.7,2.1c-5.8,1.8-9.7,8-10.9,14.3c-1.2-1-2.5-2-3.7-3.1
		C760.5,744.3,764.1,737.9,769.8,736.3z"/>
	<path id="_x36__1_" class="st18" d="M764.8,732.2c0.7,0.6,1.4,1.2,2.1,1.8c-5.6,2.7-9.8,7.8-11.7,13.5c-0.5-0.4-1-0.9-1.5-1.3
		C755.7,740.1,758.7,734.9,764.8,732.2z"/>
	<path id="_x35__1_" class="st18" d="M759.5,727.4c0.8,0.8,1.7,1.5,2.5,2.3c-4.8,3.9-9.6,7.7-12.2,13.1c-0.5-0.5-1.1-1-1.6-1.5
		C751.6,736.1,754.5,731.1,759.5,727.4z"/>
	<path id="_x34__1_" class="st18" d="M756.2,724.3c0.3,0.3,0.5,0.5,0.8,0.8c-5.6,1.9-10.3,7.4-12.5,13c-0.4-0.4-0.9-0.8-1.3-1.2
		C745.9,731,749.7,726.2,756.2,724.3z"/>
	<path id="_x33__1_" class="st18" d="M754,722c0.3,0.3,0.6,0.6,0.9,1c-6.8,0.7-11.8,5.7-13.9,11.9c-1.2-1.1-2.4-2.2-3.6-3.4
		C742,726.5,747.2,722.5,754,722z"/>
	<path id="_x32__1_" class="st18" d="M753,721c0.2,0.2,0.4,0.4,0.6,0.7c-6.8-1.6-13.9,2.5-19.7,6.4c-0.6-0.6-1.2-1.2-1.7-1.7
		C736.6,720.1,745.6,720.1,753,721z"/>
	<path id="_x31__1_" class="st18" d="M751.9,719.9c0.2,0.2,0.3,0.4,0.5,0.6c-8-2.7-16.8-1.8-22.9,3.3c-0.5-0.5-1-1-1.5-1.5
		C735,717,744.3,716.2,751.9,719.9z"/>
	<path id="тень_В_1_" class="st19" d="M739.1,716.5c-5.9-0.1-11.7,1-12.9,3.8c52.8,53.7,94.2,74.6,159.3,85.9
		c3.1-2,4.6-4.6,4.9-7.4C846.2,803.4,753.2,752,739.1,716.5z"/>
</g>
<g id="голова">
	<g id="коса">
		<path id="XMLID_35_" class="st20" d="M980.8,285.1c35.3,23.2,19.8,56.8,14.6,75.3c40.6,14.3,3.3,78.3-15.3,87.2
			c33.6,20-7.6,57.4-22.9,66.5c24.1,11.4-9.7,41.9-31.3,44.8c34.7,17.7-18.5,32.8-29.8,41.1c42.4,12.2-37.4,41.1-37.4,41.1
			l-15.5-3.4c0,0-0.9-77.5,25.1-62.1c0-14.2,1.1-63.7,26.5-45.7c-5.8-10.3-31.2-66.5,10.1-56.5c-12.9-11.3-44.1-45.1,2.2-45.1
			C908.6,388,940.5,285.1,980.8,285.1z"/>
		<path id="_x36__2_" class="st21" d="M871.3,585.2c0,0-13.8,0.6-15.3,6.9c-2,6,5.4,20.6,11.1,27.2c2.6,3-14.5,18.8-15.1,18.5
			c0,0,32.6-16.2,38.2-22c2.3-2.4,3.6-12.3,3.6-12.3s-4.1,8.1-6.4,10.3c-2.5,2.3-11,5.1-14.9,3.7c-8.8-3.2-14.2-21.4-13.2-27.5
			C860,585.7,871.3,585.2,871.3,585.2z"/>
		<path id="_x35__2_" class="st21" d="M893.3,536.9c0,0-16.7,4.7-18.5,11.3c-2.4,6.3,8,25.4,15.8,32.7c3.7,3.4-18.6,19.4-19.4,19
			c0,0,43-15.7,50.2-21.6c3-2.5,4.3-13,4.3-13s-5.1,8.5-8.2,10.6c-3.3,2.3-14.5,5-19.8,3.3c-11.9-3.8-20.1-23.5-19-30
			C879.6,544.7,893.3,536.9,893.3,536.9z"/>
		<path id="_x34__2_" class="st21" d="M953.4,512.9c0,0,8.8,23.5-12,36.1c-10,5.5-24.7-8-32.4-16.4c0.6,5.7-1.9,23.3-1.9,36.8
			c-2.5,0.3-4.2-19.3-3.4-42.1c-4.2-5.6-12.8-28.2-11.7-30.8c1.9-4.7,18.6-8.7,18.6-8.7s-12.7,7.7-14.4,12.3
			c-1.7,4.6,10.1,20.4,13.1,24.3c6.9,8.9,19.3,25.1,29.7,20.7C946.9,541.8,953.4,512.9,953.4,512.9z"/>
		<path id="_x33__2_" class="st21" d="M972,447.8c0,0,11.1,19.8,6.6,26.8c-3.5,7.4-30.1,13-43.8,11.4c-6.4-0.8-0.5,33.4,0.6,33.9
			c0,0-25.1-53.7-26.4-65.4c-0.6-4.9,7.7-14.6,7.7-14.6s-3,11.7-2.1,16.4c0.9,5,8.8,17.8,15.1,21.5c14.3,8.3,39.4,0,44.3-6.3
			C977.5,467.2,972,447.8,972,447.8z"/>
		<path id="_x32__2_" class="st21" d="M984,365.4c0,0,12.6,22.4,8,35c-3.1,11-24,29.3-33.5,33.4c-4.2,1.8,5,23.7,5.7,23.7
			c0,0-25.6-30.8-30-41c-2-4.7-0.2-20.4-0.2-20.4s2.2,15.1,4.3,19.5c2.1,4.5,10.5,12.8,15.4,13.4c11.2,1.4,29.8-18.9,34-29.4
			C990.8,391.4,984,365.4,984,365.4z"/>
		<path id="_x31__3_" class="st21" d="M970.1,287.5c0,0,19.4,16.9,19.3,30.2c0.8,11.4-12.7,35.6-20.4,42.7
			c-3.4,3.1,12.6,20.6,13.3,20.4c0,0-34.5-20.4-42.1-28.5c-3.5-3.7-7.1-19.2-7.1-19.2s7.1,13.5,10.6,16.9c3.5,3.5,14.2,8.5,19,7.4
			c11-2.5,21.7-27.8,22.1-39.1C985.2,309.7,970.1,287.5,970.1,287.5z"/>
		<path id="XMLID_49_" class="st20" d="M843.1,629.1c-48.5,11.9-6.5,79.3,13.4,78.6c-17-34,42.1-42,7.7-68.8
			C860.4,635.6,849.5,634.3,843.1,629.1z"/>
		<path id="XMLID_51_" class="st21" d="M843.1,629.1c-30,15.7-9.1,65.3,13.4,78.6C835.4,687.5,820.6,648.8,843.1,629.1z"/>
		<path id="XMLID_52_" class="st21" d="M860.2,636.7c32.8,27-23,38.5-3.7,70.9C833.7,672.9,887.9,664.8,860.2,636.7z"/>
		<path id="XMLID_53_" class="st21" d="M846.9,631.6c-22.8,13.9-9.1,53,9.6,76.1C837.7,680.6,829.2,647,846.9,631.6z"/>
		<path id="XMLID_37_" class="st21" d="M854.1,634.5c-21.4,7.4-12.6,56.2,2.4,73.1C842.4,683.1,839.9,647,854.1,634.5z"/>
		<path id="XMLID_54_" class="st20" d="M843.4,626c-1,0.3-2.4,2.6-2,3.6c2.8,6,18.2,13.1,24.3,10.4c0.6-0.3,1.5-1.6,1.3-2.2
			C865.1,631.5,849.7,624.1,843.4,626z"/>
	</g>
	<path id="XMLID_59_" class="st22" d="M700.4,89c-131.4,0-209.3,95.9-219,194.4c-4.8,49.1-30.3,62.1-33.2,113.1
		c-4.2,72.2,69.9,192.6,252.2,192.6c108.4,0,194.4-58.3,229.1-148.9c4.4-11.6,6.6-17.5,9.3-30c0.1,0.2,0.3,0.4,0.4,0.5
		c3.8-22.5,1.9-45,6.9-67.6C945.2,202.4,886.8,89,700.4,89z"/>
	<g id="глаз_л">
		<path id="белок" class="st23" d="M635.2,363c-1.3-30.5-23.7-47-39.6-56.8c-21.6-13.4-70.6-26.2-97.8-8.9
			c-7.5,12.7,2.9,58.2,16.3,64.6C546.4,375.3,603.3,382,635.2,363z"/>
		<radialGradient id="радужка_2_" cx="590.8013" cy="339.0611" r="36.9721" gradientUnits="userSpaceOnUse">
			<stop  offset="0.5764" style="stop-color:#8DC63F"/>
			<stop  offset="1" style="stop-color:#00B9F2"/>
		</radialGradient>
		<path id="радужка" class="st24" d="M627.8,339c0,20.4-16.6,37-37,37c-20.4,0-37-16.6-37-37s18.7-36.9,39.1-36.9
			C609.7,310.1,627.8,317.1,627.8,339z"/>
		<path id="веко_в" class="st25" d="M492.4,306.6c4.6,0.4,109.3-12.9,138.3,21.5c-18.5-22.7-57.8-35.9-79.7-37.8
			C523.4,285.7,478.7,289.3,492.4,306.6z"/>
		<path id="XMLID_6_" class="st25" d="M498.4,344.4c38,15.4,95.8,31.6,148.4,20.5c-22.8,12.7-78.1,15.6-98,10.6
			C527.7,370.1,502.7,367,498.4,344.4z"/>
		<circle id="XMLID_5_" cx="590.8" cy="339.1" r="16.1"/>
		
			<ellipse id="XMLID_8_" transform="matrix(0.9865 0.1637 -0.1637 0.9865 62.5531 -89.5595)" class="st26" cx="574.7" cy="334.8" rx="11.8" ry="3.9"/>
		<ellipse id="XMLID_9_" class="st23" cx="606.9" cy="342.1" rx="4.8" ry="3.9"/>
		<linearGradient id="XMLID_58_" gradientUnits="userSpaceOnUse" x1="529.7843" y1="362.1419" x2="571.1671" y2="290.4649">
			<stop  offset="0" style="stop-color:#603913"/>
			<stop  offset="1" style="stop-color:#8B5E3C"/>
		</linearGradient>
		<path id="XMLID_26_" class="st27" d="M626.7,324.1c-16.8-19.4-108.3-35.6-137.2-22c-3.2,20.9,3.9,43.7,16.5,45.3
			c-14-21.3-14.2-43.3,11.1-42.3C547.7,302.1,598.7,312.3,626.7,324.1z"/>
	</g>
	<g id="глаз_п">
		<path id="белок_1_" class="st23" d="M708.7,368.8c7.1-29.8,34-42.2,52.7-49.1c25.5-9.4,80-13.4,105.7,8.4
			c5.6,13.9-13.9,56.9-29.3,60.8C800.8,396.5,739.1,393.1,708.7,368.8z"/>
		
			<radialGradient id="радужка_3_" cx="814.696" cy="354.7944" r="36.9721" gradientTransform="matrix(-0.9848 -0.1736 -0.1736 0.9848 1675.6632 146.6015)" gradientUnits="userSpaceOnUse">
			<stop  offset="0.5764" style="stop-color:#8DC63F"/>
			<stop  offset="1" style="stop-color:#00B9F2"/>
		</radialGradient>
		<path id="радужка_1_" class="st28" d="M775.3,348.1c-3.5,20.1,9.9,39.3,30,42.8c20.1,3.5,39.3-9.9,42.8-30
			c3.5-20.1-12-39.6-32.1-43.2C798.2,322.7,779.1,326.5,775.3,348.1z"/>
		<circle id="XMLID_29_" cx="811.7" cy="354.5" r="16.1"/>
		
			<ellipse id="XMLID_27_" transform="matrix(-0.9848 -0.1736 0.1736 -0.9848 1580.5074 852.9296)" class="st23" cx="827.6" cy="357.3" rx="4.8" ry="3.9"/>
		
			<ellipse id="XMLID_28_" transform="matrix(-0.9848 -0.1736 0.1736 -0.9848 1518.6392 836.3521)" class="st26" cx="795.9" cy="351.7" rx="11.8" ry="3.9"/>
		<path id="веко_в_1_" class="st25" d="M870.8,338.3c-4.6-0.4-105.4-31.7-139.9-2.8c22.2-19.1,63.1-25.3,85.1-23.4
			C843.9,312.3,887.3,323.5,870.8,338.3z"/>
		<path id="XMLID_30_" class="st25" d="M858.4,374.4c-40.1,8.6-99.8,14.5-149.7-5.6c20.2,16.5,74.2,29,94.7,27.5
			C825,394.6,850.2,395.9,858.4,374.4z"/>
		<linearGradient id="XMLID_60_" gradientUnits="userSpaceOnUse" x1="793.8862" y1="365.8616" x2="824.5305" y2="312.7841">
			<stop  offset="0" style="stop-color:#603913"/>
			<stop  offset="1" style="stop-color:#8B5E3C"/>
		</linearGradient>
		<path id="XMLID_25_" class="st29" d="M735.5,332.2c19.9-16.2,115.4-15.3,136.3,10c11.8,21.9-8.8,34.5-21.5,33.9
			c17.5-18.5,13.7-30-3.6-43.6C817.1,324.2,765.1,325.4,735.5,332.2z"/>
	</g>
	<g id="губанос">
		<path id="XMLID_31_" class="st30" d="M616.8,500.7c8.6-15,23-17.4,26.2-17.6c4.8-0.7,12.4,5.2,12.4,5.2s8.4-5.9,15.8-5.9
			c17.2,4.3,32.3,19.4,64.2,8.3c-0.6,3.5-15.5,12.4-21.9,13.7c-9.8,1.9-29.1-1.9-39.7-3.7c-13.4,2.8-21.2,2.8-33.7,0.7
			C634.2,502.5,627.8,503.6,616.8,500.7z"/>
		<path id="нос" class="st31" d="M652.5,370.6c-11,24.1-28.7,29.9-29.9,39.1c-1.2,8.1,0.8,16.4,24.1,18.5c5.6,0.1,17,0,21.5-5.5
			c10.6-14-9.2,0.9-20.3-1.2c-5.2-1-25.9-2.3-14.6-17.1C641.6,396.2,651,386.2,652.5,370.6z"/>
		
			<linearGradient id="бровь_л_x5C__2_" gradientUnits="userSpaceOnUse" x1="556.4124" y1="300.3635" x2="589.7186" y2="242.6754">
			<stop  offset="0" style="stop-color:#603913"/>
			<stop  offset="1" style="stop-color:#8B5E3C"/>
		</linearGradient>
		<path id="бровь_л_x5C_" class="st32" d="M640.4,288.9c-12.6-11.6-41.5-18.1-56.3-20.3c-21.2-3.1-55.1-5-85.7-1.8
			c33.4-15.8,55.4-16.8,76.4-15.5c15.8,1,49.7,7.2,60.4,18.8C638.5,273.7,641.7,282.8,640.4,288.9z"/>
		
			<linearGradient id="бровь_л_x5C__3_" gradientUnits="userSpaceOnUse" x1="790.8177" y1="329.6875" x2="829.6454" y2="262.4358">
			<stop  offset="0" style="stop-color:#603913"/>
			<stop  offset="1" style="stop-color:#8B5E3C"/>
		</linearGradient>
		<path id="бровь_л_x5C__1_" class="st33" d="M740,300.3c13.8-10.2,43.2-13.6,58.2-14.1c21.4-0.8,55.3,1,85.4,7.4
			c-31.5-19.3-53.3-22.7-74.3-23.6c-15.8-0.7-50.2,1.8-62.1,12.2C743.5,285.4,739.4,294.1,740,300.3z"/>
		<path id="XMLID_33_" class="st31" d="M633.1,514.1c5.3,11.8,16.5,5.4,23.9,3.9c7,2.5,16.5,3.4,25.9-3.9c-12.6,4.4-26.6,0-26.6,0
			S646,520,633.1,514.1z"/>
	</g>
	<g id="волосы">
		<path id="XMLID_34_" class="st20" d="M520.1,178.8c73.4-62.4,302.7-1.1,363.4,3c26.5,10.5,19.8,89.6,29.6,118.5
			c4.5,13.5,33.1,46.2,33.1,46.2l3.4-2.3l4.1-1.9l3.8-0.8l4,0.5l3.9,2l2.6,2.5c28.8-79.1,10.9-173.1-61.1-227.1
			C796.8,36.9,570.6,59.6,520.1,178.8z"/>
		<path id="XMLID_36_" class="st21" d="M525,175.1l31.5-45.8l-7.7,28.4l26.6-43.1l-13.7,38.9l36.1-52L579.9,148l35.9-54.9l-22,52.5
			L646,82.7l-31.5,59.2l62.5-66.3l-44.2,66.5l66.7-69.7l-51.2,70l72.4-71.7l-52.7,72.7L740,70.4l-47.2,74.2l64.6-73.7
			c0,0-39.9,75.5-41.2,75.5c-1.3,0,74.3-72.2,74.3-72.2l-53.1,75.9l78.6-71l-58.7,73.1L846,87.8l-64.2,65.5l93.4-53.2l-74.5,57.9
			l93.6-47.2l-70,54.9l90.3-40.1l-62.7,42l75.8-29.9l-57.7,32.8l67.8-21.7l-49.4,26.5l58.3-15l-44.1,21.2l53.4-6.7l-46.3,20
			l53.8-5.4L913,208.4h58c0,0-56.4,10.4-56.4,11.2c0,0.8,60,0.9,60,0.9l-56.6,14.4l59.8,1.6l-61.1,13.1l62.7-5l-59,25.4l60.5-9.9
			l-58.1,22.1l58.5-5.2l-54.8,20.6l54.4-11.1l-52.2,23.8l50.9-11.1l-43.6,20.9l42.2-11.6l-33.8,24.3l29.4-4.1l-27.5,18l24.4-16.9
			l-33.7,5.8l37.7-25.5l-47,13.6l45.4-22.1l-53,11.5l53.5-24.2l-60,12.7l61.9-23.3l-65.8,5.7l63.3-21.7l-64.6,10.7l65.1-26.7
			l-67,5.1l63.4-14l-64.9-1.6l64.8-14.5l-66.7,0l56-11.5l-58.2,0.3l53.7-18.4L897,198l50.4-20.7l-57.6,8.8l46.1-22.1l-60,17.1
			l48.4-26.9L853.5,178l59.2-33.1l-73.9,30.7l64.7-43.6l-88.2,39.6l65.4-52.1L788.5,167l63.8-51.8l-83.5,48.6l59.9-60.7l-79,57.8
			l50.1-64.5l-69,61.9l44.8-66.1l-66.2,63.5l39.2-72.1l-62.1,69.8l44.9-72.8l-69.3,71.1l42-62l-62.5,61.3l41.8-59l-56.9,59
			l33.3-53.2l-53.3,54l31.7-57.2l-49,58.9l20.1-47.6l-32.6,49.5l15.3-44l-33.4,48.2l11.7-35.2l-23.4,39l6.1-27.2L525,175.1z"/>
	</g>
	<path id="XMLID_55_" class="st22" d="M935.5,408.3c13.4,29.9,42.2-18.4,43.2-27.3c1.1-10.1,13-37.8-17.4-42.6
		C938.2,334.9,927.2,384.6,935.5,408.3z"/>
	<path id="XMLID_56_" class="st34" d="M945,379.6c-6.7-1.7-2.7-21.9,5.1-27.3c5.7-6.9,18-6.1,22.1-2.4c2.9,2.6,5.7,13.4,2.5,15.5
		c-9.8,3.4-19.6,0-22.1-8.6C947.2,359.5,944.4,370.4,945,379.6z"/>
</g>
</svg>
