<?xml version="1.0" encoding="utf-8"?>
<!-- Generator: Adobe Illustrator 19.2.0, SVG Export Plug-In . SVG Version: 6.00 Build 0)  -->
<svg version="1.1" id="Слой_1" xmlns="http://www.w3.org/2000/svg" xmlns:xlink="http://www.w3.org/1999/xlink" x="0px" y="0px"
	 viewBox="0 0 700.9 1132.4" style="enable-background:new 0 0 700.9 1132.4;" xml:space="preserve">
<style type="text/css">
	.st0{fill:#999999;}
	.st1{fill:#666766;}
	.st2{opacity:0.4;enable-background:new    ;}
	.st3{fill:#7F7F7F;}
	.st4{fill:#7292CB;}
	.st5{opacity:0.1;enable-background:new    ;}
	.st6{fill:#9595C9;}
	.st7{fill:url(#XMLID_2_);}
	.st8{fill:#C6D4E2;}
	.st9{opacity:0.51;enable-background:new    ;}
	.st10{fill:#58595B;}
	.st11{fill:#7D7C7C;}
	.st12{fill:#CDCFD0;}
	.st13{fill:#013333;}
	.st14{fill:#EBF2F2;}
	.st15{fill:#ED1F24;}
	.st16{fill:#71BF44;}
	.st17{fill:#E6E7E8;}
	.st18{fill:#9B8579;}
	.st19{opacity:0.18;enable-background:new    ;}
	.st20{fill:#916939;}
	.st21{fill:#CB984D;}
	.st22{fill:#FDCD9A;}
	.st23{fill:#EFEFEF;}
	.st24{fill:url(#радужка_2_);}
	.st25{fill:#E9B685;}
	.st26{fill:#F1F2F2;}
	.st27{fill:url(#XMLID_4_);}
	.st28{fill:url(#радужка_3_);}
	.st29{fill:url(#XMLID_7_);}
	.st30{fill:#E2937A;}
	.st31{fill:#C38C62;}
	.st32{fill:url(#бровь_л_x5C__2_);}
	.st33{fill:url(#бровь_л_x5C__3_);}
	.st34{fill:#A07E60;}
</style>
<g id="прав_нога">
	<path id="п_низ_1_" class="st0" d="M394.8,987.6c16.1,43.6,45.1,114.5,87.5,142.1c14.5,4.8,24.5,2.9,34.9-3.7
		c18.5-15.3,19.2-64.4,19.2-151.2C536.4,831,344.9,852.2,394.8,987.6z"/>
	<path id="п_верх" class="st0" d="M403.4,1009c-12-29.2-17.9-45.1-25.4-69.6c-16.5-53.9-4.2-98.4,17-121.3
		c16.3-17.6,130.9-48.6,133.8-24.8c4.7,39,4.4,124.2,7.3,182.1C500.8,1024.1,447.7,1033.6,403.4,1009z"/>
	<path id="ботинок_п_1_" class="st1" d="M425.3,1058.5c15.9,32.5,31.5,54.8,57,71.3c14.5,4.8,24.5,2.9,34.9-3.7
		c12.8-10.6,17-33.2,18.4-77.5C523,1071.1,453.3,1075.7,425.3,1058.5z"/>
	<path id="тень_к" class="st2" d="M534.7,929.9c-7.9,4.2-19.4,7.3-24.5,4.2c-12.8-7.8-17.4-45.2-11.3-58.9
		c3.6-8,23.8-15.6,34.1-13.4C533.6,884.1,534.1,907.8,534.7,929.9z"/>
	<path id="карман_1_" class="st3" d="M499.7,870.5c4-9,29.4-21.3,35.8-11.5c10.3,14,14.3,47.2,6.8,61.3
		c-5.2,7.7-24.3,13.3-31.3,9.1C498.1,921.6,493.5,884.2,499.7,870.5z"/>
	<path id="стежка_к_1_" class="st1" d="M541.2,870.5c-5.8,20.4-30.3,13.6-43.9,9.4c3.5,4.1,20.2,7.5,26.3,7.4
		c-1.6,9.7,15.3,4.5,9.4-1.3C536.6,883.5,540.3,877.5,541.2,870.5z"/>
</g>
<g id="лев_нога">
	<path id="л_низ_1_" class="st0" d="M297.5,987.6c-16.1,43.6-45.1,114.5-87.5,142.1c-14.5,4.8-24.5,2.9-34.9-3.7
		c-18.5-15.3-19.2-64.4-19.2-151.2C155.9,831,347.4,852.2,297.5,987.6z"/>
	<path id="л_верх_1_" class="st0" d="M288.9,1009c12-29.2,17.9-45.1,25.4-69.6c16.5-53.9,4.2-98.4-17-121.3
		c-16.3-17.6-130.9-48.6-133.8-24.8c-4.7,39-4.4,124.2-7.3,182.1C189.5,1030,245.2,1034.9,288.9,1009z"/>
	<path id="ботинок_п" class="st1" d="M266.9,1058.7c-15.9,32.5-31.4,54.5-56.9,71.1c-14.5,4.8-25,2.9-35.5-3.7
		c-12.8-10.6-16.3-31-17.7-75.3C169.4,1073.3,238.9,1075.9,266.9,1058.7z"/>
	<path id="тень_к_1_" class="st2" d="M157.5,937.1c7.9,4.2,19.4,7.3,24.5,4.2c12.8-7.8,17.4-45.2,11.3-58.9
		c-3.6-8-23.8-15.6-34.1-13.4C158.6,891.3,158.1,915,157.5,937.1z"/>
	<path id="карман" class="st3" d="M193.3,876.1c-4-9-29.4-21.3-35.8-11.5c-10.3,14-14.3,47.2-6.8,61.3
		c5.2,7.7,24.3,13.3,31.3,9.1C194.8,927.3,199.4,889.8,193.3,876.1z"/>
	<path id="стежка_к" class="st1" d="M151.7,876.1c5.8,20.4,30.3,13.6,43.9,9.4c-3.5,4.1-20.2,7.5-26.3,7.4
		c1.6,9.7-15.3,4.5-9.4-1.3C156.3,889.1,152.6,883.1,151.7,876.1z"/>
</g>
<g id="прав_рука">
	<path id="XMLID_11_" class="st0" d="M447.5,485.6c29.3,16.7,235.4,144.9,253.4,172.9c0,8.7-3.8,15.6-11.9,15.6
		c-43.8-5.6-203.2-24.2-251.7-46.6C405.1,612.6,416.2,502.5,447.5,485.6z"/>
	<path id="XMLID_15_" class="st4" d="M513.1,525.7c0,0,5.8,48.8,5.2,65.1c-0.5,13.6-8,54-8,54l-17.3-3.5c0,0,6.5-46,6.9-61.5
		c0.4-16.3-4.1-65-4.1-65L513.1,525.7z"/>
	<path id="XMLID_16_" class="st1" d="M683.2,640.4c0,0-11.4,4.4-14.5,12.3c-4,10.3-1,18.6-1,18.6l-74.4-10c0,0,1.5-20.6,8.9-33.9
		c8.8-15.9,30.3-24.1,30.3-24.1c1.5,1,24.8,17.4,39.8,28.6L683.2,640.4z"/>
	<path id="XMLID_19_" class="st4" d="M595.7,579.1c2.9,1.9,5.7,3.8,8.5,5.7c-23,20.4-31.3,31.6-39,72.3c-2.3-0.4-4.7-0.7-7-1.1
		C558.2,624.1,570.4,597.6,595.7,579.1z"/>
	<path id="XMLID_18_" class="st4" d="M613.7,591.2c2.9,1.9,5.7,3.9,8.5,5.8c-21.8,12.6-36.5,32.2-41.9,62.5
		c-2.4-0.4-4.9-0.7-7.3-1.1C577.7,631.6,590.2,609.6,613.7,591.2z"/>
	<path id="XMLID_20_" class="st5" d="M516,612.4c43.5,22.2,148.5,41.3,184.9,46.9c-0.2,8.3-4,14.8-11.8,14.8
		c-43.8-5.6-203.2-24.2-251.7-46.6c-21-9.7-23.6-59.6-14.3-98C431.3,538.1,470.5,589.1,516,612.4z"/>
</g>
<g id="лев_рука">
	<path id="XMLID_46_" class="st0" d="M253.4,485.6C224.1,502.3,18,630.5,0,658.5c0,8.7,3.8,15.6,11.9,15.6
		c43.8-5.6,203.2-24.2,251.6-46.6C295.8,612.6,284.7,502.5,253.4,485.6z"/>
	<path id="XMLID_45_" class="st4" d="M181.8,529.5c0,0-5.8,48.8-5.2,65.1c0.5,13.6,8,54,8,54l17.3-3.5c0,0-6.5-46-6.9-61.5
		c-0.4-16.3,4.1-65,4.1-65L181.8,529.5z"/>
	<path id="XMLID_44_" class="st4" d="M105.2,579.1c-2.9,1.9-5.7,3.8-8.5,5.7c23,20.4,31.3,31.6,39,72.3c2.3-0.4,4.7-0.7,7-1.1
		C142.7,624,130.5,597.5,105.2,579.1z"/>
	<path id="XMLID_43_" class="st4" d="M87.2,591.2c-2.9,1.9-5.7,3.9-8.5,5.8c21.8,12.6,36.5,32.2,41.9,62.5c2.4-0.4,4.9-0.7,7.3-1.1
		C123.2,631.6,110.7,609.6,87.2,591.2z"/>
	<path id="XMLID_42_" class="st1" d="M18.8,640.4c0,0,11.4,4.4,14.5,12.3c4,10.3,1,18.6,1,18.6l74.4-10c0,0-1.5-20.6-8.9-33.9
		c-8.8-15.9-30.3-24.1-30.3-24.1c-1.5,1-24.8,17.4-39.8,28.6L18.8,640.4z"/>
	<path id="XMLID_41_" class="st6" d="M85.9,633.3c-4.1-9.6-14.9-18.9-25.4-23.7c-7.4,5.2-18,12.9-27,19.4
		c14.6,6.7,19.2,24.6,19.2,24.6S75.8,644.7,85.9,633.3z"/>
	
		<radialGradient id="XMLID_2_" cx="59" cy="648.1" r="19.4039" gradientTransform="matrix(1 0 0 -1 0 1277.2)" gradientUnits="userSpaceOnUse">
		<stop  offset="0.1182" style="stop-color:#1DBFD3"/>
		<stop  offset="0.9409" style="stop-color:#001331"/>
	</radialGradient>
	<path id="XMLID_23_" class="st7" d="M57.1,646.6c8.8-3.5,15.9-7.5,23-13c-5.5-9.4-13.2-17.1-22.4-22c-5.4,3.9-13.4,9.6-19.8,14.2
		C47,629,53.6,637.9,57.1,646.6z"/>
	<path id="XMLID_40_" class="st5" d="M184.9,612.4C141.4,634.6,36.4,653.7,0,659.3c0.2,8.3,4,14.8,11.8,14.8
		c43.8-5.6,203.2-24.2,251.7-46.6c21-9.7,23.6-59.6,14.3-98C269.6,538.1,230.5,589.1,184.9,612.4z"/>
</g>
<g id="тело_1_">
	<path id="XMLID_14_" class="st0" d="M515,630.5c-8-36.4-52.1-122-79.3-154.2c-30.9-36.6-141.1-39.7-172.2-3.2
		c-34.5,40.5-81,122-86.8,157.5c-8.8,53.6-29.1,171.3,0,217.1c16.6,38.6,131.7,74.2,173.7,74.2c43.4,0,141.8-38.9,164.7-74.2
		C544.5,802,526.6,683.5,515,630.5z"/>
	<path id="XMLID_3_" class="st4" d="M161.8,784.6c0,0,62.9,16.7,99.1,42.2c42.6,30.1,67.6,92.9,67.6,92.9l-9.4-1.7
		c0,0-29.9-61.2-63.7-83.1c-38.6-25.1-91.9-41.6-91.9-41.6L161.8,784.6z"/>
	<path id="XMLID_12_" class="st4" d="M531.1,784.6c0,0-62.9,16.7-99.1,42.2c-42.6,30.1-67.6,92.9-67.6,92.9l9.4-1.7
		c0,0,29.9-61.2,63.7-83.1c38.6-25.1,91.9-41.6,91.9-41.6L531.1,784.6z"/>
</g>
<g id="блок">
	<polygon id="XMLID_50_" class="st8" points="346.3,638.3 351.2,638.3 351,838.9 346.3,838.9 	"/>
	<path id="тень" class="st9" d="M381.6,647.5c-5.1-3.2-17.1-5.1-19.4,0c52.8,53.7,102.9,84.6,167.9,95.9
		c0.1-12.3-2.9-14.2-3.2-18.2C477.2,718.4,409.8,678.6,381.6,647.5z"/>
	<path id="тень_1_" class="st9" d="M310.8,648.6c5.1-3.2,17.1-5.1,19.4,0c-52.8,53.7-102.9,84.6-167.9,95.9
		c-0.1-12.3,2.9-14.2,3.2-18.2C215.2,719.4,282.6,679.6,310.8,648.6z"/>
	<path id="XMLID_13_" class="st10" d="M272.7,464.8c45.5,28.9,80,132.6,73.6,144.8c-11.5-12-46.3-94.1-87-131.5
		C257.9,464.7,265.1,459.2,272.7,464.8z"/>
	<path id="XMLID_10_" class="st10" d="M425.6,464.8c-45.5,28.9-80,132.6-73.6,144.8c11.5-12,46.3-94.1,87-131.5
		C440.3,464.7,433.2,459.2,425.6,464.8z"/>
	<polygon id="XMLID_17_" class="st11" points="284.4,644.8 418,644.8 408.5,651.3 294,651.3 	"/>
	<rect id="XMLID_24_" x="284.4" y="574.4" class="st12" width="133.6" height="70.4"/>
	<rect id="XMLID_21_" x="295.8" y="587.8" class="st13" width="60" height="30.3"/>
	<rect id="XMLID_22_" x="369.7" y="587.8" class="st14" width="37.5" height="37.5"/>
	<circle id="XMLID_38_" class="st15" cx="397.8" cy="596.9" r="5.7"/>
	<circle id="XMLID_39_" class="st16" cx="379.3" cy="596.9" r="5.7"/>
	<circle id="XMLID_47_" class="st15" cx="397.8" cy="618.1" r="5.9"/>
	<circle id="XMLID_48_" class="st15" cx="379.3" cy="618.1" r="5.7"/>
</g>
<g id="лев_труба">
	<path id="база_2_" class="st17" d="M297.2,648.6c5.1-3.2,22.7-3.8,24.9,1.3c-52.8,53.7-94.2,74.6-159.3,85.9
		c-8-5.2-5.5-14.2,1.8-19.3C214.3,709.7,269,679.6,297.2,648.6z"/>
	<path id="_x32_6" class="st18" d="M160.9,720c-3.2,3.9-4.1,8.8-1.4,12.7C158.4,728.2,158.5,723.6,160.9,720z"/>
	<path id="_x32_5" class="st18" d="M168,716c-0.5,0.1-1.1,0.2-1.6,0.2c-4.8,4.7-7.3,14-2.6,19.4c0.6-0.1,1.2-0.2,1.9-0.3
		C161.7,729.7,163.6,721.8,168,716z"/>
	<path id="_x32_4" class="st18" d="M172.5,715.2c-0.9,0.2-1.8,0.3-2.7,0.5c-1.7,6.4-4.4,12.8-2.4,19.3c1.4-0.3,2.8-0.5,4.2-0.8
		C168.3,728.1,167.9,720.6,172.5,715.2z"/>
	<path id="_x32_3" class="st18" d="M177.2,714.3c-0.6,0.1-1.1,0.2-1.7,0.3c-3,6-3.3,13.3-0.6,18.9c1.1-0.2,2.1-0.4,3.2-0.6
		C174.5,727.1,174,720,177.2,714.3z"/>
	<path id="_x32_2" class="st18" d="M184.1,712.7c-0.6,0.1-1.1,0.3-1.7,0.4c-1.3,6.2,0.8,12.4,0.9,18.6c0.7-0.2,1.3-0.3,2-0.5
		C183.4,725.3,184,719.3,184.1,712.7z"/>
	<path id="_x32_1" class="st18" d="M188.4,711.5c-0.8,0.2-1.6,0.4-2.5,0.6c-0.3,6.5,2.1,12.4,0.2,18.8c0.7-0.2,1.3-0.3,2-0.5
		C189.6,724.2,190.5,717.9,188.4,711.5z"/>
	<path id="_x32_0" class="st18" d="M197.2,709c-1.3,0.4-2.5,0.8-3.8,1.2c1.2,7.4-0.9,14.1-4,20.1c0.5-0.1,1.1-0.3,1.6-0.4
		C194,723.2,195.7,716.1,197.2,709z"/>
	<path id="_x31_9" class="st18" d="M204.8,706.4c-1,7.8-2.8,15-6.9,21.6c1.4-0.4,2.8-0.8,4.1-1.2c3.8-5.6,4.1-13.9,4.1-20.9
		C205.7,706.1,205.2,706.3,204.8,706.4z"/>
	<path id="_x31_8" class="st18" d="M207.6,705.4c-0.5,0.2-1,0.4-1.5,0.5c0,7-0.3,15.3-4.1,20.9c0.4-0.1,0.7-0.2,1.1-0.3
		C206.2,719.9,208.4,712.7,207.6,705.4z"/>
	<path id="_x31_7" class="st18" d="M213.6,703.1c-0.4,0.2-0.9,0.4-1.3,0.5c3.2,6.5-1.8,14.4-4.9,21.6c1.3-0.4,2.7-0.9,4-1.3
		C214.5,717.3,216.8,709.7,213.6,703.1z"/>
	<path id="_x31_6" class="st18" d="M217.6,701.5c-0.6,0.2-1.2,0.5-1.8,0.7c2.7,6.9,1.4,14.3-1,20.5c0.6-0.2,1.3-0.4,1.9-0.7
		C219.8,715.3,221.3,707.6,217.6,701.5z"/>
	<path id="_x31_5" class="st18" d="M223.6,699c-0.5,0.2-1,0.4-1.5,0.6c5.2,5.8,1.2,14.5-1.6,21.1c0.9-0.4,1.9-0.7,2.8-1.1
		C226.8,712.9,230.4,703.7,223.6,699z"/>
	<path id="_x31_4.5" class="st18" d="M228.5,696.7c-0.6,0.3-1.1,0.5-1.7,0.8c4.4,5.9,2.9,13.2,1.8,20c0.7-0.3,1.3-0.6,2-0.8
		C231.8,709.8,230.9,703.6,228.5,696.7z"/>
	<path id="_x31_4" class="st18" d="M229.4,696.3c-0.3,0.1-0.6,0.3-0.9,0.4c2.5,6.9,3.3,13.1,2,19.9c0.2-0.1,0.5-0.2,0.7-0.3
		C234.4,710.1,233.4,702.2,229.4,696.3z"/>
	<path id="_x31_3" class="st18" d="M240.7,711.9c-1.1-6.6-3-12-6.4-18c-0.3,0.2-0.6,0.3-0.9,0.5c2.2,6.3,4.9,12.6,4.7,18.9
		C238.9,712.8,239.8,712.4,240.7,711.9z"/>
	<path id="_x31_2" class="st18" d="M238.7,691.6c-1,0.5-2,1-2.9,1.5c4.6,3.7,10.5,9.1,10.4,16c0.6-0.3,1.3-0.7,1.9-1
		C248.9,701.7,244.2,696.2,238.7,691.6z"/>
	<path id="_x31_1" class="st18" d="M246.8,687.2c-0.5,0.3-0.9,0.5-1.4,0.8c4.9,5.3,4,12.1,5.9,18.4c0.5-0.3,1.1-0.6,1.6-0.9
		C253.1,698.7,251.6,691.7,246.8,687.2z"/>
	<path id="_x31_0" class="st18" d="M261.7,700.2c-1.1-6.1-3.1-12.6-8-17c-1.1,0.7-2.3,1.4-3.5,2.1c5,4.4,8.4,10.4,7.9,17.1
		C259.4,701.6,260.5,700.9,261.7,700.2z"/>
	<path id="_x39_" class="st18" d="M260.5,678.9c-0.4,0.3-0.8,0.5-1.3,0.8c4.4,4.7,4.2,11.3,7.1,17.5c0.7-0.5,1.5-1,2.2-1.5
		C267.8,689.3,266.5,682.9,260.5,678.9z"/>
	<path id="_x38_" class="st18" d="M267.5,674.2c-0.7,0.5-1.4,1-2.2,1.5c7.1,1.1,8.6,8.7,11.1,14.5c1.2-0.9,2.4-1.8,3.6-2.7
		C278.3,681.7,273.2,675.9,267.5,674.2z"/>
	<path id="_x37_" class="st18" d="M278.5,665.9c-0.9,0.7-1.8,1.4-2.7,2.1c5.8,1.8,9.7,8,10.9,14.3c1.2-1,2.5-2,3.7-3.1
		C287.7,673.9,284.2,667.5,278.5,665.9z"/>
	<path id="_x36_" class="st18" d="M283.4,661.8c-0.7,0.6-1.4,1.2-2.1,1.8c5.6,2.7,9.8,7.8,11.7,13.5c0.5-0.4,1-0.9,1.5-1.3
		C292.6,669.7,289.6,664.5,283.4,661.8z"/>
	<path id="_x35_" class="st18" d="M288.7,657c-0.8,0.8-1.7,1.5-2.5,2.3c4.8,3.9,9.6,7.7,12.2,13.1c0.5-0.5,1.1-1,1.6-1.5
		C296.7,665.7,293.8,660.7,288.7,657z"/>
	<path id="_x34_" class="st18" d="M292,653.9c-0.3,0.3-0.5,0.5-0.8,0.8c5.6,1.9,10.3,7.4,12.5,13c0.4-0.4,0.9-0.8,1.3-1.2
		C302.3,660.6,298.6,655.8,292,653.9z"/>
	<path id="_x33_" class="st18" d="M294.3,651.6c-0.3,0.3-0.6,0.6-0.9,1c6.8,0.7,11.8,5.7,13.9,11.9c1.2-1.1,2.4-2.2,3.6-3.4
		C306.3,656.1,301,652.1,294.3,651.6z"/>
	<path id="_x32_" class="st18" d="M295.3,650.6c-0.2,0.2-0.4,0.4-0.6,0.7c6.8-1.6,13.9,2.5,19.7,6.4c0.6-0.6,1.2-1.2,1.7-1.7
		C311.6,649.7,302.7,649.7,295.3,650.6z"/>
	<path id="_x31_" class="st18" d="M296.3,649.5c-0.2,0.2-0.3,0.4-0.5,0.6c8-2.7,16.8-1.8,22.9,3.3c0.5-0.5,1-1,1.5-1.5
		C313.3,646.6,303.9,645.8,296.3,649.5z"/>
	<path id="тень_В" class="st19" d="M309.1,646.1c5.9-0.1,11.7,1,12.9,3.8c-52.8,53.7-94.2,74.6-159.3,85.9
		c-3.1-2-4.6-4.6-4.9-7.4C202.1,733,295,681.6,309.1,646.1z"/>
</g>
<g id="П_труба">
	<path id="база_1_" class="st17" d="M398.2,648.6c-5.1-3.2-22.7-3.8-24.9,1.3c52.8,53.7,94.2,74.6,159.3,85.9
		c8-5.2,5.5-14.2-1.8-19.3C481.1,709.7,426.4,679.6,398.2,648.6z"/>
	<path id="_x32_6_1_" class="st18" d="M534.5,720c3.2,3.9,4.1,8.8,1.4,12.7C536.9,728.2,536.8,723.6,534.5,720z"/>
	<path id="_x32_5_1_" class="st18" d="M527.4,716c0.5,0.1,1.1,0.2,1.6,0.2c4.8,4.7,7.3,14,2.6,19.4c-0.6-0.1-1.2-0.2-1.9-0.3
		C533.6,729.7,531.8,721.8,527.4,716z"/>
	<path id="_x32_4_1_" class="st18" d="M522.9,715.2c0.9,0.2,1.8,0.3,2.7,0.5c1.7,6.4,4.4,12.8,2.4,19.3c-1.4-0.3-2.8-0.5-4.2-0.8
		C527,728.1,527.4,720.6,522.9,715.2z"/>
	<path id="_x32_3_1_" class="st18" d="M518.1,714.3c0.6,0.1,1.1,0.2,1.7,0.3c3,6,3.3,13.3,0.6,18.9c-1.1-0.2-2.1-0.4-3.2-0.6
		C520.8,727.1,521.4,720,518.1,714.3z"/>
	<path id="_x32_2_1_" class="st18" d="M511.3,712.7c0.6,0.1,1.1,0.3,1.7,0.4c1.3,6.2-0.8,12.4-0.9,18.6c-0.7-0.2-1.3-0.3-2-0.5
		C511.9,725.3,511.3,719.3,511.3,712.7z"/>
	<path id="_x32_1_1_" class="st18" d="M506.9,711.5c0.8,0.2,1.6,0.4,2.5,0.6c0.3,6.5-2.1,12.4-0.2,18.8c-0.7-0.2-1.3-0.3-2-0.5
		C505.8,724.2,504.9,717.9,506.9,711.5z"/>
	<path id="_x32_0_1_" class="st18" d="M498.1,709c1.3,0.4,2.5,0.8,3.8,1.2c-1.2,7.4,0.9,14.1,4,20.1c-0.5-0.1-1.1-0.3-1.6-0.4
		C501.3,723.2,499.6,716.1,498.1,709z"/>
	<path id="_x31_9_1_" class="st18" d="M490.6,706.4c1,7.8,2.8,15,6.9,21.6c-1.4-0.4-2.8-0.8-4.1-1.2c-3.8-5.6-4.1-13.9-4.1-20.9
		C489.7,706.1,490.1,706.3,490.6,706.4z"/>
	<path id="_x31_8_1_" class="st18" d="M487.8,705.4c0.5,0.2,1,0.4,1.5,0.5c0,7,0.3,15.3,4.1,20.9c-0.4-0.1-0.7-0.2-1.1-0.3
		C489.2,719.9,487,712.7,487.8,705.4z"/>
	<path id="_x31_7_1_" class="st18" d="M481.7,703.1c0.4,0.2,0.9,0.4,1.3,0.5c-3.2,6.5,1.8,14.4,4.9,21.6c-1.3-0.4-2.7-0.9-4-1.3
		C480.9,717.3,478.5,709.7,481.7,703.1z"/>
	<path id="_x31_6_1_" class="st18" d="M477.7,701.5c0.6,0.2,1.2,0.5,1.8,0.7c-2.7,6.9-1.4,14.3,1,20.5c-0.6-0.2-1.3-0.4-1.9-0.7
		C475.5,715.3,474,707.6,477.7,701.5z"/>
	<path id="_x31_5_1_" class="st18" d="M471.8,699c0.5,0.2,1,0.4,1.5,0.6c-5.2,5.8-1.2,14.5,1.6,21.1c-0.9-0.4-1.9-0.7-2.8-1.1
		C468.5,712.9,465,703.7,471.8,699z"/>
	<path id="_x31_4.5_1_" class="st18" d="M466.9,696.7c0.6,0.3,1.1,0.5,1.7,0.8c-4.4,5.9-2.9,13.2-1.8,20c-0.7-0.3-1.3-0.6-2-0.8
		C463.5,709.8,464.4,703.6,466.9,696.7z"/>
	<path id="_x31_4_1_" class="st18" d="M466,696.3c0.3,0.1,0.6,0.3,0.9,0.4c-2.5,6.9-3.3,13.1-2,19.9c-0.2-0.1-0.5-0.2-0.7-0.3
		C461,710.1,461.9,702.2,466,696.3z"/>
	<path id="_x31_3_1_" class="st18" d="M454.6,711.9c1.1-6.6,3-12,6.4-18c0.3,0.2,0.6,0.3,0.9,0.5c-2.2,6.3-4.9,12.6-4.7,18.9
		C456.4,712.8,455.5,712.4,454.6,711.9z"/>
	<path id="_x31_2_1_" class="st18" d="M456.6,691.6c1,0.5,2,1,2.9,1.5c-4.6,3.7-10.5,9.1-10.4,16c-0.6-0.3-1.3-0.7-1.9-1
		C446.4,701.7,451.1,696.2,456.6,691.6z"/>
	<path id="_x31_1_1_" class="st18" d="M448.5,687.2c0.5,0.3,0.9,0.5,1.4,0.8c-4.9,5.3-4,12.1-5.9,18.4c-0.5-0.3-1.1-0.6-1.6-0.9
		C442.2,698.7,443.8,691.7,448.5,687.2z"/>
	<path id="_x31_0_1_" class="st18" d="M433.6,700.2c1.1-6.1,3.1-12.6,8-17c1.1,0.7,2.3,1.4,3.5,2.1c-5,4.4-8.4,10.4-7.9,17.1
		C436,701.6,434.8,700.9,433.6,700.2z"/>
	<path id="_x39__1_" class="st18" d="M434.8,678.9c0.4,0.3,0.8,0.5,1.3,0.8c-4.4,4.7-4.2,11.3-7.1,17.5c-0.7-0.5-1.5-1-2.2-1.5
		C427.6,689.3,428.8,682.9,434.8,678.9z"/>
	<path id="_x38__1_" class="st18" d="M427.8,674.2c0.7,0.5,1.4,1,2.2,1.5c-7.1,1.1-8.6,8.7-11.1,14.5c-1.2-0.9-2.4-1.8-3.6-2.7
		C417,681.7,422.1,675.9,427.8,674.2z"/>
	<path id="_x37__1_" class="st18" d="M416.9,665.9c0.9,0.7,1.8,1.4,2.7,2.1c-5.8,1.8-9.7,8-10.9,14.3c-1.2-1-2.5-2-3.7-3.1
		C407.6,673.9,411.2,667.5,416.9,665.9z"/>
	<path id="_x36__1_" class="st18" d="M411.9,661.8c0.7,0.6,1.4,1.2,2.1,1.8c-5.6,2.7-9.8,7.8-11.7,13.5c-0.5-0.4-1-0.9-1.5-1.3
		C402.8,669.7,405.8,664.5,411.9,661.8z"/>
	<path id="_x35__1_" class="st18" d="M406.6,657c0.8,0.8,1.7,1.5,2.5,2.3c-4.8,3.9-9.6,7.7-12.2,13.1c-0.5-0.5-1.1-1-1.6-1.5
		C398.7,665.7,401.6,660.7,406.6,657z"/>
	<path id="_x34__1_" class="st18" d="M403.3,653.9c0.3,0.3,0.5,0.5,0.8,0.8c-5.6,1.9-10.3,7.4-12.5,13c-0.4-0.4-0.9-0.8-1.3-1.2
		C393,660.6,396.8,655.8,403.3,653.9z"/>
	<path id="_x33__1_" class="st18" d="M401.1,651.6c0.3,0.3,0.6,0.6,0.9,1c-6.8,0.7-11.8,5.7-13.9,11.9c-1.2-1.1-2.4-2.2-3.6-3.4
		C389.1,656.1,394.3,652.1,401.1,651.6z"/>
	<path id="_x32__1_" class="st18" d="M400.1,650.6c0.2,0.2,0.4,0.4,0.6,0.7c-6.8-1.6-13.9,2.5-19.7,6.4c-0.6-0.6-1.2-1.2-1.7-1.7
		C383.7,649.7,392.7,649.7,400.1,650.6z"/>
	<path id="_x31__1_" class="st18" d="M399,649.5c0.2,0.2,0.3,0.4,0.5,0.6c-8-2.7-16.8-1.8-22.9,3.3c-0.5-0.5-1-1-1.5-1.5
		C382.1,646.6,391.4,645.8,399,649.5z"/>
	<path id="тень_В_1_" class="st19" d="M386.2,646.1c-5.9-0.1-11.7,1-12.9,3.8c52.8,53.7,94.2,74.6,159.3,85.9
		c3.1-2,4.6-4.6,4.9-7.4C493.3,733,400.3,681.6,386.2,646.1z"/>
</g>
<g id="голова">
	<g id="коса">
		<path id="XMLID_35_" class="st20" d="M627.9,214.7c35.3,23.2,19.8,56.8,14.6,75.3c40.6,14.3,3.3,78.3-15.3,87.2
			c33.6,20-7.6,57.4-22.9,66.5c24.1,11.4-9.7,41.9-31.3,44.8c34.7,17.7-18.5,32.8-29.8,41.1c42.4,12.2-37.4,41.1-37.4,41.1
			l-15.5-3.4c0,0-0.9-77.5,25.1-62.1c0-14.2,1.1-63.7,26.5-45.7c-5.8-10.3-31.2-66.5,10.1-56.5c-12.9-11.3-44.1-45.1,2.2-45.1
			C555.7,317.6,587.6,214.7,627.9,214.7z"/>
		<path id="_x36__2_" class="st21" d="M518.4,514.8c0,0-13.8,0.6-15.3,6.9c-2,6,5.4,20.6,11.1,27.2c2.6,3-14.5,18.8-15.1,18.5
			c0,0,32.6-16.2,38.2-22c2.3-2.4,3.6-12.3,3.6-12.3s-4.1,8.1-6.4,10.3c-2.5,2.3-11,5.1-14.9,3.7c-8.8-3.2-14.2-21.4-13.2-27.5
			C507.1,515.3,518.4,514.8,518.4,514.8z"/>
		<path id="_x35__2_" class="st21" d="M540.4,466.5c0,0-16.7,4.7-18.5,11.3c-2.4,6.3,8,25.4,15.8,32.7c3.7,3.4-18.6,19.4-19.4,19
			c0,0,43-15.7,50.2-21.6c3-2.5,4.3-13,4.3-13s-5.1,8.5-8.2,10.6c-3.3,2.3-14.5,5-19.8,3.3c-11.9-3.8-20.1-23.5-19-30
			C526.7,474.3,540.4,466.5,540.4,466.5z"/>
		<path id="_x34__2_" class="st21" d="M600.5,442.5c0,0,8.8,23.5-12,36.1c-10,5.5-24.7-8-32.4-16.4c0.6,5.7-1.9,23.3-1.9,36.8
			c-2.5,0.3-4.2-19.3-3.4-42.1c-4.2-5.6-12.8-28.2-11.7-30.8c1.9-4.7,18.6-8.7,18.6-8.7s-12.7,7.7-14.4,12.3
			c-1.7,4.6,10.1,20.4,13.1,24.3c6.9,8.9,19.3,25.1,29.7,20.7C594,471.4,600.5,442.5,600.5,442.5z"/>
		<path id="_x33__2_" class="st21" d="M619.1,377.4c0,0,11.1,19.8,6.6,26.8c-3.5,7.4-30.1,13-43.8,11.4c-6.4-0.8-0.5,33.4,0.6,33.9
			c0,0-25.1-53.7-26.4-65.4c-0.6-4.9,7.7-14.6,7.7-14.6s-3,11.7-2.1,16.4c0.9,5,8.8,17.8,15.1,21.5c14.3,8.3,39.4,0,44.3-6.3
			C624.6,396.8,619.1,377.4,619.1,377.4z"/>
		<path id="_x32__2_" class="st21" d="M631.1,295c0,0,12.6,22.4,8,35c-3.1,11-24,29.3-33.5,33.4c-4.2,1.8,5,23.7,5.7,23.7
			c0,0-25.6-30.8-30-41c-2-4.7-0.2-20.4-0.2-20.4s2.2,15.1,4.3,19.5c2.1,4.5,10.5,12.8,15.4,13.4c11.2,1.4,29.8-18.9,34-29.4
			C637.9,321,631.1,295,631.1,295z"/>
		<path id="_x31__3_" class="st21" d="M617.2,217.1c0,0,19.4,16.9,19.3,30.2c0.8,11.4-12.7,35.6-20.4,42.7
			c-3.4,3.1,12.6,20.6,13.3,20.4c0,0-34.5-20.4-42.1-28.5c-3.5-3.7-7.1-19.2-7.1-19.2s7.1,13.5,10.6,16.9c3.5,3.5,14.2,8.5,19,7.4
			c11-2.5,21.7-27.8,22.1-39.1C632.3,239.3,617.2,217.1,617.2,217.1z"/>
		<path id="XMLID_49_" class="st20" d="M490.2,558.7c-48.5,11.9-6.5,79.3,13.4,78.6c-17-34,42.1-42,7.7-68.8
			C507.5,565.2,496.6,563.9,490.2,558.7z"/>
		<path id="XMLID_51_" class="st21" d="M490.2,558.7c-30,15.7-9.1,65.3,13.4,78.6C482.5,617.1,467.7,578.4,490.2,558.7z"/>
		<path id="XMLID_52_" class="st21" d="M507.3,566.3c32.8,27-23,38.5-3.7,70.9C480.8,602.5,535,594.4,507.3,566.3z"/>
		<path id="XMLID_53_" class="st21" d="M494,561.2c-22.8,13.9-9.1,53,9.6,76.1C484.8,610.2,476.3,576.6,494,561.2z"/>
		<path id="XMLID_37_" class="st21" d="M501.2,564.1c-21.4,7.4-12.6,56.2,2.4,73.1C489.5,612.7,487,576.6,501.2,564.1z"/>
		<path id="XMLID_54_" class="st20" d="M490.5,555.6c-1,0.3-2.4,2.6-2,3.6c2.8,6,18.2,13.1,24.3,10.4c0.6-0.3,1.5-1.6,1.3-2.2
			C512.2,561.1,496.8,553.7,490.5,555.6z"/>
	</g>
	<path id="XMLID_59_" class="st22" d="M347.5,18.6c-131.4,0-209.3,95.9-219,194.4c-4.8,49.1-30.3,62.1-33.2,113.1
		c-4.2,72.2,69.9,192.6,252.2,192.6c108.4,0,194.4-58.3,229.1-148.9c4.4-11.6,6.6-17.5,9.3-30c0.1,0.2,0.3,0.4,0.4,0.5
		c3.8-22.5,1.9-45,6.9-67.6C592.3,132,533.9,18.6,347.5,18.6z"/>
	<g id="глаз_л">
		<path id="белок" class="st23" d="M282.3,292.6c-1.3-30.5-23.7-47-39.6-56.8c-21.6-13.4-70.6-26.2-97.8-8.9
			c-7.5,12.7,2.9,58.2,16.3,64.6C193.5,304.9,250.4,311.6,282.3,292.6z"/>
		
			<radialGradient id="радужка_2_" cx="237.9" cy="1008.55" r="36.975" gradientTransform="matrix(1 0 0 -1 0 1277.2)" gradientUnits="userSpaceOnUse">
			<stop  offset="0.5764" style="stop-color:#8DC63F"/>
			<stop  offset="1" style="stop-color:#00B9F2"/>
		</radialGradient>
		<path id="радужка" class="st24" d="M274.9,268.6c0,20.4-16.6,37-37,37s-37-16.6-37-37s18.7-36.9,39.1-36.9
			C256.8,239.7,274.9,246.7,274.9,268.6z"/>
		<path id="веко_в" class="st25" d="M139.5,236.2c4.6,0.4,109.3-12.9,138.3,21.5c-18.5-22.7-57.8-35.9-79.7-37.8
			C170.5,215.3,125.8,218.9,139.5,236.2z"/>
		<path id="XMLID_6_" class="st25" d="M145.5,274c38,15.4,95.8,31.6,148.4,20.5c-22.8,12.7-78.1,15.6-98,10.6
			C174.8,299.7,149.8,296.6,145.5,274z"/>
		<circle id="XMLID_5_" cx="237.9" cy="268.7" r="16.1"/>
		
			<ellipse id="XMLID_8_" transform="matrix(0.1637 -0.9865 0.9865 0.1637 -75.3514 439.9125)" class="st26" cx="221.8" cy="264.4" rx="3.9" ry="11.8"/>
		<ellipse id="XMLID_9_" class="st23" cx="254" cy="271.7" rx="4.8" ry="3.9"/>
		
			<linearGradient id="XMLID_4_" gradientUnits="userSpaceOnUse" x1="176.8786" y1="985.4459" x2="218.2754" y2="1057.1472" gradientTransform="matrix(1 0 0 -1 0 1277.2)">
			<stop  offset="0" style="stop-color:#603913"/>
			<stop  offset="1" style="stop-color:#8B5E3C"/>
		</linearGradient>
		<path id="XMLID_26_" class="st27" d="M273.8,253.7c-16.8-19.4-108.3-35.6-137.2-22c-3.2,20.9,3.9,43.7,16.5,45.3
			c-14-21.3-14.2-43.3,11.1-42.3C194.8,231.7,245.8,241.9,273.8,253.7z"/>
	</g>
	<g id="глаз_п">
		<path id="белок_1_" class="st23" d="M355.8,298.4c7.1-29.8,34-42.2,52.7-49.1c25.5-9.4,80-13.4,105.7,8.4
			c5.6,13.9-13.9,56.9-29.3,60.8C447.9,326.1,386.2,322.7,355.8,298.4z"/>
		
			<radialGradient id="радужка_3_" cx="1316.0916" cy="918.0948" r="36.9373" gradientTransform="matrix(-0.9848 -0.1736 0.1736 -0.9848 1595.4951 1416.7729)" gradientUnits="userSpaceOnUse">
			<stop  offset="0.5764" style="stop-color:#8DC63F"/>
			<stop  offset="1" style="stop-color:#00B9F2"/>
		</radialGradient>
		<path id="радужка_1_" class="st28" d="M422.4,277.7c-3.5,20.1,9.9,39.3,30,42.8s39.3-9.9,42.8-30s-12-39.6-32.1-43.2
			C445.3,252.3,426.2,256.1,422.4,277.7z"/>
		<circle id="XMLID_29_" cx="458.8" cy="284.1" r="16.1"/>
		
			<ellipse id="XMLID_27_" transform="matrix(0.1736 -0.9848 0.9848 0.1736 109.5884 704.5748)" class="st23" cx="474.6" cy="287" rx="3.9" ry="4.8"/>
		
			<ellipse id="XMLID_28_" transform="matrix(0.1736 -0.9848 0.9848 0.1736 88.9309 668.8382)" class="st26" cx="443" cy="281.4" rx="3.9" ry="11.8"/>
		<path id="веко_в_1_" class="st25" d="M517.9,267.9c-4.6-0.4-105.4-31.7-139.9-2.8c22.2-19.1,63.1-25.3,85.1-23.4
			C491,241.9,534.4,253.1,517.9,267.9z"/>
		<path id="XMLID_30_" class="st25" d="M505.5,304c-40.1,8.6-99.8,14.5-149.7-5.6c20.2,16.5,74.2,29,94.7,27.5
			C472.1,324.2,497.3,325.5,505.5,304z"/>
		
			<linearGradient id="XMLID_7_" gradientUnits="userSpaceOnUse" x1="440.9933" y1="981.6866" x2="471.624" y2="1034.7407" gradientTransform="matrix(1 0 0 -1 0 1277.2)">
			<stop  offset="0" style="stop-color:#603913"/>
			<stop  offset="1" style="stop-color:#8B5E3C"/>
		</linearGradient>
		<path id="XMLID_25_" class="st29" d="M382.6,261.8c19.9-16.2,115.4-15.3,136.3,10c11.8,21.9-8.8,34.5-21.5,33.9
			c17.5-18.5,13.7-30-3.6-43.6C464.2,253.8,412.2,255,382.6,261.8z"/>
	</g>
	<g id="губанос">
		<path id="XMLID_31_" class="st30" d="M263.9,430.3c8.6-15,23-17.4,26.2-17.6c4.8-0.7,12.4,5.2,12.4,5.2s8.4-5.9,15.8-5.9
			c17.2,4.3,32.3,19.4,64.2,8.3c-0.6,3.5-15.5,12.4-21.9,13.7c-9.8,1.9-29.1-1.9-39.7-3.7c-13.4,2.8-21.2,2.8-33.7,0.7
			C281.3,432.1,274.9,433.2,263.9,430.3z"/>
		<path id="нос" class="st31" d="M299.6,300.2c-11,24.1-28.7,29.9-29.9,39.1c-1.2,8.1,0.8,16.4,24.1,18.5c5.6,0.1,17,0,21.5-5.5
			c10.6-14-9.2,0.9-20.3-1.2c-5.2-1-25.9-2.3-14.6-17.1C288.7,325.8,298.1,315.8,299.6,300.2z"/>
		
			<linearGradient id="бровь_л_x5C__2_" gradientUnits="userSpaceOnUse" x1="203.5348" y1="1047.2936" x2="236.8505" y2="1104.998" gradientTransform="matrix(1 0 0 -1 0 1277.2)">
			<stop  offset="0" style="stop-color:#603913"/>
			<stop  offset="1" style="stop-color:#8B5E3C"/>
		</linearGradient>
		<path id="бровь_л_x5C_" class="st32" d="M287.5,218.5c-12.6-11.6-41.5-18.1-56.3-20.3c-21.2-3.1-55.1-5-85.7-1.8
			c33.4-15.8,55.4-16.8,76.4-15.5c15.8,1,49.7,7.2,60.4,18.8C285.6,203.3,288.8,212.4,287.5,218.5z"/>
		
			<linearGradient id="бровь_л_x5C__3_" gradientUnits="userSpaceOnUse" x1="437.9394" y1="1017.9479" x2="476.7802" y2="1085.2223" gradientTransform="matrix(1 0 0 -1 0 1277.2)">
			<stop  offset="0" style="stop-color:#603913"/>
			<stop  offset="1" style="stop-color:#8B5E3C"/>
		</linearGradient>
		<path id="бровь_л_x5C__1_" class="st33" d="M387.1,229.9c13.8-10.2,43.2-13.6,58.2-14.1c21.4-0.8,55.3,1,85.4,7.4
			c-31.5-19.3-53.3-22.7-74.3-23.6c-15.8-0.7-50.2,1.8-62.1,12.2C390.6,215,386.5,223.7,387.1,229.9z"/>
		<path id="XMLID_33_" class="st31" d="M280.2,443.7c5.3,11.8,16.5,5.4,23.9,3.9c7,2.5,16.5,3.4,25.9-3.9c-12.6,4.4-26.6,0-26.6,0
			S293.1,449.6,280.2,443.7z"/>
	</g>
	<g id="волосы">
		<path id="XMLID_34_" class="st20" d="M167.2,108.4c73.4-62.4,302.7-1.1,363.4,3c26.5,10.5,19.8,89.6,29.6,118.5
			c4.5,13.5,33.1,46.2,33.1,46.2l3.4-2.3l4.1-1.9l3.8-0.8l4,0.5l3.9,2l2.6,2.5C643.9,197,626,103,554,49
			C443.9-33.5,217.7-10.8,167.2,108.4z"/>
		<path id="XMLID_36_" class="st21" d="M172.1,104.7l31.5-45.8l-7.7,28.4l26.6-43.1l-13.7,38.9l36.1-52L227,77.6l35.9-54.9l-22,52.5
			l52.2-62.9l-31.5,59.2l62.5-66.3l-44.2,66.5L346.6,2l-51.2,70l72.4-71.7L315.1,73l72-73l-47.2,74.2l64.6-73.7
			c0,0-39.9,75.5-41.2,75.5s74.3-72.2,74.3-72.2l-53.1,75.9l78.6-71l-58.7,73.1l88.7-64.4l-64.2,65.5l93.4-53.2l-74.5,57.9
			l93.6-47.2l-70,54.9l90.3-40.1l-62.7,42l75.8-29.9l-57.7,32.8l67.8-21.7l-49.4,26.5l58.3-15l-44.1,21.2l53.4-6.7l-46.3,20
			l53.8-5.4l-50.5,19h58c0,0-56.4,10.4-56.4,11.2c0,0.8,60,0.9,60,0.9l-56.6,14.4l59.8,1.6l-61.1,13.1l62.7-5l-59,25.4l60.5-9.9
			l-58.1,22.1l58.5-5.2l-54.8,20.6l54.4-11.1l-52.2,23.8l50.9-11.1l-43.6,20.9l42.2-11.6l-33.8,24.3l29.4-4.1l-27.5,18l24.4-16.9
			l-33.7,5.8l37.7-25.5l-47,13.6l45.4-22.1l-53,11.5l53.5-24.2l-60,12.7l61.9-23.3l-65.8,5.7l63.3-21.7l-64.6,10.7l65.1-26.7
			l-67,5.1l63.4-14l-64.9-1.6l64.8-14.5h-66.7l56-11.5l-58.2,0.3l53.7-18.4l-57.6,6.3l50.4-20.7l-57.6,8.8L583,93.6l-60,17.1
			l48.4-26.9l-70.8,23.8l59.2-33.1l-73.9,30.7l64.7-43.6l-88.2,39.6l65.4-52.1l-92.2,47.5l63.8-51.8l-83.5,48.6l59.9-60.7l-79,57.8
			L446.9,26l-69,61.9l44.8-66.1l-66.2,63.5l39.2-72.1L333.6,83l44.9-72.8l-69.3,71.1l42-62l-62.5,61.3l41.8-59l-56.9,59l33.3-53.2
			l-53.3,54l31.7-57.2l-49,58.9l20.1-47.6L223.8,85l15.3-44l-33.4,48.2L217.4,54L194,93l6.1-27.2L172.1,104.7z"/>
	</g>
	<path id="XMLID_55_" class="st22" d="M582.6,337.9c13.4,29.9,42.2-18.4,43.2-27.3c1.1-10.1,13-37.8-17.4-42.6
		C585.3,264.5,574.3,314.2,582.6,337.9z"/>
	<path id="XMLID_56_" class="st34" d="M592.1,309.2c-6.7-1.7-2.7-21.9,5.1-27.3c5.7-6.9,18-6.1,22.1-2.4c2.9,2.6,5.7,13.4,2.5,15.5
		c-9.8,3.4-19.6,0-22.1-8.6C594.3,289.1,591.5,300,592.1,309.2z"/>
</g>
</svg>
