<?xml version="1.0" encoding="utf-8"?>
<!-- Generator: Adobe Illustrator 19.0.0, SVG Export Plug-In . SVG Version: 6.00 Build 0)  -->
<svg version="1.1" xmlns="http://www.w3.org/2000/svg" xmlns:xlink="http://www.w3.org/1999/xlink" x="0px" y="0px"
	 viewBox="0 0 863.2 1202.8" style="enable-background:new 0 0 863.2 1202.8;" xml:space="preserve">
<style type="text/css">
	.st0{fill:#999999;}
	.st1{fill:#666766;}
	.st2{opacity:0.4;}
	.st3{fill:#7F7F7F;}
	.st4{fill:#7292CB;}
	.st5{opacity:0.1;}
	.st6{fill:#9595C9;}
	.st7{fill:url(#XMLID_116_);}
	.st8{fill:url(#XMLID_117_);}
	.st9{fill:#C6D4E2;}
	.st10{opacity:0.51;}
	.st11{fill:#58595B;}
	.st12{fill:#7D7C7C;}
	.st13{fill:#CDCFD0;}
	.st14{fill:#013333;}
	.st15{fill:#EBF2F2;}
	.st16{fill:#ED1F24;}
	.st17{fill:#71BF44;}
	.st18{fill:#E6E7E8;}
	.st19{fill:#9B8579;}
	.st20{opacity:0.18;}
	.st21{fill:#FDCD9A;}
	.st22{fill:#F4F4F4;}
	.st23{fill:url(#XMLID_118_);}
	.st24{fill:#F1F2F2;}
	.st25{fill:#E5B47F;}
	.st26{opacity:0.27;}
	.st27{fill:url(#XMLID_119_);}
	.st28{fill:#8E7754;}
	.st29{display:none;fill:url(#XMLID_120_);}
	.st30{fill:#5C4628;}
	.st31{fill:#65869B;}
	.st32{fill:#A58872;}
	.st33{fill:#422A1A;}
	.st34{fill:#A07E60;}
</style>
<g id="прав_нога">
	<path id="п_низ_1_" class="st0" d="M460.9,1058c16.1,43.6,45.1,114.5,87.5,142.1c14.5,4.8,24.5,2.9,34.9-3.7
		c18.5-15.3,19.2-64.4,19.2-151.2C602.5,901.4,411,922.6,460.9,1058z"/>
	<path id="п_верх" class="st0" d="M469.5,1079.4c-12-29.2-17.9-45.1-25.4-69.6c-16.5-53.9-4.2-98.4,17-121.3
		c16.3-17.6,130.9-48.6,133.8-24.8c4.7,39,4.4,124.2,7.3,182.1C566.9,1094.5,513.8,1104,469.5,1079.4z"/>
	<path id="ботинок_п_1_" class="st1" d="M491.4,1128.9c15.9,32.5,31.5,54.8,57,71.3c14.5,4.8,24.5,2.9,34.9-3.7
		c12.8-10.6,17-33.2,18.4-77.5C589.1,1141.5,519.4,1146.1,491.4,1128.9z"/>
	<path id="тень_к" class="st2" d="M600.9,1000.3c-7.9,4.2-19.4,7.3-24.5,4.2c-12.8-7.8-17.4-45.2-11.3-58.9
		c3.6-8,23.8-15.6,34.1-13.4C599.7,954.5,600.2,978.2,600.9,1000.3z"/>
	<path id="карман_1_" class="st3" d="M565.8,940.9c4-9,29.4-21.3,35.8-11.5c10.3,14,14.3,47.2,6.8,61.3
		c-5.2,7.7-24.3,13.3-31.3,9.1C564.3,992,559.7,954.6,565.8,940.9z"/>
	<path id="стежка_к_1_" class="st1" d="M607.3,940.9c-5.8,20.4-30.3,13.6-43.9,9.4c3.5,4.1,20.2,7.5,26.3,7.4
		c-1.6,9.7,15.3,4.5,9.4-1.3C602.8,953.9,606.4,947.9,607.3,940.9z"/>
</g>
<g id="лев_нога">
	<path id="л_низ_1_" class="st0" d="M363.6,1058c-16.1,43.6-45.1,114.5-87.5,142.1c-14.5,4.8-24.5,2.9-34.9-3.7
		c-18.5-15.3-19.2-64.4-19.2-151.2C222,901.4,413.5,922.6,363.6,1058z"/>
	<path id="л_верх_1_" class="st0" d="M355,1079.4c12-29.2,17.9-45.1,25.4-69.6c16.5-53.9,4.2-98.4-17-121.3
		c-16.3-17.6-130.9-48.6-133.8-24.8c-4.7,39-4.4,124.2-7.3,182.1C255.6,1100.4,311.3,1105.3,355,1079.4z"/>
	<path id="ботинок_п" class="st1" d="M333,1129.1c-15.9,32.5-31.4,54.5-56.9,71.1c-14.5,4.8-25,2.9-35.5-3.7
		c-12.8-10.6-16.3-31-17.7-75.3C235.5,1143.7,305,1146.3,333,1129.1z"/>
	<path id="тень_к_1_" class="st2" d="M223.6,1007.5c7.9,4.2,19.4,7.3,24.5,4.2c12.8-7.8,17.4-45.2,11.3-58.9
		c-3.6-8-23.8-15.6-34.1-13.4C224.7,961.7,224.3,985.4,223.6,1007.5z"/>
	<path id="карман" class="st3" d="M259.4,946.5c-4-9-29.4-21.3-35.8-11.5c-10.3,14-14.3,47.2-6.8,61.3
		c5.2,7.7,24.3,13.3,31.3,9.1C260.9,997.7,265.5,960.2,259.4,946.5z"/>
	<path id="стежка_к" class="st1" d="M217.8,946.5c5.8,20.4,30.3,13.6,43.9,9.4c-3.5,4.1-20.2,7.5-26.3,7.4
		c1.6,9.7-15.3,4.5-9.4-1.3C222.4,959.5,218.8,953.5,217.8,946.5z"/>
</g>
<g id="лев_рука">
	<path id="XMLID_26_" class="st0" d="M299.9,544.5c-10.8,9.7-48.9,46.5-89.9,87.8c-69.1,56.2-33.9,110.5,28.2,98.5
		c42.8-17.2,83.2-35.5,102.1-49.8C368.6,659.5,334.1,554.3,299.9,544.5z"/>
	<path id="XMLID_45_" class="st4" d="M239.5,602.9c0,0,4.8,48.9,8.9,64.7c3.4,13.2,19.4,51,19.4,51l16.2-7.1
		c0,0-16.2-43.6-19.9-58.6c-3.9-15.8-10-64.3-10-64.3L239.5,602.9z"/>
	<path id="XMLID_28_" class="st5" d="M333.2,582.2c-6.2,10.1-33.5,68.4-72.9,100.9c-7.8,6.4-18.2,13.3-30.1,20.2
		c-51.7,11-34.3,36.9,8,27.5c42.8-17.2,83.2-35.5,102.1-49.8C358.7,667,350.6,617.7,333.2,582.2z"/>
	<g id="Слой_10">
		<path id="XMLID_25_" class="st0" d="M283.4,855.2c8.7-0.2,15.6-4.2,15.4-12.2c-3.6-24.2-12-84.1-22.8-140.8
			c-5.9-74.2-121.4-71.9-102.1,8.5C217.1,774.8,267.2,845.3,283.4,855.2z"/>
		<path id="XMLID_44_" class="st4" d="M201.8,751.7c2,2.8,3.9,5.6,5.8,8.4c19.9-23.4,30.9-31.9,71.5-40.5c-0.4-2.3-0.8-4.7-1.3-7
			C246,713.2,219.7,726,201.8,751.7z"/>
		<path id="XMLID_43_" class="st4" d="M214.3,769.4c2,2.8,4,5.6,6,8.4c12.2-22.1,31.4-37.2,61.6-43.3c-0.4-2.4-0.8-4.9-1.3-7.3
			C253.9,732.6,232.2,745.5,214.3,769.4z"/>
		<path id="XMLID_42_" class="st1" d="M264.9,836.8c0,0,4.1-11.5,12-14.7c10.2-4.2,18.6-1.4,18.6-1.4l-11.6-74.2
			c0,0-20.5,1.9-33.7,9.6c-15.7,9.2-23.4,30.8-23.4,30.8c1.1,1.5,17.9,24.4,29.5,39.2L264.9,836.8z"/>
		<path id="XMLID_41_" class="st6" d="M256.4,769.8c-9.5,4.3-18.6,15.3-23.2,25.9c5.4,7.3,13.2,17.8,20,26.6
			c6.4-14.7,24.2-19.7,24.2-19.7S268,779.7,256.4,769.8z"/>
		
			<radialGradient id="XMLID_116_" cx="-362.9124" cy="814.2193" r="19.382" gradientTransform="matrix(-2.112090e-002 -0.9998 0.9998 -2.112090e-002 -568.9376 451.1639)" gradientUnits="userSpaceOnUse">
			<stop  offset="0.1182" style="stop-color:#1DBFD3"/>
			<stop  offset="0.9409" style="stop-color:#001331"/>
		</radialGradient>
		<path id="XMLID_23_" class="st7" d="M270.3,798.3c-3.7-8.7-7.8-15.7-13.5-22.7c-9.3,5.7-16.8,13.6-21.6,22.8
			c4,5.4,9.9,13.2,14.6,19.5C253,808.8,261.7,802,270.3,798.3z"/>
		<path id="XMLID_27_" class="st5" d="M241.7,766.7c8.3-0.4,43,51.9,42.8,44.1c-3.6-24.2,10.8-71.6,0-128.2
			c-14.2-37.5-38.4-29-60.6-21C195,703.5,236.7,737.9,241.7,766.7z"/>
	</g>
</g>
<g id="лев_рука__x28_копия_x29_">
	<path id="XMLID_33_" class="st0" d="M525.5,553.3c10.8,9.7,48.9,46.5,89.9,87.8c69.1,56.2,33.9,110.5-28.2,98.5
		c-42.8-17.2-83.2-35.5-102.1-49.8C456.8,668.3,491.3,563.1,525.5,553.3z"/>
	<path id="XMLID_31_" class="st4" d="M585.9,611.6c0,0-4.8,48.9-8.9,64.7c-3.4,13.2-19.4,51-19.4,51l-16.2-7.1
		c0,0,16.2-43.6,19.9-58.6c3.9-15.8,10-64.3,10-64.3L585.9,611.6z"/>
	<path id="XMLID_30_" class="st5" d="M492.2,591c6.2,10.1,33.5,68.4,72.9,100.9c7.8,6.4,18.2,13.3,30.1,20.2
		c51.7,11,34.3,36.9-8,27.5c-42.8-17.2-83.2-35.5-102.1-49.8C466.8,675.8,474.9,626.5,492.2,591z"/>
	<g id="Слой_10__x28_копия_x29_">
		<path id="XMLID_16_" class="st0" d="M519.2,844.3c-6.6-2-11.1-6.4-10.2-13c0.1-0.4,0.2-0.8,0.3-1.2c7.3-23.7,24.5-81,43.4-134.8
			c0.1-0.2,0.2-0.5,0.2-0.7c13.2-55.1,64.6-66.5,87.9-27.1c0.1,0.2,0.2,0.3,0.3,0.5c1.8,2.5,3.5,4.9,5,7.3
			c11.1,17.8,8.7,41-5.6,56.4c-46.6,50.2-96.3,100.9-115.1,111.9C523.5,844.7,521.3,845,519.2,844.3z"/>
		<path id="XMLID_15_" class="st4" d="M618.6,755c-2.4,2.5-4.7,5-7,7.4c-16.2-26.2-25.8-36.2-64.6-50.8c0.8-2.2,1.5-4.5,2.3-6.7
			C580.8,710.3,604.8,726.9,618.6,755z"/>
		<path id="XMLID_11_" class="st4" d="M603.7,770.7c-2.4,2.5-4.8,5-7.1,7.4c-8.7-23.7-25.5-41.5-54.4-52c0.8-2.3,1.6-4.7,2.4-7
			C570,728.3,589.6,744.3,603.7,770.7z"/>
		<path id="XMLID_9_" class="st1" d="M543.5,829.6c0,0-2.3-12-9.6-16.4c-9.5-5.7-18.1-4.2-18.1-4.2l22.6-71.6c0,0,20,5,31.8,14.6
			c14.1,11.4,18.5,34,18.5,34c-1.3,1.3-21.4,21.4-35,34.3L543.5,829.6z"/>
		<path id="XMLID_8_" class="st6" d="M562,764.7c8.8,5.7,16.1,18,19,29.1c-6.4,6.4-15.8,15.6-23.8,23.2
			c-4.1-15.5-20.9-23.1-20.9-23.1S549,772.7,562,764.7z"/>
		
			<radialGradient id="XMLID_117_" cx="-376.4038" cy="1492.7775" r="19.382" gradientTransform="matrix(0.1712 -0.9852 -0.9852 -0.1712 2096.6841 676.7046)" gradientUnits="userSpaceOnUse">
			<stop  offset="0.1182" style="stop-color:#1DBFD3"/>
			<stop  offset="0.9409" style="stop-color:#001331"/>
		</radialGradient>
		<path id="XMLID_6_" class="st8" d="M543.9,790.8c4.9-8,10.1-14.4,16.7-20.4c8.3,7,14.6,16,17.9,25.8c-4.7,4.7-11.7,11.6-17.4,17.1
			C559.5,803.8,551.8,795.7,543.9,790.8z"/>
		<path id="XMLID_5_" class="st5" d="M576.9,763.8c-8.1-1.7-50.3,44.8-49,37.2c7.2-23.4,0.1-72.4,19.3-126.8
			c19.7-35,42.3-22.9,63-11.7C632.6,708.4,586.3,736.1,576.9,763.8z"/>
	</g>
</g>
<g id="тело_1_">
	<path id="XMLID_14_" class="st0" d="M581.1,700.9c-8-36.4-52.1-122-79.3-154.2c-30.9-36.6-141.1-39.7-172.2-3.2
		c-34.5,40.5-81,122-86.8,157.5c-8.8,53.6-29.1,171.3,0,217.1c16.6,38.6,131.7,74.2,173.7,74.2c43.4,0,141.8-38.9,164.7-74.2
		C610.6,872.4,592.7,753.9,581.1,700.9z"/>
	<path id="XMLID_3_" class="st4" d="M227.9,855c0,0,62.9,16.7,99.1,42.2c42.6,30.1,67.6,92.9,67.6,92.9l-9.4-1.7
		c0,0-29.9-61.2-63.7-83.1c-38.6-25.1-91.9-41.6-91.9-41.6L227.9,855z"/>
	<path id="XMLID_12_" class="st4" d="M597.2,855c0,0-62.9,16.7-99.1,42.2c-42.6,30.1-67.6,92.9-67.6,92.9l9.4-1.7
		c0,0,29.9-61.2,63.7-83.1c38.6-25.1,91.9-41.6,91.9-41.6L597.2,855z"/>
</g>
<g id="блок">
	<polygon id="XMLID_50_" class="st9" points="412.4,708.7 417.3,708.7 417.2,909.3 412.4,909.3 	"/>
	<path id="тень" class="st10" d="M447.7,717.9c-5.1-3.2-17.1-5.1-19.4,0c52.8,53.7,102.9,84.6,167.9,95.9
		c0.1-12.3-2.9-14.2-3.2-18.2C543.4,788.8,475.9,749,447.7,717.9z"/>
	<path id="тень_1_" class="st10" d="M376.9,719c5.1-3.2,17.1-5.1,19.4,0c-52.8,53.7-102.9,84.6-167.9,95.9
		c-0.1-12.3,2.9-14.2,3.2-18.2C281.3,789.8,348.7,750,376.9,719z"/>
	<path id="XMLID_13_" class="st11" d="M338.8,535.2c45.5,28.9,80,132.6,73.6,144.8c-11.5-12-46.3-94.1-87-131.5
		C324.1,535.1,331.2,529.6,338.8,535.2z"/>
	<path id="XMLID_10_" class="st11" d="M491.7,535.2c-45.5,28.9-80,132.6-73.6,144.8c11.5-12,46.3-94.1,87-131.5
		C506.5,535.1,499.3,529.6,491.7,535.2z"/>
	<polygon id="XMLID_17_" class="st12" points="350.6,715.2 484.1,715.2 474.7,721.7 360.1,721.7 	"/>
	<rect id="XMLID_24_" x="350.6" y="644.8" class="st13" width="133.6" height="70.4"/>
	<rect id="XMLID_21_" x="361.9" y="658.2" class="st14" width="60" height="30.3"/>
	<rect id="XMLID_22_" x="435.9" y="658.2" class="st15" width="37.5" height="37.5"/>
	<circle id="XMLID_38_" class="st16" cx="463.9" cy="667.3" r="5.7"/>
	<circle id="XMLID_39_" class="st17" cx="445.4" cy="667.3" r="5.7"/>
	<circle id="XMLID_47_" class="st16" cx="463.9" cy="688.5" r="5.9"/>
	<circle id="XMLID_48_" class="st16" cx="445.4" cy="688.5" r="5.7"/>
</g>
<g id="лев_труба">
	<path id="база_2_" class="st18" d="M363.3,719c5.1-3.2,22.7-3.8,24.9,1.3c-52.8,53.7-94.2,74.6-159.3,85.9
		c-8-5.2-5.5-14.2,1.8-19.3C280.4,780.1,335.1,750,363.3,719z"/>
	<path id="_x32_6" class="st19" d="M227,790.4c-3.2,3.9-4.1,8.8-1.4,12.7C224.5,798.6,224.6,794,227,790.4z"/>
	<path id="_x32_5" class="st19" d="M234.1,786.4c-0.5,0.1-1.1,0.2-1.6,0.2c-4.8,4.7-7.3,14-2.6,19.4c0.6-0.1,1.2-0.2,1.9-0.3
		C227.9,800.1,229.7,792.2,234.1,786.4z"/>
	<path id="_x32_4" class="st19" d="M238.6,785.6c-0.9,0.2-1.8,0.3-2.7,0.5c-1.7,6.4-4.4,12.8-2.4,19.3c1.4-0.3,2.8-0.5,4.2-0.8
		C234.5,798.5,234.1,791,238.6,785.6z"/>
	<path id="_x32_3" class="st19" d="M243.4,784.7c-0.6,0.1-1.1,0.2-1.7,0.3c-3,6-3.3,13.3-0.6,18.9c1.1-0.2,2.1-0.4,3.2-0.6
		C240.7,797.5,240.1,790.4,243.4,784.7z"/>
	<path id="_x32_2" class="st19" d="M250.2,783.1c-0.6,0.1-1.1,0.3-1.7,0.4c-1.3,6.2,0.8,12.4,0.9,18.6c0.7-0.2,1.3-0.3,2-0.5
		C249.5,795.7,250.2,789.7,250.2,783.1z"/>
	<path id="_x32_1" class="st19" d="M254.5,781.9c-0.8,0.2-1.6,0.4-2.5,0.6c-0.3,6.5,2.1,12.4,0.2,18.8c0.7-0.2,1.3-0.3,2-0.5
		C255.7,794.6,256.6,788.3,254.5,781.9z"/>
	<path id="_x32_0" class="st19" d="M263.3,779.4c-1.3,0.4-2.5,0.8-3.8,1.2c1.2,7.4-0.9,14.1-4,20.1c0.5-0.1,1.1-0.3,1.6-0.4
		C260.1,793.6,261.9,786.5,263.3,779.4z"/>
	<path id="_x31_9" class="st19" d="M270.9,776.8c-1,7.8-2.8,15-6.9,21.6c1.4-0.4,2.8-0.8,4.1-1.2c3.8-5.6,4.1-13.9,4.1-20.9
		C271.8,776.5,271.3,776.7,270.9,776.8z"/>
	<path id="_x31_8" class="st19" d="M273.7,775.8c-0.5,0.2-1,0.4-1.5,0.5c0,7-0.3,15.3-4.1,20.9c0.4-0.1,0.7-0.2,1.1-0.3
		C272.3,790.3,274.5,783.1,273.7,775.8z"/>
	<path id="_x31_7" class="st19" d="M279.8,773.5c-0.4,0.2-0.9,0.4-1.3,0.5c3.2,6.5-1.8,14.4-4.9,21.6c1.3-0.4,2.7-0.9,4-1.3
		C280.6,787.7,283,780.1,279.8,773.5z"/>
	<path id="_x31_6" class="st19" d="M283.7,771.9c-0.6,0.2-1.2,0.5-1.8,0.7c2.7,6.9,1.4,14.3-1,20.5c0.6-0.2,1.3-0.4,1.9-0.7
		C286,785.7,287.4,778,283.7,771.9z"/>
	<path id="_x31_5" class="st19" d="M289.7,769.4c-0.5,0.2-1,0.4-1.5,0.6c5.2,5.8,1.2,14.5-1.6,21.1c0.9-0.4,1.9-0.7,2.8-1.1
		C293,783.3,296.5,774.1,289.7,769.4z"/>
	<path id="_x31_4.5" class="st19" d="M294.6,767.1c-0.6,0.3-1.1,0.5-1.7,0.8c4.4,5.9,2.9,13.2,1.8,20c0.7-0.3,1.3-0.6,2-0.8
		C298,780.2,297.1,774,294.6,767.1z"/>
	<path id="_x31_4" class="st19" d="M295.5,766.7c-0.3,0.1-0.6,0.3-0.9,0.4c2.5,6.9,3.3,13.1,2,19.9c0.2-0.1,0.5-0.2,0.7-0.3
		C300.5,780.5,299.6,772.6,295.5,766.7z"/>
	<path id="_x31_3" class="st19" d="M306.8,782.3c-1.1-6.6-3-12-6.4-18c-0.3,0.2-0.6,0.3-0.9,0.5c2.2,6.3,4.9,12.6,4.7,18.9
		C305,783.2,305.9,782.8,306.8,782.3z"/>
	<path id="_x31_2" class="st19" d="M304.8,762c-1,0.5-2,1-2.9,1.5c4.6,3.7,10.5,9.1,10.4,16c0.6-0.3,1.3-0.7,1.9-1
		C315.1,772.1,310.3,766.6,304.8,762z"/>
	<path id="_x31_1" class="st19" d="M313,757.6c-0.5,0.3-0.9,0.5-1.4,0.8c4.9,5.3,4,12.1,5.9,18.4c0.5-0.3,1.1-0.6,1.6-0.9
		C319.3,769.1,317.7,762.1,313,757.6z"/>
	<path id="_x31_0" class="st19" d="M327.8,770.6c-1.1-6.1-3.1-12.6-8-17c-1.1,0.7-2.3,1.4-3.5,2.1c5,4.4,8.4,10.4,7.9,17.1
		C325.5,772,326.7,771.3,327.8,770.6z"/>
	<path id="_x39_" class="st19" d="M326.7,749.3c-0.4,0.3-0.8,0.5-1.3,0.8c4.4,4.7,4.2,11.3,7.1,17.5c0.7-0.5,1.5-1,2.2-1.5
		C333.9,759.7,332.7,753.3,326.7,749.3z"/>
	<path id="_x38_" class="st19" d="M333.7,744.6c-0.7,0.5-1.4,1-2.2,1.5c7.1,1.1,8.6,8.7,11.1,14.5c1.2-0.9,2.4-1.8,3.6-2.7
		C344.5,752.1,339.3,746.3,333.7,744.6z"/>
	<path id="_x37_" class="st19" d="M344.6,736.3c-0.9,0.7-1.8,1.4-2.7,2.1c5.8,1.8,9.7,8,10.9,14.3c1.2-1,2.5-2,3.7-3.1
		C353.8,744.3,350.3,737.9,344.6,736.3z"/>
	<path id="_x36_" class="st19" d="M349.6,732.2c-0.7,0.6-1.4,1.2-2.1,1.8c5.6,2.7,9.8,7.8,11.7,13.5c0.5-0.4,1-0.9,1.5-1.3
		C358.7,740.1,355.7,734.9,349.6,732.2z"/>
	<path id="_x35_" class="st19" d="M354.9,727.4c-0.8,0.8-1.7,1.5-2.5,2.3c4.8,3.9,9.6,7.7,12.2,13.1c0.5-0.5,1.1-1,1.6-1.5
		C362.8,736.1,359.9,731.1,354.9,727.4z"/>
	<path id="_x34_" class="st19" d="M358.2,724.3c-0.3,0.3-0.5,0.5-0.8,0.8c5.6,1.9,10.3,7.4,12.5,13c0.4-0.4,0.9-0.8,1.3-1.2
		C368.4,731,364.7,726.2,358.2,724.3z"/>
	<path id="_x33_" class="st19" d="M360.4,722c-0.3,0.3-0.6,0.6-0.9,1c6.8,0.7,11.8,5.7,13.9,11.9c1.2-1.1,2.4-2.2,3.6-3.4
		C372.4,726.5,367.1,722.5,360.4,722z"/>
	<path id="_x32_" class="st19" d="M361.4,721c-0.2,0.2-0.4,0.4-0.6,0.7c6.8-1.6,13.9,2.5,19.7,6.4c0.6-0.6,1.2-1.2,1.7-1.7
		C377.7,720.1,368.8,720.1,361.4,721z"/>
	<path id="_x31_" class="st19" d="M362.4,719.9c-0.2,0.2-0.3,0.4-0.5,0.6c8-2.7,16.8-1.8,22.9,3.3c0.5-0.5,1-1,1.5-1.5
		C379.4,717,370.1,716.2,362.4,719.9z"/>
	<path id="тень_В" class="st20" d="M375.3,716.5c5.9-0.1,11.7,1,12.9,3.8c-52.8,53.7-94.2,74.6-159.3,85.9
		c-3.1-2-4.6-4.6-4.9-7.4C268.2,803.4,361.2,752,375.3,716.5z"/>
</g>
<g id="П_труба">
	<path id="база_1_" class="st18" d="M464.3,719c-5.1-3.2-22.7-3.8-24.9,1.3c52.8,53.7,94.2,74.6,159.3,85.9
		c8-5.2,5.5-14.2-1.8-19.3C547.2,780.1,492.5,750,464.3,719z"/>
	<path id="_x32_6_1_" class="st19" d="M600.6,790.4c3.2,3.9,4.1,8.8,1.4,12.7C603.1,798.6,603,794,600.6,790.4z"/>
	<path id="_x32_5_1_" class="st19" d="M593.5,786.4c0.5,0.1,1.1,0.2,1.6,0.2c4.8,4.7,7.3,14,2.6,19.4c-0.6-0.1-1.2-0.2-1.9-0.3
		C599.7,800.1,597.9,792.2,593.5,786.4z"/>
	<path id="_x32_4_1_" class="st19" d="M589,785.6c0.9,0.2,1.8,0.3,2.7,0.5c1.7,6.4,4.4,12.8,2.4,19.3c-1.4-0.3-2.8-0.5-4.2-0.8
		C593.1,798.5,593.5,791,589,785.6z"/>
	<path id="_x32_3_1_" class="st19" d="M584.2,784.7c0.6,0.1,1.1,0.2,1.7,0.3c3,6,3.3,13.3,0.6,18.9c-1.1-0.2-2.1-0.4-3.2-0.6
		C586.9,797.5,587.5,790.4,584.2,784.7z"/>
	<path id="_x32_2_1_" class="st19" d="M577.4,783.1c0.6,0.1,1.1,0.3,1.7,0.4c1.3,6.2-0.8,12.4-0.9,18.6c-0.7-0.2-1.3-0.3-2-0.5
		C578.1,795.7,577.4,789.7,577.4,783.1z"/>
	<path id="_x32_1_1_" class="st19" d="M573.1,781.9c0.8,0.2,1.6,0.4,2.5,0.6c0.3,6.5-2.1,12.4-0.2,18.8c-0.7-0.2-1.3-0.3-2-0.5
		C571.9,794.6,571,788.3,573.1,781.9z"/>
	<path id="_x32_0_1_" class="st19" d="M564.3,779.4c1.3,0.4,2.5,0.8,3.8,1.2c-1.2,7.4,0.9,14.1,4,20.1c-0.5-0.1-1.1-0.3-1.6-0.4
		C567.5,793.6,565.7,786.5,564.3,779.4z"/>
	<path id="_x31_9_1_" class="st19" d="M556.7,776.8c1,7.8,2.8,15,6.9,21.6c-1.4-0.4-2.8-0.8-4.1-1.2c-3.8-5.6-4.1-13.9-4.1-20.9
		C555.8,776.5,556.3,776.7,556.7,776.8z"/>
	<path id="_x31_8_1_" class="st19" d="M553.9,775.8c0.5,0.2,1,0.4,1.5,0.5c0,7,0.3,15.3,4.1,20.9c-0.4-0.1-0.7-0.2-1.1-0.3
		C555.3,790.3,553.1,783.1,553.9,775.8z"/>
	<path id="_x31_7_1_" class="st19" d="M547.8,773.5c0.4,0.2,0.9,0.4,1.3,0.5c-3.2,6.5,1.8,14.4,4.9,21.6c-1.3-0.4-2.7-0.9-4-1.3
		C547,787.7,544.6,780.1,547.8,773.5z"/>
	<path id="_x31_6_1_" class="st19" d="M543.9,771.9c0.6,0.2,1.2,0.5,1.8,0.7c-2.7,6.9-1.4,14.3,1,20.5c-0.6-0.2-1.3-0.4-1.9-0.7
		C541.6,785.7,540.2,778,543.9,771.9z"/>
	<path id="_x31_5_1_" class="st19" d="M537.9,769.4c0.5,0.2,1,0.4,1.5,0.6c-5.2,5.8-1.2,14.5,1.6,21.1c-0.9-0.4-1.9-0.7-2.8-1.1
		C534.6,783.3,531.1,774.1,537.9,769.4z"/>
	<path id="_x31_4.5_1_" class="st19" d="M533,767.1c0.6,0.3,1.1,0.5,1.7,0.8c-4.4,5.9-2.9,13.2-1.8,20c-0.7-0.3-1.3-0.6-2-0.8
		C529.6,780.2,530.5,774,533,767.1z"/>
	<path id="_x31_4_1_" class="st19" d="M532.1,766.7c0.3,0.1,0.6,0.3,0.9,0.4c-2.5,6.9-3.3,13.1-2,19.9c-0.2-0.1-0.5-0.2-0.7-0.3
		C527.1,780.5,528,772.6,532.1,766.7z"/>
	<path id="_x31_3_1_" class="st19" d="M520.8,782.3c1.1-6.6,3-12,6.4-18c0.3,0.2,0.6,0.3,0.9,0.5c-2.2,6.3-4.9,12.6-4.7,18.9
		C522.6,783.2,521.7,782.8,520.8,782.3z"/>
	<path id="_x31_2_1_" class="st19" d="M522.8,762c1,0.5,2,1,2.9,1.5c-4.6,3.7-10.5,9.1-10.4,16c-0.6-0.3-1.3-0.7-1.9-1
		C512.5,772.1,517.3,766.6,522.8,762z"/>
	<path id="_x31_1_1_" class="st19" d="M514.6,757.6c0.5,0.3,0.9,0.5,1.4,0.8c-4.9,5.3-4,12.1-5.9,18.4c-0.5-0.3-1.1-0.6-1.6-0.9
		C508.3,769.1,509.9,762.1,514.6,757.6z"/>
	<path id="_x31_0_1_" class="st19" d="M499.8,770.6c1.1-6.1,3.1-12.6,8-17c1.1,0.7,2.3,1.4,3.5,2.1c-5,4.4-8.4,10.4-7.9,17.1
		C502.1,772,500.9,771.3,499.8,770.6z"/>
	<path id="_x39__1_" class="st19" d="M500.9,749.3c0.4,0.3,0.8,0.5,1.3,0.8c-4.4,4.7-4.2,11.3-7.1,17.5c-0.7-0.5-1.5-1-2.2-1.5
		C493.7,759.7,494.9,753.3,500.9,749.3z"/>
	<path id="_x38__1_" class="st19" d="M493.9,744.6c0.7,0.5,1.4,1,2.2,1.5c-7.1,1.1-8.6,8.7-11.1,14.5c-1.2-0.9-2.4-1.8-3.6-2.7
		C483.1,752.1,488.3,746.3,493.9,744.6z"/>
	<path id="_x37__1_" class="st19" d="M483,736.3c0.9,0.7,1.8,1.4,2.7,2.1c-5.8,1.8-9.7,8-10.9,14.3c-1.2-1-2.5-2-3.7-3.1
		C473.8,744.3,477.3,737.9,483,736.3z"/>
	<path id="_x36__1_" class="st19" d="M478,732.2c0.7,0.6,1.4,1.2,2.1,1.8c-5.6,2.7-9.8,7.8-11.7,13.5c-0.5-0.4-1-0.9-1.5-1.3
		C468.9,740.1,471.9,734.9,478,732.2z"/>
	<path id="_x35__1_" class="st19" d="M472.7,727.4c0.8,0.8,1.7,1.5,2.5,2.3c-4.8,3.9-9.6,7.7-12.2,13.1c-0.5-0.5-1.1-1-1.6-1.5
		C464.8,736.1,467.7,731.1,472.7,727.4z"/>
	<path id="_x34__1_" class="st19" d="M469.4,724.3c0.3,0.3,0.5,0.5,0.8,0.8c-5.6,1.9-10.3,7.4-12.5,13c-0.4-0.4-0.9-0.8-1.3-1.2
		C459.2,731,462.9,726.2,469.4,724.3z"/>
	<path id="_x33__1_" class="st19" d="M467.2,722c0.3,0.3,0.6,0.6,0.9,1c-6.8,0.7-11.8,5.7-13.9,11.9c-1.2-1.1-2.4-2.2-3.6-3.4
		C455.2,726.5,460.5,722.5,467.2,722z"/>
	<path id="_x32__1_" class="st19" d="M466.2,721c0.2,0.2,0.4,0.4,0.6,0.7c-6.8-1.6-13.9,2.5-19.7,6.4c-0.6-0.6-1.2-1.2-1.7-1.7
		C449.9,720.1,458.8,720.1,466.2,721z"/>
	<path id="_x31__1_" class="st19" d="M465.2,719.9c0.2,0.2,0.3,0.4,0.5,0.6c-8-2.7-16.8-1.8-22.9,3.3c-0.5-0.5-1-1-1.5-1.5
		C448.2,717,457.5,716.2,465.2,719.9z"/>
	<path id="тень_В_1_" class="st20" d="M452.3,716.5c-5.9-0.1-11.7,1-12.9,3.8c52.8,53.7,94.2,74.6,159.3,85.9
		c3.1-2,4.6-4.6,4.9-7.4C559.4,803.4,466.4,752,452.3,716.5z"/>
</g>
<g id="голова">
	<path id="XMLID_32_" class="st21" d="M659.4,343.6c0,16.9-2.4,40.6-7.4,63.5c-2.7,12.6-4.9,18.5-9.3,30
		C608,527.9,522,586.2,413.6,586.2c-182.3,0-256.4-120.4-252.2-192.6c3-50.9,28.4-64,33.2-113.1c9.7-98.5,87.6-194.4,219-194.4
		C601.6,86.1,659.4,201.4,659.4,343.6z"/>
	<g id="глаз_л">
		<path id="XMLID_18_" class="st22" d="M373.4,308.8c-17.7-12.8-47.5-22.3-64.6-23.1c-21.9-1-50.8,10.8-84.9,21.6
			c21,5,32,12.9,43,16.1c8.2,2.4,25,5.2,33.5,6c11.7,1.2,35.4,0.8,47.2,0.2c6.3-0.3,20-2,24.5-6.5
			C374.7,320.5,375.2,311.9,373.4,308.8z"/>
		<radialGradient id="XMLID_118_" cx="325.001" cy="310.4198" r="24.3355" gradientUnits="userSpaceOnUse">
			<stop  offset="6.896552e-002" style="stop-color:#729693"/>
			<stop  offset="0.2284" style="stop-color:#779B91"/>
			<stop  offset="0.4737" style="stop-color:#86A78B"/>
			<stop  offset="0.7727" style="stop-color:#A2BF7F"/>
			<stop  offset="0.7882" style="stop-color:#A4C07E"/>
			<stop  offset="0.8217" style="stop-color:#98B584"/>
			<stop  offset="0.8919" style="stop-color:#85A48D"/>
			<stop  offset="0.9537" style="stop-color:#7A9B92"/>
			<stop  offset="1" style="stop-color:#779793"/>
		</radialGradient>
		<path id="XMLID_19_" class="st23" d="M350.3,311.5c0,6.6-2.5,12.5-6.6,17c-8.7,3.8-31.1,8.5-35.7,1.7c-5.1-4.6-8.3-11.3-8.3-18.8
			c0-9.8,5.6-18.4,13.8-22.6c7.8-4.4,30.3-1.2,35.2,13.4C349.7,305.2,350.3,308.3,350.3,311.5z"/>
		<circle id="XMLID_20_" cx="325" cy="309.6" r="9.9"/>
		<ellipse id="XMLID_29_" class="st24" cx="315.1" cy="309.6" rx="5.1" ry="1.3"/>
		<ellipse id="XMLID_34_" class="st24" cx="334.9" cy="309.6" rx="2.8" ry="2.3"/>
		<path id="XMLID_36_" class="st25" d="M223.9,307.3c-1.8-10.1,64.6-32.3,90-27.6c15.9,1.1,48.6,8.3,60.6,19.8c1.9,2.9,1,8.1-1,9.2
			c-11.4-9.2-42.3-20.9-59.5-22.6C290.1,281.9,243.7,301.8,223.9,307.3z"/>
		<path id="XMLID_37_" class="st25" d="M225.1,307.7c16.1,3.1,31.1,12.6,41.8,15.6c8.2,2.3,25,5.3,33.5,6c5.4,0.5,16.4,0.9,21.8,0.8
			c8.9-0.1,26.9-0.2,35.7-1.7c2.8-0.5,8.5-1.9,10.9-3.2c-4.3,3.4-7.4,5.4-10.3,6c-29.2,10.6-82.9,7.8-109.4-1.1
			C231.1,324.1,223.8,319.3,225.1,307.7z"/>
		<path id="XMLID_40_" class="st26" d="M368.9,325.2c0,0,2.7-1.4,3.2-2.2c2.1-2.9,2.9-11.1,1.3-14.3c-2.8-1.9-7.8-5.1-10.6-6.6
			c-8.4-4.3-26.1-10.8-35.2-13.4c-5.8-1.7-18-3.6-24-3.2c-20.9,0.8-59.9,15.5-79.8,21.7c-2.7,1-10.7,4.5-10.7,4.5s7.9-4.3,10.7-5.3
			c20.1-7.2,59.4-20.6,80.1-21.9c6.1-0.4,18.2,1.8,24,3.5c9,2.7,26.8,9.1,35.1,13.3c2.9,1.5,7.4,4.1,11,6.8c1.7,3.4,1.4,12.3-1,15.3
			C372.4,324.3,368.9,325.2,368.9,325.2z"/>
	</g>
	<g id="глаз_п">
		<path id="XMLID_55_" class="st22" d="M458.3,311.9c17.7-12.8,47.5-22.3,64.6-23.1c21.9-1,50.8,10.8,84.9,21.6
			c-21,5-32,12.9-43,16.1c-8.2,2.4-25,5.2-33.5,6c-11.7,1.2-35.4,0.8-47.2,0.2c-6.3-0.3-20-2-24.5-6.5
			C457,323.7,456.5,315.1,458.3,311.9z"/>
		<radialGradient id="XMLID_119_" cx="539.7831" cy="311.7372" r="24.5607" gradientUnits="userSpaceOnUse">
			<stop  offset="6.896552e-002" style="stop-color:#729693"/>
			<stop  offset="0.2284" style="stop-color:#779B91"/>
			<stop  offset="0.4737" style="stop-color:#86A78B"/>
			<stop  offset="0.7727" style="stop-color:#A2BF7F"/>
			<stop  offset="0.7882" style="stop-color:#A4C07E"/>
			<stop  offset="0.8217" style="stop-color:#98B584"/>
			<stop  offset="0.8919" style="stop-color:#85A48D"/>
			<stop  offset="0.9537" style="stop-color:#7A9B92"/>
			<stop  offset="1" style="stop-color:#779793"/>
		</radialGradient>
		<path id="XMLID_54_" class="st27" d="M565,310c0.5,6.5-1.5,12.7-5.3,17.5c-7.7,7.1-27.4,11.6-35.5,4.4c-5.5-4.2-9.2-10.7-9.7-18.1
			c-0.7-9.8,4.2-18.7,12.1-23.5c8.2-6,35,0.8,36.1,10.7C564,303.7,564.8,306.7,565,310z"/>
		<circle id="XMLID_53_" cx="539.6" cy="310" r="9.9"/>
		
			<ellipse id="XMLID_52_" transform="matrix(0.9972 -7.520130e-002 7.520130e-002 0.9972 -21.8672 40.7178)" class="st24" cx="529.8" cy="310.7" rx="5.1" ry="1.3"/>
		
			<ellipse id="XMLID_51_" transform="matrix(0.9972 -7.520130e-002 7.520130e-002 0.9972 -21.699 42.2012)" class="st24" cx="549.5" cy="309.2" rx="2.8" ry="2.3"/>
		<path id="XMLID_49_" class="st25" d="M607.8,310.5c1.8-10.1-64.6-32.3-90-27.6c-15.9,1.1-48.6,8.3-60.6,19.8c-1.9,2.9-1,8.1,1,9.2
			c11.4-9.2,42.3-20.9,59.5-22.6C541.6,285.1,588,304.9,607.8,310.5z"/>
		<path id="XMLID_46_" class="st25" d="M606.6,310.9c-16.1,3.1-31.1,12.6-41.8,15.6c-8.2,2.3-25,5.3-33.5,6
			c-5.4,0.5-16.4,0.9-21.8,0.8c-8.9-0.1-26.9-0.2-35.7-1.7c-2.8-0.5-8.5-1.9-10.9-3.2c4.3,3.4,7.4,5.4,10.3,6
			c29.2,10.6,82.9,7.8,109.4-1.1C600.6,327.3,607.8,322.5,606.6,310.9z"/>
		<path id="XMLID_35_" class="st26" d="M462.8,328.4c0,0-2.7-1.4-3.2-2.2c-2.1-2.9-2.9-11.1-1.3-14.3c2.8-1.9,7.8-5.1,10.6-6.6
			c8.4-4.3,26.1-10.8,35.2-13.4c5.8-1.7,18-3.6,24-3.2c20.9,0.8,59.9,15.5,79.8,21.7c2.7,1,10.7,4.5,10.7,4.5s-7.9-4.3-10.7-5.3
			c-20.1-7.2-59.4-20.6-80.1-21.9c-6.1-0.4-18.2,1.8-24,3.5c-9,2.7-26.8,9.1-35.1,13.3c-2.9,1.5-7.4,4.1-11,6.8
			c-1.7,3.4-1.4,12.3,1,15.3C459.3,327.5,462.8,328.4,462.8,328.4z"/>
	</g>
	<g id="причесон">
		<path id="XMLID_61_" class="st28" d="M257,150.7c17.2-12.9,58.8-26.8,79.4-33c18.4-5.5,57-10.9,76.2-11.1c13.4-0.1,40,5,53.4,6.3
			c14.5,1.5,44.7-1,58.1,4.7c9.2,4,23,19.3,29.5,26.9c6.2,7.2,18.5,22.1,26.7,26.9c10,6,34.5,10.2,42.9,18.2
			c7.2,6.8,17.2,35.6,17.2,35.6l13.3,60.9l5.7,60.2c0,0,8.8-30.2,10.3-41.6c1.8-14.2-6.6-42.9-5.6-57.2c0.9-13.1,9.1-23.4,9.1-49.7
			c0-11.8-24-84.3-70.4-96.7c-15.5-11.6-11.8-33.9-54-55.6c-6.6-3.4-49.9-15.1-67.7-18.4c-13.6-2.5-55.4-4.3-59.3-4
			c-5.1,0.4-116.3,5-164.6,60.4c-7.2,6.6-18.4,22.3-22.9,31.7c-2.9,6.1-11,28.1-11,28.1s-46.6,32.8-55.5,87.2
			c-0.8,4.8-1.8,17.5-1.3,26c1.6,28.7,0.7,48.2,15,73.5l-0.7-1.3l8-17.1c0,0,6.1-19.7,6.7-28.5c1.7-6.8,8.4-47.6,14.5-62.5
			c5.1-12.4,18.9-34.9,26.4-46.1C240.7,168.1,250.7,155.5,257,150.7z"/>
		
			<radialGradient id="XMLID_120_" cx="419.8286" cy="186.1256" r="212.0622" gradientTransform="matrix(4.489659e-011 -1 2 8.979319e-011 47.5774 605.9542)" gradientUnits="userSpaceOnUse">
			<stop  offset="2.352941e-002" style="stop-color:#926928"/>
			<stop  offset="2.371835e-002" style="stop-color:#8F6728"/>
			<stop  offset="2.539677e-002" style="stop-color:#795927"/>
			<stop  offset="2.729838e-002" style="stop-color:#684E25"/>
			<stop  offset="2.954641e-002" style="stop-color:#5C4724"/>
			<stop  offset="3.232745e-002" style="stop-color:#544222"/>
			<stop  offset="3.622818e-002" style="stop-color:#503F22"/>
			<stop  offset="4.705882e-002" style="stop-color:#4E3E22"/>
			<stop  offset="4.749683e-002" style="stop-color:#5A4623"/>
			<stop  offset="4.830926e-002" style="stop-color:#6E5226"/>
			<stop  offset="4.924268e-002" style="stop-color:#7F5D27"/>
			<stop  offset="5.033319e-002" style="stop-color:#8D6628"/>
			<stop  offset="5.168116e-002" style="stop-color:#976D28"/>
			<stop  offset="5.357253e-002" style="stop-color:#9D7129"/>
			<stop  offset="5.882353e-002" style="stop-color:#9F7229"/>
			<stop  offset="5.882353e-002" style="stop-color:#986D28"/>
			<stop  offset="5.882353e-002" style="stop-color:#614A24"/>
			<stop  offset="5.882353e-002" style="stop-color:#4E3E22"/>
			<stop  offset="6.228720e-002" style="stop-color:#514022"/>
			<stop  offset="6.613450e-002" style="stop-color:#5B4623"/>
			<stop  offset="7.016495e-002" style="stop-color:#6A5025"/>
			<stop  offset="7.429928e-002" style="stop-color:#835F27"/>
			<stop  offset="7.843138e-002" style="stop-color:#A47629"/>
			<stop  offset="9.803922e-002" style="stop-color:#9B6F28"/>
			<stop  offset="0.1059" style="stop-color:#4E3E22"/>
			<stop  offset="0.1118" style="stop-color:#6B5025"/>
			<stop  offset="0.1175" style="stop-color:#846027"/>
			<stop  offset="0.1222" style="stop-color:#956B28"/>
			<stop  offset="0.1255" style="stop-color:#9B6F28"/>
			<stop  offset="0.1412" style="stop-color:#4E3E22"/>
			<stop  offset="0.1529" style="stop-color:#9B6F28"/>
			<stop  offset="0.1686" style="stop-color:#4E3E22"/>
			<stop  offset="0.1843" style="stop-color:#9B6F28"/>
			<stop  offset="0.2039" style="stop-color:#4E3E22"/>
			<stop  offset="0.2196" style="stop-color:#9B6F28"/>
			<stop  offset="0.2353" style="stop-color:#4E3E22"/>
			<stop  offset="0.251" style="stop-color:#956B28"/>
			<stop  offset="0.2582" style="stop-color:#936A28"/>
			<stop  offset="0.2607" style="stop-color:#8D6628"/>
			<stop  offset="0.2626" style="stop-color:#836027"/>
			<stop  offset="0.2641" style="stop-color:#765726"/>
			<stop  offset="0.2653" style="stop-color:#654C25"/>
			<stop  offset="0.2664" style="stop-color:#534122"/>
			<stop  offset="0.2667" style="stop-color:#4E3E22"/>
			<stop  offset="0.302" style="stop-color:#956B28"/>
			<stop  offset="0.305" style="stop-color:#926928"/>
			<stop  offset="0.3073" style="stop-color:#8A6428"/>
			<stop  offset="0.3094" style="stop-color:#7C5B27"/>
			<stop  offset="0.3113" style="stop-color:#6A4F25"/>
			<stop  offset="0.3132" style="stop-color:#554223"/>
			<stop  offset="0.3137" style="stop-color:#4E3E22"/>
			<stop  offset="0.3333" style="stop-color:#956B28"/>
			<stop  offset="0.3365" style="stop-color:#926928"/>
			<stop  offset="0.3388" style="stop-color:#8A6428"/>
			<stop  offset="0.3408" style="stop-color:#7D5C27"/>
			<stop  offset="0.3427" style="stop-color:#6C5025"/>
			<stop  offset="0.3444" style="stop-color:#574423"/>
			<stop  offset="0.3451" style="stop-color:#4E3E22"/>
			<stop  offset="0.3686" style="stop-color:#815E27"/>
			<stop  offset="0.3804" style="stop-color:#4E3E22"/>
			<stop  offset="0.4" style="stop-color:#956B28"/>
			<stop  offset="0.4059" style="stop-color:#926928"/>
			<stop  offset="0.4106" style="stop-color:#8A6428"/>
			<stop  offset="0.4148" style="stop-color:#7C5B27"/>
			<stop  offset="0.4188" style="stop-color:#6A4F25"/>
			<stop  offset="0.4225" style="stop-color:#554222"/>
			<stop  offset="0.4235" style="stop-color:#4E3E22"/>
			<stop  offset="0.4471" style="stop-color:#956B28"/>
			<stop  offset="0.4498" style="stop-color:#8E6728"/>
			<stop  offset="0.4541" style="stop-color:#7C5B27"/>
			<stop  offset="0.4594" style="stop-color:#614A24"/>
			<stop  offset="0.4627" style="stop-color:#4E3E22"/>
			<stop  offset="0.498" style="stop-color:#956B28"/>
			<stop  offset="0.5036" style="stop-color:#926928"/>
			<stop  offset="0.5083" style="stop-color:#896328"/>
			<stop  offset="0.5128" style="stop-color:#7A5A27"/>
			<stop  offset="0.517" style="stop-color:#674E25"/>
			<stop  offset="0.5211" style="stop-color:#514022"/>
			<stop  offset="0.5216" style="stop-color:#4E3E22"/>
			<stop  offset="0.549" style="stop-color:#956B28"/>
			<stop  offset="0.5532" style="stop-color:#8E6728"/>
			<stop  offset="0.5596" style="stop-color:#7C5B27"/>
			<stop  offset="0.5676" style="stop-color:#604924"/>
			<stop  offset="0.5725" style="stop-color:#4E3E22"/>
			<stop  offset="0.5961" style="stop-color:#956B28"/>
			<stop  offset="0.5988" style="stop-color:#8E6728"/>
			<stop  offset="0.6031" style="stop-color:#7C5B27"/>
			<stop  offset="0.6085" style="stop-color:#604924"/>
			<stop  offset="0.6118" style="stop-color:#4E3E22"/>
			<stop  offset="0.6392" style="stop-color:#956C28"/>
			<stop  offset="0.6434" style="stop-color:#8E6728"/>
			<stop  offset="0.6499" style="stop-color:#7C5B27"/>
			<stop  offset="0.6579" style="stop-color:#604924"/>
			<stop  offset="0.6627" style="stop-color:#4E3E22"/>
			<stop  offset="0.6902" style="stop-color:#956B28"/>
			<stop  offset="0.693" style="stop-color:#8E6728"/>
			<stop  offset="0.6973" style="stop-color:#7C5B27"/>
			<stop  offset="0.7026" style="stop-color:#604924"/>
			<stop  offset="0.7059" style="stop-color:#4E3E22"/>
			<stop  offset="0.7333" style="stop-color:#966C28"/>
			<stop  offset="0.7426" style="stop-color:#5C4724"/>
			<stop  offset="0.7451" style="stop-color:#4E3E22"/>
			<stop  offset="0.7686" style="stop-color:#966C28"/>
			<stop  offset="0.7804" style="stop-color:#5F4824"/>
			<stop  offset="0.7843" style="stop-color:#4E3E22"/>
			<stop  offset="0.8078" style="stop-color:#986D28"/>
			<stop  offset="0.8275" style="stop-color:#4E3E22"/>
			<stop  offset="0.8353" style="stop-color:#966C28"/>
			<stop  offset="0.8533" style="stop-color:#5E4824"/>
			<stop  offset="0.8588" style="stop-color:#4E3E22"/>
			<stop  offset="0.8824" style="stop-color:#9B6F28"/>
			<stop  offset="0.9059" style="stop-color:#4E3E22"/>
			<stop  offset="0.9412" style="stop-color:#996E28"/>
			<stop  offset="0.9686" style="stop-color:#4E3E22"/>
			<stop  offset="1" style="stop-color:#966C28"/>
		</radialGradient>
		<path id="XMLID_63_" class="st29" d="M257,150.7c17.2-12.9,58.8-26.8,79.4-33c18.4-5.5,57-10.9,76.2-11.1c13.4-0.1,40,5,53.4,6.3
			c14.5,1.5,44.7-1,58.1,4.7c9.2,4,23,19.3,29.5,26.9c6.2,7.2,18.5,22.1,26.7,26.9c10,6,34.5,10.2,42.9,18.2
			c7.2,6.8,17.2,35.6,17.2,35.6l13.3,60.9l5.7,60.2c0,0,8.8-30.2,10.3-41.6c1.8-14.2-6.6-42.9-5.6-57.2c0.9-13.1,9.1-23.4,9.1-49.7
			c0-11.8-10.9-43.9-10.9-43.9s-30.4-43.5-59.4-52.8c-15.5-11.6-13.6-30.7-54-55.6c-15.4-9.5-49.9-15.1-67.7-18.4
			c-13.6-2.5-45.6-1.8-59.3,0c-15.6,2-95.6,16.2-107.4,20.8c-15.7,6.1-52,30.8-57.2,35.6c-7.2,6.6-17.4,23.6-22.9,31.7
			c-3.8,5.6-11,28.1-11,28.1s-46.6,32.8-55.5,87.2c-0.8,4.8-1.8,17.5-1.3,26c1.6,28.7,0.7,48.2,15,73.5l0,0l7.3-18.4
			c0,0,4.7-26.2,4.7-28.6s9.2-47.6,15.2-62.5c5.1-12.4,20.1-34.8,27.6-45.9C240.7,168.1,250.7,155.5,257,150.7z"/>
		<path id="XMLID_66_" class="st30" d="M225,145c0,0,28.8-46.2,41.6-58.9c9.4-9.4,31.2-25.4,43.4-30.8c16.9-7.4,53-16.8,71.3-19.3
			c15.5-2.2,47-5.4,62.7-4c16.5,1.4,48.8,9.2,64.7,14c8.8,2.7,26.9,7.2,34.7,12c10.8,6.7,34.5,37.8,48,48c7,5.3,24.4,10,31.3,15.3
			c9.7,7.5,38.7,49.3,42,69.3c1.3,8.2-4.1,24.5-5.1,32.7c-0.9,6.8-0.7,20.5,0,27.3c0.8,8,4.7,23.6,5.1,31.6
			c0.7,15.4-5.1,61.4-5.1,61.4s-1.8-42.5-3.4-56.5c-0.9-7.7-4.1-22.8-4.8-30.5c-0.8-8.3-0.8-25,0-33.3c0.7-7.3,4.5-22,3.3-29.3
			c-2.7-17.7-22.4-50.3-36-62c-6.4-5.5-24-9.4-30.6-14.7c-13.8-10.9-33.5-41.5-48.1-51.3c-8.8-5.9-29.7-11.5-39.9-14.7
			c-13.4-4.1-41.1-10.3-55.1-11.3c-15.6-1.2-46.8,2.4-62.2,4.7C365.2,47.2,331,56,315.1,63.3c-11.6,5.4-31.6,21.6-41.2,30
			C260.5,105.1,225,145,225,145z"/>
		<path id="XMLID_67_" class="st30" d="M228.9,149c0,0,41.6-42,57-54.3c9.2-7.3,28.1-21.8,39.1-26c26.3-10,82.8-20.7,110.9-19.3
			c24,1.2,73.4,7.5,93.8,20c16.1,9.8,35.6,44.7,50.8,55.9c8.1,6,29.9,7.4,38,13.5c9,6.8,20.2,28.1,22.7,39.1
			c3.4,15.4,2.5,62.9,2.5,62.9s-7.9-47.8-13.2-62.9c-2.9-8.2-12-23.6-18.7-29.1c-7.6-6.2-28.2-9.4-36-15.3
			c-14.9-11.4-35.2-45-51.3-54.7C505.9,67.4,461,61.5,439.2,60c-27-1.8-82,6.5-107.1,16.7C302.9,88.4,228.9,149,228.9,149z"/>
		<path id="XMLID_68_" class="st30" d="M234.2,154.3l4-2.8c0,0,69.1-57.9,96.7-68.8c25.8-10.2,82.3-16.8,110-14.7
			c17.7,1.4,54.2,5.8,69.6,14.7c13,7.4,31.7,31.8,42.1,42.5c5.3,5.4,16.1,16.1,22.7,19.7c6.6,3.6,22.9,4.5,28.6,9.4
			c7.3,6.3,15.4,35.5,15.4,35.5s-15.7-25.9-24-31.1c-5.6-3.5-19.5-4.2-25.3-7.2c-7.9-4-20.9-16.4-27.1-22.6
			c-9.5-9.4-26.5-31-38.2-37.5c-13.4-7.5-44.7-11.3-60-12.7c-27.7-2.4-83.2,2.7-110.8,11.3"/>
		<path id="XMLID_65_" class="st30" d="M239.6,159.6c0,0,72.2-54.3,100.7-62.5c35.3-10.1,111.8-10.8,146.9,0
			c10.1,3.1,36.9,20.6,36.9,20.6s-32.9-11.6-44.2-13.7c-33.2-6.4-102.5-8.2-135.3,0C315.7,111.2,239.6,159.6,239.6,159.6z"/>
		<path id="XMLID_69_" class="st30" d="M227,146.8c0,0-35.2,19.2-53.8,74.5c-12,35.8,7.6,107.6,7.6,107.6s-13.4-81.7-3.8-106.6
			C196,172.8,227,146.8,227,146.8z"/>
		<path id="XMLID_70_" class="st30" d="M231.5,151.5c0,0-32,25-49.5,75.3c-8.4,24.1-1.2,102.1-1.2,102.1s-1.6-77.6,6.4-101.8
			C201.2,184.9,231.5,151.5,231.5,151.5z"/>
		<path id="XMLID_71_" class="st30" d="M237.2,156.8c0,0-35.3,42.3-43.8,76c-2.6,10.2-12.7,96.1-12.7,96.1s10.7-71.3,17.4-94.3
			C208.6,198,237.2,156.8,237.2,156.8z"/>
	</g>
	<g id="лицо">
		<path id="XMLID_57_" class="st31" d="M657.5,273.7l-16.6-2c0,0-29.5-4.5-39.3-5.5c-9.2-0.9-27.5-1.8-36.7-2
			c-8.4-0.2-25.2,0.4-33.6,0.9c-7.3,0.5-21.9,2.4-29.2,3.4c-7,1-20.8,3.5-27.6,5.2c-6.5,1.6-25.6,8.1-25.6,8.1s-14.7,4.4-19.8,5
			c-5,0.6-15.1-0.2-20-1.1c-12.8-2.4-37.3-12.4-50.1-15.2c-20-4.3-60.8-10-81.3-10.7c-11.5-0.4-34.5,0.6-45.9,1.6
			c-11.8,1.1-46.9,5.7-46.9,5.7l0.5,27.5c0,0,8.9,5.8,12.4,10.1c3.5,4.3,5.7,15.7,5.7,15.7s5,20.8,8.1,31.8
			c3.1,11,9.4,19.2,17.5,28.7s24.7,14.8,33.3,17.2c10.4,2.9,37.4,6.3,50.4,5.2c14.2-1.1,32.9-5.6,42.3-12c4-2.7,12.1-7.8,16.5-12.4
			c8.4-8.8,17.2-23,21.2-31.6c3-6.3,4.7-13.9,9.1-26.6c4.4-12.7,10.3-12.6,10.3-12.6s12.8-1.5,18.3,2.7c5.5,4.2,7.4,18.5,7.4,18.5
			s5,16.7,7.9,23.4c2.9,6.7,9.9,18,9.9,18s13.8,14.8,22,21.1c12.5,9.6,35.8,16.6,54.9,16.6c6.8,0,20.7-0.1,36-2.7
			c15.3-2.6,27.3-7.7,37.5-14.5c10.2-6.8,15.4-15.8,18.5-22.4c2-4.3,7.3-17.4,7.3-17.4s4.1-10.2,8.6-28.7
			c4.5-18.4,17.2-22.2,17.2-22.2s1.3-23.3,1.3-23.9C659,275.9,658.2,274.1,657.5,273.7z M389.3,317.8c0,0-3.7,21.5-6.9,27.8
			c-3.3,6.3-9.9,21.1-17.1,29.1c-22.6,25-58.9,20.9-74,20.8c-10.3,0.3-40.4-6.2-55.2-20.2c-9.5-9-16.5-29.3-20.3-53.3
			c-3.8-23.9,5.9-36.3,5.9-36.3c3.8-7.6,9.5-7.4,14.2-9.1c4.7-1.7,14.2-4,19-4.7c4.8-0.7,21.7-2.1,35.3-1.5
			c13.6,0.6,26,0.8,34.5,1.9c7.7,1,19.5,3.9,30.2,6.8c10.7,2.9,22.3,8.7,29.8,15.5C392.1,301.5,389.3,317.8,389.3,317.8z M626.5,327
			c-4.8,23.8-5.8,28.7-10,37.4c-2.3,4.8-7.3,12.3-12.3,17.3c-5.1,4.9-19.2,10.3-23,11.7c-3.8,1.4-28,6.3-35.7,6.4
			c-7.7,0.1-29.7-2.1-40.1-4.8c-9.9-2.6-26.8-10.9-33.7-19.2c-6.9-8.3-13.7-22.7-16.7-29.1c-3-6.4-5.5-19.4-5.5-19.4
			s-1.8-8.2-2.1-10.8c-0.6-5.3-1.2-13.8,6.6-20.4c7.7-6.5,22-14.8,32.9-17.3c10.9-2.5,30.5-4.4,30.5-4.4s21-1.8,34.5-1.8
			c13.6,0,28.5,2.9,33.3,3.8c4.8,0.9,13.7,3.4,18.3,5.2c4.6,1.8,11.8,3.7,16.3,8.9C619.8,290.5,631.3,303.2,626.5,327z"/>
		<path id="XMLID_56_" class="st21" d="M382.2,367.1c0,0-22.4,32.3-18,43.1c4.6,11.2,32.4,18.9,44.4,18.9c27.6,0,51-22.7,51-22.7
			l-59.6-71.3L382.2,367.1z"/>
		<path id="XMLID_62_" class="st32" d="M381.5,366.4c0,0-24.4,33-20,43.9c4.6,11.2,16.6,15.8,28.7,15.8c12,0,33.4-6.4,36.6-7.3
			c7,0,33.8,4.1,32.8-12.3c-5.1,11-26.6,4.3-33.3,5.5c-4.9,0.8-19.9,6.9-27.9,5.6c-8.9-1.5-24-0.3-28.1-8.3
			C363.2,395.5,381.5,366.4,381.5,366.4z"/>
		<path id="XMLID_64_" class="st33" d="M307,482.7c-3.4,1.1,84.8,26.1,114.3,26.2c25.1,0.1,98.9-19.8,97.7-21.3
			c-7,2-72.8,19.1-97.7,18.9C392.1,506.3,315.9,484.9,307,482.7z"/>
		<path id="XMLID_72_" class="st33" d="M309.3,482.6c1-4.5-0.5-9.2-1.7-9.1c-1.2,0.1-1.5,4.6-2.4,9.3c-0.8,4.3-3.1,6.9-1.8,6.8
			C304.6,489.5,308.3,486.9,309.3,482.6z"/>
		<path id="XMLID_73_" class="st33" d="M520.6,487.9c-0.3-4.4,0.5-7.2-0.8-7.1c-1.3,0.1-3.4,2.6-3.1,7s3.5,7.3,4.8,7.2
			C522.7,494.9,520.8,492.3,520.6,487.9z"/>
	</g>
	<path id="XMLID_75_" class="st21" d="M657.2,302.7c2.8-5.6,14.4-17.7,20-14.9c11.4,5.6,10.3,37.7,8,50.3c-2.6,14-2.9,49-16,54.7
		c-3.4,1.5-13.4-6.2-13.4-6.2S647.7,321.3,657.2,302.7z"/>
	<path id="XMLID_74_" class="st34" d="M661.8,327c-4.7-1.7-1.9-21.9,3.6-27.3c4-6.9,12.6-6.1,15.5-2.4c2,2.6,4,13.4,1.7,15.5
		c-6.9,3.4-10.7-4.7-11.1-12.7C667.7,302.7,661.4,317.8,661.8,327z"/>
</g>
</svg>
