<?xml version="1.0" encoding="utf-8"?>
<!-- Generator: Adobe Illustrator 19.0.0, SVG Export Plug-In . SVG Version: 6.00 Build 0)  -->
<svg version="1.1" xmlns="http://www.w3.org/2000/svg" xmlns:xlink="http://www.w3.org/1999/xlink" x="0px" y="0px"
	 viewBox="0 0 866.7 1202.8" style="enable-background:new 0 0 866.7 1202.8;" xml:space="preserve">
<style type="text/css">
	.st0{fill:#999999;}
	.st1{fill:#666766;}
	.st2{opacity:0.4;}
	.st3{fill:#7F7F7F;}
	.st4{fill:#7292CB;}
	.st5{fill:#C6D4E2;}
	.st6{opacity:0.51;}
	.st7{fill:#58595B;}
	.st8{fill:#7D7C7C;}
	.st9{fill:#CDCFD0;}
	.st10{fill:#013333;}
	.st11{fill:#EBF2F2;}
	.st12{fill:#ED1F24;}
	.st13{fill:#71BF44;}
	.st14{fill:#E6E7E8;}
	.st15{fill:#9B8579;}
	.st16{opacity:0.18;}
	.st17{opacity:0.1;}
	.st18{fill:#9595C9;}
	.st19{fill:url(#XMLID_74_);}
	.st20{fill:#FDCD9A;}
	.st21{fill:#F4F2F1;}
	.st22{fill:url(#XMLID_77_);}
	.st23{fill:#FFFFFF;}
	.st24{fill:#EEBA88;}
	.st25{fill:#4B2B14;}
	.st26{fill:url(#XMLID_78_);}
	.st27{fill:#C17E52;}
	.st28{fill:#C67C54;}
	.st29{fill:#CB9774;}
	.st30{display:none;fill:#E5B48F;}
	.st31{fill:#91672F;}
	.st32{fill:#B4854B;}
	.st33{fill:#4C361C;}
	.st34{fill:#A57E5B;}
</style>
<g id="прав_нога">
	<path id="п_низ_1_" class="st0" d="M441.7,1048c11.5,45,33,118.6,72.3,150.4c13.9,6.3,24,5.4,35.1-0.1
		c20-13.3,25.8-62,34.8-148.4C598.9,906.9,406.2,908.2,441.7,1048z"/>
	<path id="п_верх" class="st0" d="M448.1,1070.2c-8.9-30.3-13.1-46.7-18-71.8c-10.8-55.3,6-98.3,29.5-118.9
		c18-15.8,135.3-34.8,135.7-10.8c0.7,39.3-8.5,124-11.6,181.9C543.4,1095.3,489.6,1099.3,448.1,1070.2z"/>
	<path id="ботинок_п_1_" class="st1" d="M464.8,1121.6c12.5,34,25.7,57.7,49.3,76.8c13.9,6.3,24,5.4,35.1-0.1
		c13.9-9.2,20.3-31.2,26.3-75.2C560.6,1144.4,490.8,1141.7,464.8,1121.6z"/>
	<path id="тень_к" class="st2" d="M587,1005.1c-8.3,3.4-20.1,5.2-24.8,1.6c-12-9.1-12.7-46.8-5.1-59.8
		c4.4-7.6,25.3-13,35.3-9.8C590.6,959.5,588.6,983,587,1005.1z"/>
	<path id="карман_1_" class="st3" d="M558.2,942.4c4.9-8.5,31.5-18.1,36.8-7.7c8.8,15,9.3,48.4,0.4,61.7
		c-5.9,7.1-25.6,10.7-32,5.8C551.4,993.1,550.7,955.3,558.2,942.4z"/>
	<path id="стежка_к_1_" class="st1" d="M599.5,946.7c-7.9,19.7-31.5,10.4-44.6,4.8c3.1,4.4,19.3,9.6,25.4,10.1
		c-2.6,9.5,14.8,6,9.5-0.3C593.6,959.2,597.9,953.5,599.5,946.7z"/>
</g>
<g id="лев_нога">
	<path id="л_низ_1_" class="st0" d="M392.1,1044.1c-9.4,45.5-27.7,119.9-65.6,153.5c-13.6,6.9-23.8,6.4-35.1,1.5
		c-20.6-12.4-28.5-60.8-41.4-146.7C228.9,910.1,421.4,902.8,392.1,1044.1z"/>
	<path id="л_верх_1_" class="st0" d="M386.7,1066.5c7.6-30.6,11.1-47.3,14.8-72.6c8.3-55.7-10.4-98-34.8-117.5
		c-18.7-15-136.7-28.7-136-4.8c1.1,39.3,14,123.5,19.7,181.2C291.5,1102,347.3,1098.5,386.7,1066.5z"/>
	<path id="ботинок_п" class="st1" d="M372.3,1118.9c-10.9,34.5-23,58.6-45.7,78.7c-13.6,6.9-24.3,6.5-35.6,1.5
		c-14.3-8.6-20.7-28.2-28.7-71.9C278,1147.8,347.2,1140.1,372.3,1118.9z"/>
	<path id="тень_к_1_" class="st2" d="M246.1,1014.8c8.4,3,20.3,4.3,24.9,0.5c11.5-9.6,10.6-47.3,2.5-59.9
		c-4.7-7.4-25.9-11.9-35.7-8.2C240.5,969.4,243.5,992.8,246.1,1014.8z"/>
	<path id="карман" class="st3" d="M272.6,949.2c-5.3-8.3-32.3-16.7-37.1-6.1c-8.1,15.4-7.1,48.8,2.4,61.6
		c6.2,6.8,26,9.6,32.3,4.4C281.6,999.6,280.6,961.8,272.6,949.2z"/>
	<path id="стежка_к" class="st1" d="M231.4,955.4c8.7,19.3,31.9,9,44.8,2.9c-2.9,4.6-18.9,10.4-24.9,11.2
		c3,9.4-14.5,6.7-9.5,0.1C237.9,967.6,233.4,962.1,231.4,955.4z"/>
</g>
<g id="тело_1_">
	<path id="XMLID_14_" class="st0" d="M580.6,700.9c-8-36.4-52.1-122-79.3-154.2C470.3,510,360.1,507,329,543.4
		c-34.5,40.5-81,122-86.8,157.5c-8.8,53.6-29.1,171.3,0,217.1c16.6,38.6,131.7,74.2,173.7,74.2c43.4,0,141.8-38.9,164.7-74.2
		C610.1,872.4,592.2,753.9,580.6,700.9z"/>
	<path id="XMLID_3_" class="st4" d="M236.9,856.2c0,0,62.9,16.7,99.1,42.2c42.6,30.1,67.6,92.9,67.6,92.9l-9.5-1.2
		c0,0-29.8-61.7-63.7-83.6c-38.6-25.1-91.9-41.6-91.9-41.6L236.9,856.2z"/>
	<path id="XMLID_12_" class="st4" d="M596.7,855c0,0-62.9,16.7-99.1,42.2c-42.6,30.1-70.8,94.2-70.8,94.2l10.6-1.6
		c0,0,31.9-62.7,65.7-84.6c38.6-25.1,91.9-41.6,91.9-41.6L596.7,855z"/>
</g>
<g id="блок">
	<polygon id="XMLID_50_" class="st5" points="411.9,708.7 416.8,708.7 416.6,909.3 411.9,909.3 	"/>
	<path id="тень" class="st6" d="M447.2,717.9c-5.1-3.2-17.1-5.1-19.4,0c52.8,53.7,102.9,84.6,167.9,95.9
		c0.1-12.3-2.9-14.2-3.2-18.2C542.8,788.8,475.4,749,447.2,717.9z"/>
	<path id="тень_1_" class="st6" d="M376.4,719c5.1-3.2,17.1-5.1,19.4,0c-52.8,53.7-102.9,84.6-167.9,95.9
		c-0.1-12.3,2.9-14.2,3.2-18.2C280.7,789.8,348.2,750,376.4,719z"/>
	<path id="XMLID_13_" class="st7" d="M338.3,535.2c45.5,28.9,80,132.6,73.6,144.8c-11.5-12-46.3-94.1-87-131.5
		C323.5,535.1,330.7,529.6,338.3,535.2z"/>
	<path id="XMLID_10_" class="st7" d="M491.2,535.2c-45.5,28.9-80,132.6-73.6,144.8c11.5-12,46.3-94.1,87-131.5
		C505.9,535.1,498.8,529.6,491.2,535.2z"/>
	<polygon id="XMLID_17_" class="st8" points="350,715.2 483.6,715.2 474.1,721.7 359.6,721.7 	"/>
	<rect id="XMLID_24_" x="350" y="644.8" class="st9" width="133.6" height="70.4"/>
	<rect id="XMLID_21_" x="361.4" y="658.2" class="st10" width="60" height="30.3"/>
	<rect id="XMLID_22_" x="435.3" y="658.2" class="st11" width="37.5" height="37.5"/>
	<circle id="XMLID_38_" class="st12" cx="463.4" cy="667.3" r="5.7"/>
	<circle id="XMLID_39_" class="st13" cx="444.9" cy="667.3" r="5.7"/>
	<circle id="XMLID_47_" class="st12" cx="463.4" cy="688.5" r="5.9"/>
	<circle id="XMLID_48_" class="st12" cx="444.9" cy="688.5" r="5.7"/>
</g>
<g id="лев_труба">
	<path id="база_2_" class="st14" d="M362.7,719c5.1-3.2,22.7-3.8,24.9,1.3c-52.8,53.7-94.2,74.6-159.3,85.9
		c-8-5.2-5.5-14.2,1.8-19.3C279.8,780.1,334.6,750,362.7,719z"/>
	<path id="_x32_6" class="st15" d="M226.4,790.4c-3.2,3.9-4.1,8.8-1.4,12.7C224,798.6,224.1,794,226.4,790.4z"/>
	<path id="_x32_5" class="st15" d="M233.6,786.4c-0.5,0.1-1.1,0.2-1.6,0.2c-4.8,4.7-7.3,14-2.6,19.4c0.6-0.1,1.2-0.2,1.9-0.3
		C227.3,800.1,229.1,792.2,233.6,786.4z"/>
	<path id="_x32_4" class="st15" d="M238.1,785.6c-0.9,0.2-1.8,0.3-2.7,0.5c-1.7,6.4-4.4,12.8-2.4,19.3c1.4-0.3,2.8-0.5,4.2-0.8
		C233.9,798.5,233.5,791,238.1,785.6z"/>
	<path id="_x32_3" class="st15" d="M242.8,784.7c-0.6,0.1-1.1,0.2-1.7,0.3c-3,6-3.3,13.3-0.6,18.9c1.1-0.2,2.1-0.4,3.2-0.6
		C240.1,797.5,239.5,790.4,242.8,784.7z"/>
	<path id="_x32_2" class="st15" d="M249.7,783.1c-0.6,0.1-1.1,0.3-1.7,0.4c-1.3,6.2,0.8,12.4,0.9,18.6c0.7-0.2,1.3-0.3,2-0.5
		C249,795.7,249.6,789.7,249.7,783.1z"/>
	<path id="_x32_1" class="st15" d="M254,781.9c-0.8,0.2-1.6,0.4-2.5,0.6c-0.3,6.5,2.1,12.4,0.2,18.8c0.7-0.2,1.3-0.3,2-0.5
		C255.1,794.6,256.1,788.3,254,781.9z"/>
	<path id="_x32_0" class="st15" d="M262.8,779.4c-1.3,0.4-2.5,0.8-3.8,1.2c1.2,7.4-0.9,14.1-4,20.1c0.5-0.1,1.1-0.3,1.6-0.4
		C259.6,793.6,261.3,786.5,262.8,779.4z"/>
	<path id="_x31_9" class="st15" d="M270.4,776.8c-1,7.8-2.8,15-6.9,21.6c1.4-0.4,2.8-0.8,4.1-1.2c3.8-5.6,4.1-13.9,4.1-20.9
		C271.2,776.5,270.8,776.7,270.4,776.8z"/>
	<path id="_x31_8" class="st15" d="M273.1,775.8c-0.5,0.2-1,0.4-1.5,0.5c0,7-0.3,15.3-4.1,20.9c0.4-0.1,0.7-0.2,1.1-0.3
		C271.8,790.3,273.9,783.1,273.1,775.8z"/>
	<path id="_x31_7" class="st15" d="M279.2,773.5c-0.4,0.2-0.9,0.4-1.3,0.5c3.2,6.5-1.8,14.4-4.9,21.6c1.3-0.4,2.7-0.9,4-1.3
		C280,787.7,282.4,780.1,279.2,773.5z"/>
	<path id="_x31_6" class="st15" d="M283.2,771.9c-0.6,0.2-1.2,0.5-1.8,0.7c2.7,6.9,1.4,14.3-1,20.5c0.6-0.2,1.3-0.4,1.9-0.7
		C285.4,785.7,286.9,778,283.2,771.9z"/>
	<path id="_x31_5" class="st15" d="M289.2,769.4c-0.5,0.2-1,0.4-1.5,0.6c5.2,5.8,1.2,14.5-1.6,21.1c0.9-0.4,1.9-0.7,2.8-1.1
		C292.4,783.3,295.9,774.1,289.2,769.4z"/>
	<path id="_x31_4.5" class="st15" d="M294.1,767.1c-0.6,0.3-1.1,0.5-1.7,0.8c4.4,5.9,2.9,13.2,1.8,20c0.7-0.3,1.3-0.6,2-0.8
		C297.4,780.2,296.5,774,294.1,767.1z"/>
	<path id="_x31_4" class="st15" d="M295,766.7c-0.3,0.1-0.6,0.3-0.9,0.4c2.5,6.9,3.3,13.1,2,19.9c0.2-0.1,0.5-0.2,0.7-0.3
		C300,780.5,299,772.6,295,766.7z"/>
	<path id="_x31_3" class="st15" d="M306.3,782.3c-1.1-6.6-3-12-6.4-18c-0.3,0.2-0.6,0.3-0.9,0.5c2.2,6.3,4.9,12.6,4.7,18.9
		C304.5,783.2,305.4,782.8,306.3,782.3z"/>
	<path id="_x31_2" class="st15" d="M304.3,762c-1,0.5-2,1-2.9,1.5c4.6,3.7,10.5,9.1,10.4,16c0.6-0.3,1.3-0.7,1.9-1
		C314.5,772.1,309.8,766.6,304.3,762z"/>
	<path id="_x31_1" class="st15" d="M312.4,757.6c-0.5,0.3-0.9,0.5-1.4,0.8c4.9,5.3,4,12.1,5.9,18.4c0.5-0.3,1.1-0.6,1.6-0.9
		C318.7,769.1,317.2,762.1,312.4,757.6z"/>
	<path id="_x31_0" class="st15" d="M327.3,770.6c-1.1-6.1-3.1-12.6-8-17c-1.1,0.7-2.3,1.4-3.5,2.1c5,4.4,8.4,10.4,7.9,17.1
		C325,772,326.1,771.3,327.3,770.6z"/>
	<path id="_x39_" class="st15" d="M326.1,749.3c-0.4,0.3-0.8,0.5-1.3,0.8c4.4,4.7,4.2,11.3,7.1,17.5c0.7-0.5,1.5-1,2.2-1.5
		C333.4,759.7,332.1,753.3,326.1,749.3z"/>
	<path id="_x38_" class="st15" d="M333.1,744.6c-0.7,0.5-1.4,1-2.2,1.5c7.1,1.1,8.6,8.7,11.1,14.5c1.2-0.9,2.4-1.8,3.6-2.7
		C343.9,752.1,338.8,746.3,333.1,744.6z"/>
	<path id="_x37_" class="st15" d="M344.1,736.3c-0.9,0.7-1.8,1.4-2.7,2.1c5.8,1.8,9.7,8,10.9,14.3c1.2-1,2.5-2,3.7-3.1
		C353.3,744.3,349.7,737.9,344.1,736.3z"/>
	<path id="_x36_" class="st15" d="M349,732.2c-0.7,0.6-1.4,1.2-2.1,1.8c5.6,2.7,9.8,7.8,11.7,13.5c0.5-0.4,1-0.9,1.5-1.3
		C358.1,740.1,355.2,734.9,349,732.2z"/>
	<path id="_x35_" class="st15" d="M354.3,727.4c-0.8,0.8-1.7,1.5-2.5,2.3c4.8,3.9,9.6,7.7,12.2,13.1c0.5-0.5,1.1-1,1.6-1.5
		C362.3,736.1,359.4,731.1,354.3,727.4z"/>
	<path id="_x34_" class="st15" d="M357.6,724.3c-0.3,0.3-0.5,0.5-0.8,0.8c5.6,1.9,10.3,7.4,12.5,13c0.4-0.4,0.9-0.8,1.3-1.2
		C367.9,731,364.2,726.2,357.6,724.3z"/>
	<path id="_x33_" class="st15" d="M359.8,722c-0.3,0.3-0.6,0.6-0.9,1c6.8,0.7,11.8,5.7,13.9,11.9c1.2-1.1,2.4-2.2,3.6-3.4
		C371.9,726.5,366.6,722.5,359.8,722z"/>
	<path id="_x32_" class="st15" d="M360.9,721c-0.2,0.2-0.4,0.4-0.6,0.7c6.8-1.6,13.9,2.5,19.7,6.4c0.6-0.6,1.2-1.2,1.7-1.7
		C377.2,720.1,368.2,720.1,360.9,721z"/>
	<path id="_x31_" class="st15" d="M361.9,719.9c-0.2,0.2-0.3,0.4-0.5,0.6c8-2.7,16.8-1.8,22.9,3.3c0.5-0.5,1-1,1.5-1.5
		C378.9,717,369.5,716.2,361.9,719.9z"/>
	<path id="тень_В" class="st16" d="M374.7,716.5c5.9-0.1,11.7,1,12.9,3.8c-52.8,53.7-94.2,74.6-159.3,85.9
		c-3.1-2-4.6-4.6-4.9-7.4C267.6,803.4,360.6,752,374.7,716.5z"/>
</g>
<g id="П_труба">
	<path id="база_1_" class="st14" d="M463.8,719c-5.1-3.2-22.7-3.8-24.9,1.3c52.8,53.7,94.2,74.6,159.3,85.9
		c8-5.2,5.5-14.2-1.8-19.3C546.7,780.1,491.9,750,463.8,719z"/>
	<path id="_x32_6_1_" class="st15" d="M600.1,790.4c3.2,3.9,4.1,8.8,1.4,12.7C602.5,798.6,602.4,794,600.1,790.4z"/>
	<path id="_x32_5_1_" class="st15" d="M592.9,786.4c0.5,0.1,1.1,0.2,1.6,0.2c4.8,4.7,7.3,14,2.6,19.4c-0.6-0.1-1.2-0.2-1.9-0.3
		C599.2,800.1,597.4,792.2,592.9,786.4z"/>
	<path id="_x32_4_1_" class="st15" d="M588.4,785.6c0.9,0.2,1.8,0.3,2.7,0.5c1.7,6.4,4.4,12.8,2.4,19.3c-1.4-0.3-2.8-0.5-4.2-0.8
		C592.6,798.5,593,791,588.4,785.6z"/>
	<path id="_x32_3_1_" class="st15" d="M583.7,784.7c0.6,0.1,1.1,0.2,1.7,0.3c3,6,3.3,13.3,0.6,18.9c-1.1-0.2-2.1-0.4-3.2-0.6
		C586.4,797.5,587,790.4,583.7,784.7z"/>
	<path id="_x32_2_1_" class="st15" d="M576.8,783.1c0.6,0.1,1.1,0.3,1.7,0.4c1.3,6.2-0.8,12.4-0.9,18.6c-0.7-0.2-1.3-0.3-2-0.5
		C577.5,795.7,576.9,789.7,576.8,783.1z"/>
	<path id="_x32_1_1_" class="st15" d="M572.5,781.9c0.8,0.2,1.6,0.4,2.5,0.6c0.3,6.5-2.1,12.4-0.2,18.8c-0.7-0.2-1.3-0.3-2-0.5
		C571.4,794.6,570.4,788.3,572.5,781.9z"/>
	<path id="_x32_0_1_" class="st15" d="M563.7,779.4c1.3,0.4,2.5,0.8,3.8,1.2c-1.2,7.4,0.9,14.1,4,20.1c-0.5-0.1-1.1-0.3-1.6-0.4
		C566.9,793.6,565.2,786.5,563.7,779.4z"/>
	<path id="_x31_9_1_" class="st15" d="M556.1,776.8c1,7.8,2.8,15,6.9,21.6c-1.4-0.4-2.8-0.8-4.1-1.2c-3.8-5.6-4.1-13.9-4.1-20.9
		C555.3,776.5,555.7,776.7,556.1,776.8z"/>
	<path id="_x31_8_1_" class="st15" d="M553.4,775.8c0.5,0.2,1,0.4,1.5,0.5c0,7,0.3,15.3,4.1,20.9c-0.4-0.1-0.7-0.2-1.1-0.3
		C554.7,790.3,552.6,783.1,553.4,775.8z"/>
	<path id="_x31_7_1_" class="st15" d="M547.3,773.5c0.4,0.2,0.9,0.4,1.3,0.5c-3.2,6.5,1.8,14.4,4.9,21.6c-1.3-0.4-2.7-0.9-4-1.3
		C546.5,787.7,544.1,780.1,547.3,773.5z"/>
	<path id="_x31_6_1_" class="st15" d="M543.3,771.9c0.6,0.2,1.2,0.5,1.8,0.7c-2.7,6.9-1.4,14.3,1,20.5c-0.6-0.2-1.3-0.4-1.9-0.7
		C541.1,785.7,539.6,778,543.3,771.9z"/>
	<path id="_x31_5_1_" class="st15" d="M537.3,769.4c0.5,0.2,1,0.4,1.5,0.6c-5.2,5.8-1.2,14.5,1.6,21.1c-0.9-0.4-1.9-0.7-2.8-1.1
		C534.1,783.3,530.6,774.1,537.3,769.4z"/>
	<path id="_x31_4.5_1_" class="st15" d="M532.4,767.1c0.6,0.3,1.1,0.5,1.7,0.8c-4.4,5.9-2.9,13.2-1.8,20c-0.7-0.3-1.3-0.6-2-0.8
		C529.1,780.2,530,774,532.4,767.1z"/>
	<path id="_x31_4_1_" class="st15" d="M531.5,766.7c0.3,0.1,0.6,0.3,0.9,0.4c-2.5,6.9-3.3,13.1-2,19.9c-0.2-0.1-0.5-0.2-0.7-0.3
		C526.5,780.5,527.5,772.6,531.5,766.7z"/>
	<path id="_x31_3_1_" class="st15" d="M520.2,782.3c1.1-6.6,3-12,6.4-18c0.3,0.2,0.6,0.3,0.9,0.5c-2.2,6.3-4.9,12.6-4.7,18.9
		C522,783.2,521.1,782.8,520.2,782.3z"/>
	<path id="_x31_2_1_" class="st15" d="M522.2,762c1,0.5,2,1,2.9,1.5c-4.6,3.7-10.5,9.1-10.4,16c-0.6-0.3-1.3-0.7-1.9-1
		C512,772.1,516.7,766.6,522.2,762z"/>
	<path id="_x31_1_1_" class="st15" d="M514.1,757.6c0.5,0.3,0.9,0.5,1.4,0.8c-4.9,5.3-4,12.1-5.9,18.4c-0.5-0.3-1.1-0.6-1.6-0.9
		C507.8,769.1,509.3,762.1,514.1,757.6z"/>
	<path id="_x31_0_1_" class="st15" d="M499.2,770.6c1.1-6.1,3.1-12.6,8-17c1.1,0.7,2.3,1.4,3.5,2.1c-5,4.4-8.4,10.4-7.9,17.1
		C501.5,772,500.4,771.3,499.2,770.6z"/>
	<path id="_x39__1_" class="st15" d="M500.4,749.3c0.4,0.3,0.8,0.5,1.3,0.8c-4.4,4.7-4.2,11.3-7.1,17.5c-0.7-0.5-1.5-1-2.2-1.5
		C493.1,759.7,494.4,753.3,500.4,749.3z"/>
	<path id="_x38__1_" class="st15" d="M493.4,744.6c0.7,0.5,1.4,1,2.2,1.5c-7.1,1.1-8.6,8.7-11.1,14.5c-1.2-0.9-2.4-1.8-3.6-2.7
		C482.6,752.1,487.7,746.3,493.4,744.6z"/>
	<path id="_x37__1_" class="st15" d="M482.4,736.3c0.9,0.7,1.8,1.4,2.7,2.1c-5.8,1.8-9.7,8-10.9,14.3c-1.2-1-2.5-2-3.7-3.1
		C473.2,744.3,476.8,737.9,482.4,736.3z"/>
	<path id="_x36__1_" class="st15" d="M477.5,732.2c0.7,0.6,1.4,1.2,2.1,1.8c-5.6,2.7-9.8,7.8-11.7,13.5c-0.5-0.4-1-0.9-1.5-1.3
		C468.4,740.1,471.3,734.9,477.5,732.2z"/>
	<path id="_x35__1_" class="st15" d="M472.2,727.4c0.8,0.8,1.7,1.5,2.5,2.3c-4.8,3.9-9.6,7.7-12.2,13.1c-0.5-0.5-1.1-1-1.6-1.5
		C464.3,736.1,467.1,731.1,472.2,727.4z"/>
	<path id="_x34__1_" class="st15" d="M468.9,724.3c0.3,0.3,0.5,0.5,0.8,0.8c-5.6,1.9-10.3,7.4-12.5,13c-0.4-0.4-0.9-0.8-1.3-1.2
		C458.6,731,462.3,726.2,468.9,724.3z"/>
	<path id="_x33__1_" class="st15" d="M466.7,722c0.3,0.3,0.6,0.6,0.9,1c-6.8,0.7-11.8,5.7-13.9,11.9c-1.2-1.1-2.4-2.2-3.6-3.4
		C454.6,726.5,459.9,722.5,466.7,722z"/>
	<path id="_x32__1_" class="st15" d="M465.6,721c0.2,0.2,0.4,0.4,0.6,0.7c-6.8-1.6-13.9,2.5-19.7,6.4c-0.6-0.6-1.2-1.2-1.7-1.7
		C449.3,720.1,458.3,720.1,465.6,721z"/>
	<path id="_x31__1_" class="st15" d="M464.6,719.9c0.2,0.2,0.3,0.4,0.5,0.6c-8-2.7-16.8-1.8-22.9,3.3c-0.5-0.5-1-1-1.5-1.5
		C447.6,717,457,716.2,464.6,719.9z"/>
	<path id="тень_В_1_" class="st16" d="M451.8,716.5c-5.9-0.1-11.7,1-12.9,3.8c52.8,53.7,94.2,74.6,159.3,85.9
		c3.1-2,4.6-4.6,4.9-7.4C558.8,803.4,465.9,752,451.8,716.5z"/>
</g>
<g id="прав_рука">
	<path id="XMLID_25_" class="st0" d="M495.3,590.2c-4.3,14.3-18.5,68.5-32.5,127.2c1.8,46.6,72,65.7,107.2,21.3
		c14.2-20.8,25.4-39.5,30.6-52.8C646.8,562.9,522.1,524.1,495.3,590.2z"/>
	<path id="XMLID_20_" class="st4" d="M494.5,592.9c0,0,46.5,9.4,63.1,18.6c11.9,6.6,50.5,45.6,50.5,45.6l2.6-19.7
		c0,0-34.9-34.4-48.4-42c-18.1-10.3-58.8-19-58.8-19L494.5,592.9z"/>
	<path id="XMLID_15_" class="st17" d="M595.7,584.8c0,6.9-28,50.3-53.5,95.2c-17.5,31-29.4,59.4-42.1,80.6
		c11.5,4.3,41,9.8,69.9-21.9c14.1-20.8,25.4-39.5,30.6-52.8C609.7,661.6,619,618.6,595.7,584.8z"/>
	<g id="Слой_11">
		<path id="XMLID_26_" class="st0" d="M494.5,667.5c-70.5,27.9-146.7,60.2-159.6,73.5c-1.7,8.5,0.7,16.1,8.6,17.7
			c32.2,2.3,126.4,9.9,195,8.9C563.9,737.7,568.7,676.7,494.5,667.5z"/>
		<path id="XMLID_16_" class="st1" d="M355.9,726.8c0,0,10.3,6.5,11.8,14.9c1.9,10.9-2.7,18.4-2.7,18.4l74.9,4.8
			c0,0,2.6-20.4-2.1-35c-5.6-17.3-25-29.6-25-29.6c-1.6,0.7-27.7,12.2-44.7,20.3L355.9,726.8z"/>
		<path id="XMLID_18_" class="st4" d="M433.7,692.2c-3.2,1.3-6.4,2.7-9.5,4c18.9,16.7,29.5,38.7,28.9,69.5c2.5,0.1,4.9,0.2,7.4,0.3
			C461,738.9,453.1,714.9,433.7,692.2z"/>
		<path id="XMLID_11_" class="st4" d="M453.7,684c-3.2,1.3-6.3,2.6-9.4,3.9c18.5,24.5,24.5,37.1,24,78.5c2.4,0.1,4.7,0.2,7.1,0.3
			C481.6,735.4,474.9,707,453.7,684z"/>
		<path id="XMLID_19_" class="st17" d="M540.6,684.4c-27.6,45.3-166,55.8-202.8,54.1c-1.4,8.2,1.1,15.3,8.7,16.8
			c32.2,2.3,127.5,4.2,196.1,3.3c9.6-11.1,13-26.8,12.5-43.6C552.5,698.4,548.8,693.7,540.6,684.4z"/>
	</g>
</g>
<g id="лев_рука">
	<path id="в_6_" class="st0" d="M325.9,582.5c-59-65-160.4,22.5-84.3,114.6c10.7,16.5,34.5,40.7,61.9,66
		c47,34.5,92.8-15.3,79.8-61.9C357.8,646.2,333,595.7,325.9,582.5z"/>
	<path id="в_2_" class="st4" d="M314.3,571.8c0,0-41.9,30.7-54.6,44.2c-9.4,9.9-36,52-36,52l8.5,16.2c0,0,29.2-45.7,39.4-57.3
		c11.4-12.9,54.3-44.5,54.3-44.5L314.3,571.8z"/>
	<path id="в_1_" class="st17" d="M316.1,726.3c-27.3-43.3-87.3-125.6-89.6-137.2c-3.9,6.8-12.1,23.4-12,36.6
		c-0.8,32.6,19.4,63.4,27.1,71.4c10.7,16.5,34.5,40.7,61.9,66c14,11.9,41.4,16.8,58.1,2.9C357.8,765.4,333.3,753.6,316.1,726.3z"/>
	<g id="н">
		<path id="XMLID_143_" class="st0" d="M349.6,674.9c-56.4,12-62.9,70.3-16,99.7c63.8-0.4,137.9-5.6,165.7-7.3
			c7.9-1.5,10.4-9.1,8.7-17.6C495.2,736.4,419.7,703.4,349.6,674.9z"/>
		<path id="XMLID_42_" class="st1" d="M486,735.5c0,0-10.4,6.4-11.9,14.8c-2,10.9,2.5,18.4,2.5,18.4l-75,4.1c0,0-2.4-20.5,2.4-34.9
			c5.7-17.2,25.3-29.3,25.3-29.3c1.6,0.7,27.6,12.4,44.5,20.7L486,735.5z"/>
		<path id="XMLID_41_" class="st18" d="M418.7,741.1c2.2-10.2,11.1-21.4,20.5-28.1c8.3,3.8,20.1,9.2,30.1,14
			c-13.1,9.3-14.2,27.7-14.2,27.7S430.8,750.4,418.7,741.1z"/>
		
			<radialGradient id="XMLID_74_" cx="-75.7419" cy="704.2318" r="19.382" gradientTransform="matrix(-0.9824 0.187 0.187 0.9824 238.2803 54.3168)" gradientUnits="userSpaceOnUse">
			<stop  offset="0.1182" style="stop-color:#1DBFD3"/>
			<stop  offset="0.9409" style="stop-color:#001331"/>
		</radialGradient>
		<path id="XMLID_23_" class="st19" d="M449.6,748.8c-9.3-1.8-17-4.4-25-8.5c3.6-10.3,9.8-19.3,17.8-25.8
			c6.1,2.8,14.9,6.9,22.1,10.3C456.2,729.6,451.3,739.7,449.6,748.8z"/>
		<path id="XMLID_140_" class="st4" d="M409.6,700c-19.7,22.5-27.8,46.4-27.5,73.6c2.5-0.1,5-0.2,7.4-0.3
			c-0.3-30.8,10.5-52.7,29.5-69.2C416,702.7,412.8,701.4,409.6,700z"/>
		<path id="XMLID_141_" class="st4" d="M389.7,691.5c-21.4,22.8-28.4,51.1-22.5,82.5c2.4-0.1,4.7-0.1,7.1-0.2
			c0-41.4,6-53.9,24.8-78.3C396,694.2,392.8,692.8,389.7,691.5z"/>
		<path id="XMLID_144_" class="st17" d="M362.1,748.1c-10.7-2.9-48.5-22.3-57.2-39.1c-3.3,11.3-9.2,42.4,28.6,65.6
			c63.8-0.4,137.9-5.6,165.7-7.3c7.7-1.4,10.2-8.6,8.9-16.7C478.3,756.7,387.2,756.5,362.1,748.1z"/>
	</g>
</g>
<g id="голова">
	<path id="XMLID_32_" class="st20" d="M658.9,346.5c0,16.9-2.4,40.6-7.4,63.5c-2.7,12.6-4.9,18.5-9.3,30
		c-34.7,90.7-120.7,148.9-229.1,148.9c-182.3,0-256.4-120.4-252.2-192.6c3-50.9,28.4-64,33.2-113.1c9.7-98.5,87.6-194.4,219-194.4
		C601,89,658.9,204.3,658.9,346.5z"/>
	<g id="л_глаз">
		<path id="XMLID_5_" class="st21" d="M228.2,310.6c0,0,16.6-33.3,76.6-22.1c46,8.6,59.8,42.8,59.8,42.8s-35.1,17.9-70,13.5
			C242.8,338.3,228.2,310.6,228.2,310.6z"/>
		
			<radialGradient id="XMLID_77_" cx="314.6223" cy="322.3177" r="26.4767" gradientTransform="matrix(0.9924 0.1234 -0.1234 0.9924 42.9336 -40.2941)" gradientUnits="userSpaceOnUse">
			<stop  offset="0.3793" style="stop-color:#73A8A3"/>
			<stop  offset="0.4414" style="stop-color:#72A7A0"/>
			<stop  offset="0.4982" style="stop-color:#71A49A"/>
			<stop  offset="0.553" style="stop-color:#6E9F8F"/>
			<stop  offset="0.6066" style="stop-color:#6B9A80"/>
			<stop  offset="0.6592" style="stop-color:#66936E"/>
			<stop  offset="0.7112" style="stop-color:#5F8B57"/>
			<stop  offset="0.7617" style="stop-color:#57833E"/>
			<stop  offset="0.7734" style="stop-color:#55803A"/>
			<stop  offset="0.775" style="stop-color:#55813B"/>
			<stop  offset="0.8401" style="stop-color:#669470"/>
			<stop  offset="0.8852" style="stop-color:#70A193"/>
			<stop  offset="0.9064" style="stop-color:#73A8A3"/>
		</radialGradient>
		<circle id="XMLID_6_" class="st22" cx="315.4" cy="318.4" r="26.5"/>
		<circle id="XMLID_8_" cx="315.4" cy="318.4" r="11.1"/>
		<ellipse id="XMLID_9_" class="st23" cx="304.4" cy="317" rx="5.4" ry="2.7"/>
		<circle id="XMLID_28_" class="st23" cx="326.4" cy="319.7" r="2.8"/>
		<path id="XMLID_27_" class="st24" d="M357.6,319.7c-0.3-0.4-27.9-16.8-38.1-21c-15.8-6.4-48.7-7.5-63-3
			c-16.3,5.1-23.2,8-28.3,14.9c14.6,16.3,35.2,28.1,49.2,25.9c14.5-2.3,42.9-2.9,57,0.3c4.4,1,30.2-5.5,30.2-5.5
			s-52.8,26.9-85.5,24.8c-55.2-3.4-61.9-35.3-62.1-42.2c-0.2-9.5,16.8-23.2,32-27.9c17.5-5.3,54.8-2.2,72,4.1
			C346.1,299.5,357.6,319.7,357.6,319.7z"/>
		<path id="XMLID_33_" class="st25" d="M329.9,301.7c-2.7-1.5-8.2-4.1-11-5.1c-0.7-0.2-1.5-0.5-2.4-0.8c-3.9-1.1-9.3-1.7-13.9-2.5
			c-0.1,0,0.1,0,0.1,0l-8.1-1c0,0-10.3-0.7-13.7-0.8c-3.1-0.1-9.2-0.1-12.4,0.1c-3,0.2-8.8,1.4-11.7,2c-3.2,0.7-9.3,2.8-12.3,4
			c-2.9,1.1-8.3,4.2-10.9,5.7c-1.7,1-4.7,3.6-6.4,4.7c-2.4,1.6-10.2,5.9-10.2,5.9s8.7-1.8,11.1-3.3c1.3-0.8,3.6-3,4.7-4
			c0.9-0.8,3.1-2.5,4.2-3.1c2-1.1,6-3.2,8.1-4c2.5-1,7.5-2.7,10-3.4c3.1-0.8,9.3-1.8,12.5-2.1c4.5-0.4,13.4-0.6,17.9-0.4
			c4.3,0.1,13,0.8,17.2,1.5c3.6,0.6,10.9,1.8,14.4,3c1.9,0.6,5.5,2.3,7.3,3.2c2.5,1.3,7.5,3.9,10,5.2c5.8,3.2,22.9,13.3,22.9,13.3
			S337.1,305.7,329.9,301.7z"/>
	</g>
	<g id="п_глаз">
		<path id="XMLID_43_" class="st21" d="M582.3,353.9c0,0-8.3-36.3-69.3-39.4c-46.7-2.4-68.1,27.7-68.1,27.7s30,25.6,64.9,29.5
			C561.7,377.5,582.3,353.9,582.3,353.9z"/>
		
			<radialGradient id="XMLID_78_" cx="500.3187" cy="322.1942" r="26.4767" gradientTransform="matrix(-0.9938 -0.1115 -0.1115 0.9938 1056.5901 79.5698)" gradientUnits="userSpaceOnUse">
			<stop  offset="0.3793" style="stop-color:#73A8A3"/>
			<stop  offset="0.4414" style="stop-color:#72A7A0"/>
			<stop  offset="0.4982" style="stop-color:#71A49A"/>
			<stop  offset="0.553" style="stop-color:#6E9F8F"/>
			<stop  offset="0.6066" style="stop-color:#6B9A80"/>
			<stop  offset="0.6592" style="stop-color:#66936E"/>
			<stop  offset="0.7112" style="stop-color:#5F8B57"/>
			<stop  offset="0.7617" style="stop-color:#57833E"/>
			<stop  offset="0.7734" style="stop-color:#55803A"/>
			<stop  offset="0.775" style="stop-color:#55813B"/>
			<stop  offset="0.8401" style="stop-color:#669470"/>
			<stop  offset="0.8852" style="stop-color:#70A193"/>
			<stop  offset="0.9064" style="stop-color:#73A8A3"/>
		</radialGradient>
		<circle id="XMLID_40_" class="st26" cx="523.5" cy="344" r="26.5"/>
		<circle id="XMLID_37_" cx="523.5" cy="344" r="11.1"/>
		<path id="XMLID_36_" class="st24" d="M454.3,332.6c0.4-0.3,31-9.9,41.9-11.5c16.8-2.5,49.2,4.1,62,11.7
			c14.6,8.8,20.7,13.2,24.1,21.1c-18,12.5-40.8,19.1-53.9,13.7c-13.6-5.6-41.1-12.8-55.5-13c-4.5-0.1-28.1-12.4-28.1-12.4
			s45.1,38.4,77.3,44.1c54.5,9.5,68.5-19.9,70.2-26.5c2.5-9.2-10.9-26.5-24.6-34.6c-15.7-9.3-52.8-14.9-70.9-12.7
			C470.3,315.6,454.3,332.6,454.3,332.6z"/>
		<path id="XMLID_35_" class="st25" d="M485.5,321.6c2.9-0.8,8.9-2.1,11.9-2.4c0.7-0.1,1.6-0.2,2.5-0.2c4-0.2,9.4,0.5,14.1,0.8
			c0.1,0-0.1,0-0.1,0l8.1,0.9c0,0,10.1,1.7,13.5,2.4c3,0.6,9,2.1,12,3c2.8,0.9,8.3,3.5,10.9,4.7c2.9,1.4,8.4,4.9,11,6.7
			c2.5,1.7,7.1,6,9.3,8.1c1.4,1.4,3.7,4.6,5.1,6c2,2.1,8.6,8.1,8.6,8.1s-8-3.8-10-5.9c-1.1-1.1-2.8-3.7-3.7-5c-0.7-1-2.4-3.1-3.4-4
			c-1.6-1.6-5.1-4.5-7-5.8c-2.2-1.5-6.6-4.4-9-5.6c-2.8-1.5-8.6-4-11.6-5c-4.3-1.5-12.9-3.7-17.3-4.6c-4.2-0.9-12.8-2.2-17.1-2.6
			c-3.7-0.3-11.1-0.8-14.7-0.5c-2,0.2-5.9,0.9-7.9,1.4c-2.7,0.6-8.2,2-10.9,2.8c-6.4,1.8-25.4,7.6-25.4,7.6S477.5,323.8,485.5,321.6
			z"/>
		<ellipse id="XMLID_29_" class="st23" cx="512.5" cy="342.8" rx="5.1" ry="2.3"/>
		<circle id="XMLID_30_" class="st23" cx="534.5" cy="345.2" r="2.8"/>
	</g>
	<g id="губанос">
		<path id="XMLID_31_" class="st27" d="M362.6,350.1c0,0-20.3,28.6-22.3,43.2c-1.4,9.9,4.1,15,9,18.2c6.9,4.5,17.1,6.7,25.2,5.4
			c4.2-0.7,13.4-3.2,19.6-4.1c5.8-0.8,20.3,3.8,26.6,2.7c22-3.9,0-26.1,0-26.1s12.2,20.3-3.5,21.3c-3.1,0.2-13.3-4.8-24.1-3.7
			c-5.1,0.5-14.3,3.4-19,3.9c-6.3,0.7-12.8-1.1-17.8-3.9c-4.2-2.4-9.9-5.9-10.2-13.8C345.4,378.1,362.6,350.1,362.6,350.1z"/>
		<path id="XMLID_34_" class="st28" d="M282.8,483.2c0,0,23,7,43.1,6.6c20.1-0.4,37.3-2.6,56.6-0.8c17.5,1.6,26,5.2,43.2,9.3
			c25.4,6,58.6,0,58.6,0s-54.8,10.8-105.3,6.1C331.6,499.8,282.8,483.2,282.8,483.2z"/>
		<path id="XMLID_46_" class="st29" d="M337.2,503.1c0,0-2,9.8,40.5,14.7c38.5,4.4,44.8-8.8,44.8-8.8s-4.4,5.3-42.4,2.9
			C346.6,509.6,337.2,503.1,337.2,503.1z"/>
		<path id="XMLID_49_" class="st30" d="M297.4,547.1c0,0,32.9-1.2,43.2,0c8.8,1.1,33.6,9,33.6,9s-26.6-2.3-35.4-3.3
			C328.5,551.6,297.4,547.1,297.4,547.1z"/>
		<path id="XMLID_52_" class="st31" d="M364.7,273.1c3.2-17-26.5-20.1-63.2-19.2c-18.2,0.4-31.2,3.5-60.6,13.2
			c67.4-12.8,80-2,92.1,4.1C344.5,276.9,362.3,280.9,364.7,273.1z"/>
		<path id="XMLID_51_" class="st31" d="M465,287.8c0.4-17.3,30.1-14.2,65.8-5.7c17.7,4.2,29.8,9.9,56.5,25.5
			c-63.3-26.5-77.8-18.5-90.9-15.1C483.9,295.7,465.7,295.9,465,287.8z"/>
	</g>
	<g id="волос">
		<path id="XMLID_59_" class="st31" d="M638.6,124.1c-38-48.9-162.4-56.4-224-63.6C371.3,55.4,304.4,20.9,282.8,89
			c-79.7-22.3-78.3,145.9-78.3,145.9s48.5-60.2,70.3-73.2c37.1-22.3,126.8-35.9,170-33.4c38.1,2.3,118.5,19.8,145.3,46.9
			c12.9,13,22.9,50.1,27.6,67.8c1.8,6.8,0.2,18.7,7.3,26.4c10,10.8,31.7,24.8,42.1,14.3C667.1,221.2,665.3,158.5,638.6,124.1z"/>
		<path id="XMLID_60_" class="st32" d="M625,269.3c3.8,13.8,7.7,28.6,9.4,38.1c4.4,24.6,10.4,99.2,10.4,99.2s10.9-45,14.1-60.1
			c3.7-17.4,6.7-39.4,8.2-62.9C653.1,278.7,638.9,274.3,625,269.3z"/>
		<path id="XMLID_73_" class="st33" d="M596.1,138.1c0,0-4.4,8.7-7.4,9.2c-3.9,0.6-12.1-6.7-13.1-10.6c-1.6-6.3,9.1-18.2,15.5-19.2
			c7.5-1.2,23,12.7,24.9,20.1c2.5,9.8-14.1,28-23.8,29.5c-10.5,1.6-32.4-17.8-35.1-28.3c-3.5-13.8,19.9-39.5,33.7-41.8
			c14.8-2.4,47.1,25,49.5,39.9c1.4,9-21.7,26.8-21.7,26.8s13.8-20.4,11.7-27.1c-3.5-11-26.2-33.3-37.4-31.7
			c-9.4,1.4-27.7,22.7-25.3,32.1c1.7,6.9,15.5,19,22.5,18.8c6.5-0.2,16.4-12.1,16.3-18.5c0-4.5-9.6-12.4-14.2-12.7
			c-3.7-0.2-8.8,7.1-8.7,10.7c0.1,1.7,3.5,4.4,5.2,4.8C590.6,140.8,596.1,138.1,596.1,138.1z"/>
		<path id="XMLID_65_" class="st33" d="M268.8,131.1c0,0-2.3,9.7-5.2,11c-3.6,1.6-13-3.3-14.8-6.9c-2.9-5.8,4.9-20.3,10.7-22.9
			c6.9-3.1,24.7,6.3,28.1,13.2c4.4,8.9-7.5,31.2-16.6,35.3c-9.7,4.4-34.7-8.9-39.5-18.5c-6.3-12.6,10.7-44.1,23.4-49.9
			c13.6-6.3,50.3,12,55.7,26.1c3.2,8.4-15,32.1-15,32.1s8.9-23.7,5.4-29.7c-5.6-9.9-32.1-25.8-42.4-21.2
			c-8.7,3.9-21.6,29.6-17.4,38.2c3.1,6.3,18.8,14.6,25.5,12.5c6.2-1.9,13.1-16.2,11.7-22.5c-1-4.4-11.8-9.7-16.2-8.7
			c-3.6,0.7-6.9,9.3-6,12.8c0.4,1.6,4.3,3.4,6,3.4C264.1,135.2,268.8,131.1,268.8,131.1z"/>
		<path id="XMLID_67_" class="st33" d="M233.4,167.2c0,0-2-4.6-1.2-6c1.1-1.8,6.7-2.6,8.5-1.7c3.1,1.5,4.2,9.7,2.5,12.5
			c-2,3.4-12.7,4.9-16.3,3.2c-4.7-2.3-6.4-14.9-3.8-19.3c2.8-4.7,17.8-6.9,22.9-4.5c6.6,3.2,9,21,5.4,27.3
			c-3.9,6.7-25.5,10.4-32.2,6.3c-4-2.4-3.4-17.5-3.4-17.5s3.5,12.3,6.9,13.7c5.5,2.3,21.9,0.7,25-4.3c2.6-4.2,0.2-18.5-4.3-20.7
			c-3.3-1.6-12.7-0.2-14.9,2.7c-2.1,2.6-0.6,10.5,1.9,12.6c1.8,1.5,8.1,0.3,9.7-1.4c1.3-1.4,0.1-5.9-1.4-7c-0.7-0.5-2.9-0.1-3.6,0.5
			C234.1,164.1,233.4,167.2,233.4,167.2z"/>
		<path id="XMLID_68_" class="st33" d="M220.9,200.3c0,0,1.6,2.4,1.1,3.2c-0.6,1.1-4.3,2.2-5.6,2c-2.1-0.5-3.3-4.9-2.4-6.7
			c1.2-2.1,8.2-4.3,10.7-3.7c3.3,0.7,5.1,7.6,3.6,10.4c-1.6,3-11.5,6-15,5.3c-4.6-1-7.2-10.7-5.1-14.7c2.3-4.2,16.4-8.9,21.2-7.4
			c2.8,0.9,3.3,9.4,3.3,9.4s-3.1-6.5-5.4-6.8c-3.8-0.6-14.7,2.2-16.4,5.4c-1.5,2.7,0.9,10.4,4.1,11.1c2.3,0.5,8.5-1.4,9.8-3.3
			c1.2-1.7-0.2-6-2-6.9c-1.3-0.6-5.4,0.8-6.4,2c-0.8,0.9,0.3,3.3,1.3,3.8c0.5,0.2,1.9-0.3,2.4-0.7
			C220.6,202.1,220.9,200.3,220.9,200.3z"/>
		<path id="XMLID_70_" class="st33" d="M209.1,224.4c0,0,0.5,0.8,0.4,1.1c-0.1,0.4-1.1,0.7-1.5,0.5c-0.6-0.2-1-1.8-0.8-2.3
			c0.3-0.7,2.1-1.2,2.8-1c0.9,0.3,1.6,2.7,1.3,3.6c-0.4,1-3,1.7-4,1.4c-1.3-0.5-2.3-3.8-1.8-5.1c0.5-1.4,4.3-2.6,5.6-2
			c0.8,0.4,1.2,3.3,1.2,3.3s-1-2.3-1.7-2.5c-1.1-0.3-4,0.4-4.4,1.4c-0.3,0.9,0.5,3.6,1.4,3.9c0.6,0.2,2.3-0.3,2.6-0.9
			c0.3-0.6-0.2-2-0.7-2.4c-0.4-0.2-1.5,0.1-1.7,0.5c-0.2,0.3,0.2,1.1,0.5,1.3c0.1,0.1,0.5-0.1,0.6-0.2
			C209.1,225.1,209.1,224.4,209.1,224.4z"/>
		<path id="XMLID_69_" class="st33" d="M212.1,214.3c0,0,0-1.6,0.4-1.9c0.5-0.4,2.2,0.1,2.6,0.6c0.7,0.8,0,3.4-0.9,4
			c-1,0.7-4.2-0.1-5-1.1c-1.1-1.3,0.1-5.2,1.4-6.2c1.4-1,5.9,0.2,7.1,1.6c1.5,1.8-0.1,7.4-1.9,8.7c-2,1.5-8.6-0.1-10-2.2
			c-0.8-1.2,1.2-5.6,1.2-5.6s-0.5,4.1,0.2,4.9c1.3,1.4,6.1,3,7.6,1.9c1.3-0.9,2.4-5.5,1.4-6.7c-0.7-0.9-3.6-1.7-4.6-1.1
			c-0.9,0.5-1.5,3-1.1,4c0.3,0.7,2.3,1.1,2.9,0.8c0.5-0.2,0.8-1.7,0.5-2.2c-0.1-0.2-0.8-0.4-1.1-0.3
			C212.7,213.4,212.1,214.3,212.1,214.3z"/>
		<path id="XMLID_66_" class="st33" d="M325.9,127c0,0,0.8-3.4,1.8-3.8c1.3-0.6,4.5,1.2,5.1,2.4c1,2-1.7,7-3.7,8
			c-2.4,1.1-8.6-2.2-9.8-4.6c-1.5-3.1,2.6-10.9,5.8-12.3c3.4-1.5,12.1,3.1,13.7,6.4c2.2,4.4-3.7,15.3-8.2,17.4
			c-4.7,2.2-17.5-4.2-19.4-9.1c-1.1-2.9,5.2-11.2,5.2-11.2s-3.1,8.2-1.9,10.3c2,3.5,11.2,9,14.8,7.4c3-1.3,7.5-10.3,6.1-13.3
			c-1.1-2.2-6.5-5.1-8.9-4.4c-2.1,0.7-4.6,5.6-4.1,7.8c0.3,1.5,4.1,3.4,5.6,3c1.2-0.3,2.4-3.2,2.1-4.5c-0.1-0.6-1.5-1.2-2.1-1.2
			C327.5,125.6,325.9,127,325.9,127z"/>
		<path id="XMLID_44_" class="st33" d="M630.5,264.8c0,0-1.6,1.2-2.1,1c-0.8-0.2-1.6-2.2-1.4-2.9c0.3-1.2,3.3-2.5,4.5-2.1
			c1.4,0.4,3,4.1,2.6,5.6c-0.4,1.9-5,3.8-6.9,3.3c-2-0.6-4.2-5.8-3.7-7.9c0.6-2.7,7.1-5.3,9.7-4.6c2.9,0.8,6.2,8.3,5.2,11.1
			c-0.6,1.7-6.3,3-6.3,3s4.3-2.5,4.5-3.8c0.4-2.2-1.7-8-3.8-8.6c-1.8-0.5-7,1.7-7.4,3.6c-0.3,1.3,1.1,4.6,2.3,5.2
			c1.2,0.5,4-0.8,4.6-1.9c0.4-0.8-0.6-3-1.4-3.4c-0.6-0.3-2.2,0.5-2.5,1.2c-0.1,0.3,0.2,1.1,0.5,1.3
			C629.3,264.8,630.5,264.8,630.5,264.8z"/>
		<path id="XMLID_45_" class="st33" d="M639.6,268.1c0,0-1.6,1.2-2.1,1c-0.8-0.2-1.6-2.2-1.4-2.9c0.3-1.2,3.3-2.5,4.5-2.1
			c1.4,0.4,3,4.1,2.6,5.6c-0.4,1.9-5,3.8-6.9,3.3c-2-0.6-4.2-5.8-3.7-7.9c0.6-2.7,7.1-5.3,9.7-4.6c2.9,0.8,6.2,8.3,5.2,11.1
			c-0.6,1.7-6.3,3-6.3,3s4.3-2.5,4.5-3.8c0.4-2.2-1.7-8-3.8-8.6c-1.8-0.5-7,1.7-7.4,3.6c-0.3,1.3,1.1,4.6,2.3,5.2
			c1.2,0.5,4-0.8,4.6-1.9c0.4-0.8-0.6-3-1.4-3.4c-0.6-0.3-2.2,0.5-2.5,1.2c-0.1,0.3,0.2,1.1,0.5,1.3
			C638.4,268.2,639.6,268.1,639.6,268.1z"/>
		<path id="XMLID_54_" class="st33" d="M649.6,271.2c0,0-1.6,1.2-2.1,1c-0.8-0.2-1.6-2.2-1.4-2.9c0.3-1.2,3.3-2.5,4.5-2.1
			c1.4,0.4,3,4.1,2.6,5.6c-0.4,1.9-5,3.8-6.9,3.3c-2-0.6-4.2-5.8-3.7-7.9c0.6-2.7,7.1-5.3,9.7-4.6c2.9,0.8,6.2,8.3,5.2,11.1
			c-0.6,1.7-6.3,3-6.3,3s4.3-2.5,4.5-3.8c0.4-2.2-1.7-8-3.8-8.6c-1.8-0.5-7,1.7-7.4,3.6c-0.3,1.3,1.1,4.6,2.3,5.2
			c1.2,0.5,4-0.8,4.6-1.9c0.4-0.8-0.6-3-1.4-3.4c-0.6-0.3-2.2,0.5-2.5,1.2c-0.1,0.3,0.2,1.1,0.5,1.3
			C648.4,271.2,649.6,271.2,649.6,271.2z"/>
		<path id="XMLID_58_" class="st33" d="M630.9,244.5c0,0-3.7-0.6-4.3-1.6c-0.7-1.3,0.9-5,2.2-5.8c2.1-1.3,7.7,1.3,8.9,3.4
			c1.3,2.5-1.8,9.6-4.3,11.1c-3.3,2-11.9-2-13.7-5.3c-1.9-3.6,2.5-13.5,6-15.6c4.6-2.8,16.8,2.8,19.4,7.5c2.7,5-3.3,19.5-8.5,22
			c-3.1,1.5-12.4-4.8-12.4-4.8s9.1,2.7,11.3,1.2c3.6-2.4,8.9-13,6.9-16.8c-1.7-3.2-11.7-7.4-14.8-5.5c-2.3,1.4-5,7.6-4.1,10.1
			c0.9,2.3,6.4,4.5,8.7,3.8c1.6-0.5,3.4-4.8,2.9-6.5c-0.4-1.3-3.7-2.4-5-1.9c-0.6,0.2-1.2,1.7-1.1,2.4
			C629.2,242.8,630.9,244.5,630.9,244.5z"/>
		<path id="XMLID_62_" class="st33" d="M623.3,219.7c0,0-3.7-0.6-4.3-1.6c-0.7-1.3,0.9-5,2.2-5.8c2.1-1.3,7.7,1.3,8.9,3.4
			c1.3,2.5-1.8,9.6-4.3,11.1c-3.3,2-11.9-2-13.7-5.3c-1.9-3.6,2.5-13.5,6-15.6c4.6-2.8,16.8,2.8,19.4,7.5c2.7,5-3.3,19.5-8.5,22
			c-3.1,1.5-12.4-4.8-12.4-4.8s9.1,2.7,11.3,1.2c3.6-2.4,8.9-13,6.9-16.8c-1.7-3.2-11.7-7.4-14.8-5.5c-2.3,1.4-5,7.6-4.1,10.1
			c0.9,2.3,6.4,4.5,8.7,3.8c1.6-0.5,3.4-4.8,2.9-6.5c-0.4-1.3-3.7-2.4-5-1.9c-0.6,0.2-1.2,1.7-1.1,2.4
			C621.6,218.1,623.3,219.7,623.3,219.7z"/>
		<path id="XMLID_64_" class="st33" d="M629,187.7c0,0-3.6,6.4-5.9,6.7c-2.9,0.4-8.6-5.1-9.1-8c-0.9-4.7,7.5-13.3,12.2-13.9
			c5.5-0.8,16.3,9.7,17.3,15.2c1.4,7.2-11.6,20.5-18.8,21.5c-7.8,1.1-22.9-13.6-24.4-21.4c-1.9-10.3,16.5-28.9,26.7-30.4
			c11-1.6,33.4,19.1,34.4,30.2c0.6,6.6-17.1,19.5-17.1,19.5s11.1-14.9,9.8-19.9c-2-8.2-17.7-25-25.9-23.9
			c-6.9,0.9-21.3,16.4-20.1,23.4c0.9,5.1,10.5,14.3,15.6,14.2c4.8,0,12.5-8.7,12.8-13.4c0.2-3.3-6.4-9.3-9.8-9.6
			c-2.7-0.2-6.8,5.2-6.9,7.8c0,1.2,2.4,3.3,3.6,3.6C624.8,189.7,629,187.7,629,187.7z"/>
		<path id="XMLID_63_" class="st33" d="M649,223.1c0,0-2.2-3.1-1.9-4.2c0.4-1.4,4.2-2.9,5.7-2.6c2.4,0.6,4.6,6.4,3.9,8.7
			c-0.8,2.8-8,5.5-10.9,4.9c-3.7-0.9-7.1-9.8-6-13.4c1.2-3.9,11.3-7.8,15.3-6.8c5.2,1.3,10,13.9,8.5,18.9
			c-1.6,5.5-16.1,11.5-21.6,9.6c-3.2-1.1-5.4-12.2-5.4-12.2s4.6,8.3,7.2,8.8c4.3,0.8,15.5-2.9,16.8-7c1.1-3.4-3.1-13.5-6.6-14.4
			c-2.6-0.7-8.9,1.9-10,4.3c-1,2.2,1.4,7.7,3.5,8.9c1.5,0.8,5.7-1,6.6-2.5c0.7-1.2-1-4.3-2.2-4.9c-0.6-0.3-2.1,0.4-2.5,0.9
			C648.9,220.8,649,223.1,649,223.1z"/>
		<path id="XMLID_61_" class="st33" d="M649.6,250.1c0,0-3.7-0.6-4.3-1.6c-0.7-1.3,0.9-5,2.2-5.8c2.1-1.3,7.7,1.3,8.9,3.4
			c1.3,2.5-1.8,9.6-4.3,11.1c-3.3,2-11.9-2-13.7-5.3c-1.9-3.6,2.5-13.5,6-15.6c4.6-2.8,16.8,2.8,19.4,7.5c2.7,5-3.3,19.5-8.5,22
			c-3.1,1.5-12.4-4.8-12.4-4.8s9.1,2.7,11.3,1.2c3.6-2.4,8.9-13,6.9-16.8c-1.7-3.2-11.7-7.4-14.8-5.5c-2.3,1.4-5,7.6-4.1,10.1
			c0.9,2.3,6.4,4.5,8.7,3.8c1.6-0.5,3.4-4.8,2.9-6.5c-0.4-1.3-3.7-2.4-5-1.9c-0.6,0.2-1.2,1.7-1.1,2.4
			C647.9,248.5,649.6,250.1,649.6,250.1z"/>
		<path id="XMLID_57_" class="st33" d="M658.4,273.8c0,0-1.6,1.2-2.1,1c-0.8-0.2-1.6-2.2-1.4-2.9c0.3-1.2,3.3-2.5,4.5-2.1
			c1.4,0.4,3,4.1,2.6,5.6c-0.4,1.9-5,3.8-6.9,3.3c-2-0.6-4.2-5.8-3.7-7.9c0.6-2.7,7.1-5.3,9.7-4.6c2.9,0.8,6.2,8.3,5.2,11.1
			c-0.6,1.7-6.3,3-6.3,3s4.3-2.5,4.5-3.8c0.4-2.2-1.7-8-3.8-8.6c-1.8-0.5-7,1.7-7.4,3.6c-0.3,1.3,1.1,4.6,2.3,5.2
			c1.2,0.5,4-0.8,4.6-1.9c0.4-0.8-0.6-3-1.4-3.4c-0.6-0.3-2.2,0.5-2.5,1.2c-0.1,0.3,0.2,1.1,0.5,1.3
			C657.1,273.8,658.4,273.8,658.4,273.8z"/>
		<path id="XMLID_56_" class="st33" d="M345.8,89.4c0,0,0.5,9.5-2.6,11c-4,2-17.5-1.7-21-4.9c-5.7-5.2-1.1-19.7,5.3-22.9
			c7.6-3.7,33.3,3.2,40,9.3c8.8,7.9,1.7,30.4-8.2,35.2c-10.6,5.3-46.8-4.5-56.3-13.1c-12.4-11.3-2.3-42.9,11.6-49.9
			c14.9-7.5,67.5,5.8,79.4,18.5c7.1,7.6-7.5,32-7.5,32s2.7-23.4-3.8-28.7c-10.6-8.8-49.6-20.8-60.9-15.3
			c-9.5,4.6-16.6,30.5-8.3,38.1c6.1,5.6,28.9,11.7,36.5,9c7.1-2.5,10.7-16.8,6.7-22.6c-2.8-4-18.3-7.8-23.5-6.4
			c-4.2,1.1-5.3,9.6-3,12.8c1.1,1.5,6.6,2.7,8.7,2.5C341.4,93.8,345.8,89.4,345.8,89.4z"/>
		<path id="XMLID_71_" class="st33" d="M510.3,108.7c0,0-4.5,8.1-2.5,10.8c2.6,3.4,15.8,6,20.2,4.7c7.1-2.1,9.4-17,5.2-22.5
			c-4.9-6.6-30.1-11.4-38.5-9c-11,3.2-14.5,26.1-8.1,34.7c6.9,9.2,42.3,16.1,54.1,12.6c15.5-4.6,20.4-36.9,11.4-49.1
			c-9.6-13-60.6-23.9-76.3-17.8c-9.4,3.7-7.3,31.5-7.3,31.5s7.8-21.8,15.6-23.8c12.9-3.2,51.6,2.9,59,12.7c6.2,8.2,1.2,34-9.3,37.2
			c-7.7,2.3-29.9-2.1-35.3-7.8c-5-5.2-2-19.4,3.9-22.8c4.1-2.4,19.1,0.9,23,4.4c3.1,2.8,0.5,10.8-2.9,12.6c-1.6,0.8-6.8-0.4-8.6-1.5
			C512.1,114.5,510.3,108.7,510.3,108.7z"/>
		<path id="XMLID_72_" class="st33" d="M430.1,94.1c0,0-10.5-2.7-13.2-1.3c-3.5,1.8-3.7,10.3-1.3,13.1c4,4.5,21.8,5.5,27.4,2.7
			c6.6-3.3,7.1-19.6,2.5-25c-6.1-7-33.6-8.5-42.2-4.2c-9.3,4.7-10,27.6-3.5,35.1c8.6,9.8,47.4,12,59.8,5.9
			c13.2-6.5,15.4-39.6,4.9-49.5c-6.3-5.9-38.4-3.8-38.4-3.8s27.2,4.3,31.1,9.3c6.4,8.2,7.3,33.2-2.5,38.3
			c-8.3,4.2-39.6,1.8-45.5-4.8c-4.3-4.8-3.8-19.2,1.7-22.9c5.1-3.4,22.3-1.8,27.5,1.9c3.6,2.6,2.9,12.3-0.4,14.9
			c-2.6,2.1-12.5,0.6-15.4-1.5c-1.3-1-0.9-4.4,0-5.6C423.7,95.5,430.1,94.1,430.1,94.1z"/>
		<path id="XMLID_55_" class="st33" d="M357.7,114.8c0,0,3-3.9,4.5-3.9c2,0,5.3,4.2,5.4,6.2c0.2,3.2-6.3,8.2-9.5,8.2
			c-3.8,0-10.1-8-10.3-11.9c-0.3-5,9.6-12.6,14.6-12.6c5.3,0,14.2,11.3,14.4,16.7c0.4,7.1-13.6,17.8-20.6,17.9
			c-7.5,0-20.7-16-20.4-23.5c0.2-4.5,13.2-11.5,13.2-11.5s-8.8,9-8.4,12.4c0.6,5.7,9.6,18.4,15.3,18.5c4.7,0,15.8-9,15.6-13.8
			c-0.2-3.5-5.7-10.6-9.2-11c-3.2-0.4-9.2,4.7-9.8,7.8c-0.4,2.2,3.5,6.9,5.7,7.4c1.8,0.4,5-2.8,5.3-4.6c0.1-0.8-1.3-2.4-2.1-2.8
			C360.6,113.9,357.7,114.8,357.7,114.8z"/>
	</g>
	<path id="XMLID_75_" class="st20" d="M657.8,351.7c3.6-6.8,20.5-13.9,28.2-12.6c5.9,0.9,16.3,10.2,17.6,16
		c3.3,14.6-2.5,53-15.1,70.2c-7.9,10.7-23.8,24.7-37.1,24.1c-5-0.2-14.3-8.8-14.7-13.8c-0.7-9,10.3-24.7,13.5-33.2
		C654.8,390.3,651.6,363.1,657.8,351.7z"/>
	<path id="XMLID_76_" class="st34" d="M658.9,388.2c0,0,0.3-22.9,5-28.4c3.6-4.3,15.8-8.9,21.3-7.6c3.1,0.7,11.3,4.7,10,7.6
		c-2.5,5.7-16.6,10.3-24.7,2.9C664.8,366.8,658.9,388.2,658.9,388.2z"/>
</g>
</svg>
